<svg width="914" height="400" fill="none" xmlns="http://www.w3.org/2000/svg"><g clip-path="url(#a)"><rect width="914" height="400" rx="16" fill="#fff"/><path d="M345.2 149.5c-.3 0 1.1 5.4 1.2 5.8l.8 2.8.6 1.5.3.6.1.4c.1.2.1.2 0 .1l1.3 2.6c.3.6.8 1.4 1.5 1.6.7.2 1.4-.2 1.6-.9.1-.2.1-.5-.1-.1-.2.2-.4.5-.7.6-.9.2-1.5-1-1.9-1.6a50 50 0 0 1-4-10.7l-.7-2.7Zm2.6 8.7Z" fill="#333"/><path d="M346.7 129.2c-.9.6-1 2.2-1.2 3-.3 1.2-.5 2.3-.6 3.5 0-.1 0 0 0 0a68 68 0 0 0 1.3 19.7l.7 2.2c.2.7.6 1.4 1 2.2l.5 1c.2.4.4.6.2 0l-1-2.5c-.5-1.5-1-3-1.3-4.5l-.5-2.4c0-.6 0-1.1-.2-1.7v-1.1c-.4-2.2-.5-4.5-.4-6.7 0-2.2 0-4.5.3-6.6l.7-4.3c.1-.5.3-1.3.9-1.6.6-.2 1.3.3 1.5.8l.3.7c0 .2.1.4 0 .1 0-.4-.3-1-.5-1.4-.4-.5-1.2-.8-1.7-.4Zm.6.2Zm-1.5 22.2Zm-1-15.9Zm9.2 18.1c-.3 0-.1 1.8-.1 2v2.9c-.2 1.6-.5 4-1.5 5.4l-.5.5c-.4.3-.2.3.2.1.5-.3.8-.8 1-1.4a26.7 26.7 0 0 0 .8-9.5Zm0 5v-.1Z" fill="#333"/><path d="M347.5 129.2c-.2 0-.3.1-.1.2h.2l1 1.1c1 1.4 1.4 3.2 2 4.7a50 50 0 0 1-.3-1.5c-.3-1-.7-1.9-1.2-2.8-.3-.6-.8-1.7-1.6-1.7Zm.2.3Zm-3.5 21.9.7 3.5c.3 1.2.6 2.5 1.2 3.7.4 1.1.9 2.3 1.5 3.4.5.8 1.2 2 2.2 2.4.2.1.7.3 1 .2.3-.2 0-.3-.3-.3a3 3 0 0 1-1.8-1.2 17.7 17.7 0 0 1-2.5-4.8c-.5-1-.9-2.5-1.2-3.6l-.8-3.3Zm2.1 7.3Zm3.6 5.4Zm-.1.3Zm-3.4-34.8a3 3 0 0 0-1.4.6c-.4.3-.6 1-.8 1.5a17 17 0 0 0-.8 3.3 36.5 36.5 0 0 0-.2 9.2c0 .2 0 1.1.2 1 .2 0 0-1 0-1.1l-.1-1.3a38.4 38.4 0 0 1 .5-8.7c0-.6.3-1.3.5-2 .2-.5.4-1.1.8-1.6 0 .1 0 0 0 0l.1-.1.7-.5.6-.2s0-.2-.1-.1Zm-3 14.7Zm1.7-13.8Zm.1-.1Z" fill="#333"/><path d="M343 139.6c-.2 3 0 6 .6 9l.9 4.5c0 .3.9 3.8 1 3.7.2 0-.5-2.6-.6-3l-.5-3c-.4-2.2-.8-4.5-1-6.9l-.1-.4-.2-2.3v-1.6h-.1Zm.3 4.3Zm.1.8Z" fill="#333"/><path d="m343.3 146.1.1 1v.7l.5 2.7.5 2.1v.6c.3.3.2 0 .2-.3 0-.6-.2-1.1-.3-1.7l-.8-4V146s-.2-.1-.2 0Zm1.3 6.7Zm2.4 7.9.7 1.4c.5.7.9 1.6 1.6 2.2.3.2.7.4 1 .4.4 0 .7-.2.3-.3-1-.2-1.6-.7-2.2-1.5a34 34 0 0 1-1.4-2.2Zm2.3 3.2Zm-2.1-6.1c-.2 0 .8 2.5.9 2.7a112.8 112.8 0 0 0 1.4 2.5l-.6-1.4-.1-.2-.7-1.4-.9-2.2Zm.6 1.5Zm.3 1.2Zm.5-19.7c-.1 2.5-.1 5 .1 7.4l.1 1 .3 2.6c.1.6.3 2 .9 2.3 0 0 .7.2.6 0l-.4-.2c-.5-.5-.6-1.7-.7-2.4a47.5 47.5 0 0 1-.8-9.8v-.9Zm6.6-1.6c-1.3.1-2.7 0-4 .2h-1.9c-.1 0-.5.1-.4.2.1.2.2 0 .3 0h.4c.5.2 1 .1 1.6 0l2.4-.2h1l.5-.1s.3-.1.1-.1Zm-4 .2Z" fill="#333"/><path d="M349.2 139.4c-.6 0-.7 1-.7 1.5v2.3l.2 2.1v1.2-5.2c0-.4 0-1.5.4-1.8l.8.1c0-.2-.6-.3-.7-.2Zm-.3.4Zm.1-.4Zm13.8 13.3-.1.3-.5.2-1 .1h-.5l-6.8.5-2.8.2h-.7c-.1 0-.5 0-.3.1h2.1l2-.1h1c.9-.1 1.7 0 2.5-.2a72 72 0 0 1 4-.3c.3 0 .7 0 1-.2 0 0 .4-.7.1-.6Zm-8.6 1.3Zm-2.9.1Zm.5-.2Zm9-.6Zm2-.3s.1 0 0 0Z" fill="#333"/><path d="m361.4 138.6-3.1.3-1.8.2c-.8 0-1.6 0-2.4.2l-3.4.3h-.5c-.1 0-.5-.3-.6-.2-.3.1.4.3.5.3.8.2 1.7 0 2.6 0l5.5-.6 2.3-.1h1.4c.3-.4-.4-.4-.5-.4Zm-10.7 1Zm7.6-.7Zm0 0c.1 0 .1 0 0 0Z" fill="#333"/><path d="M361.8 138.7v2.5l.2 3.2.3 4.2.1 2.9.1 1.4c.1.5.4.2.4-.2l-.1-1.4v-.5l-.4-5.9-.2-3.1c0-.3-.2-3.2-.4-3.1Zm0 .6Zm0 1.4Zm.5 3.9Zm.2 7.8Zm.4.4Zm-.1-1.6Zm-.7-10c0-.1 0 0 0 0Zm-18.9-2.2-1.4.1c-.5.2-.7.5-.8 1l-.3 2.9c0 2 0 4.1.3 6l.2 1.6a14 14 0 0 0 1.7 5.1c.4.7 1 .6 1.8.6h.8c.3-.4-.3-.3-.3-.3h-1.4c-.5 0-.8-.6-1-1l-.8-2.2-.7-4a23.7 23.7 0 0 1 .1-9.2c.3-.3.8-.3 1.2-.3l.6-.1s.1-.2 0-.2Zm-2.2 10Zm0 0Zm0 0Z" fill="#333"/><path d="M341.2 138.5a1 1 0 0 0-.7.3c-.1.1-.5.5-.3.7.1.2.3-.2.4-.3.1-.2.4-.4.6-.4.3 0 .5 0 .7.2 0 0 .4.6.5.2 0-.4-.8-.7-1.1-.7Zm-.4.5Zm2.8 17.2-.2.1-.4.1c-.3.1-.5-.1-.8-.1-.3 0 0 .2.2.3h.5l.5-.2.2-.2Z" fill="#333"/><path d="M340.8 138.7c-1.2.8-1.1 2.6-1.2 3.9a37.5 37.5 0 0 0 1.7 12l.2.4c.1.5.3 1 .6 1.3 0 0 .5.4.4.2l-.3-.6c-.6-1.1-1-2.3-1.3-3.5a39.2 39.2 0 0 1-1-10.5c.1-.9.2-1.8.6-2.5 0-.2.4-.4.4-.5 0-.1 0-.3-.1-.2Zm-1.1 7Z" fill="#333"/><path d="M340.6 139h-3l-2.5.1c-1.9.2-3.8 0-5.8.2l-10.6.7-3 .2-3 .4-3.1.2-3.1.3-3.2.2-2.8.4c-2 .3-4.2.3-6 .6-.5 0-1 .2-1.4.3-.3 0-.6.2-.1.2l1.1-.1 1.4-.1 2.3-.2 2.3-.3 1-.2c3.8-.5 8.3-.5 12.2-1l5.1-.4 5.3-.3 5.8-.4c2-.2 4 0 5.9-.2l3-.2h1.5l.8-.1v-.3Zm-27.8 1.6Zm-12.4 1.1Zm13-.8c-.1 0 0 0 0 0Zm28.7 15.5c-3.2 0-6.4.2-9.6.6l-4.6.5c-1.5 0-3.3.3-4.6.4l-4.3.4-4.3.2c-2.6.2-5.2.6-7.9 1h-1c-.4.1-4.8.4-4.8.6h.7c.9-.2 2-.1 3-.2a72.1 72.1 0 0 1 15.3-1.3l3.7-.3h.3l.7-.1 1.2-.2 2.5-.2 4.6-.5 5.2-.5 2.3-.1h1.2c.2 0 .5 0 .6-.2l-.2-.1Zm-18.9 1.5Z" fill="#333"/><path d="M309.2 159.2c-.8 0-1.5.2-2.2.3l-1.8.2a43 43 0 0 1-5.6.3c-1.8 0-3.6.3-5.4.4l-5.7.3c-1.7.2-3.4.1-5.1.4l-5.1.4-5.5.5c-3.5.2-7 .7-10.4.8-1.5 0-3 0-4.5.3-.7.2-1.4.2-2.1.2h-1.2c-.2 0-1 0-1 .2-.2.3.7.1.8.1h1.3l2.5-.3c1.7-.2 3.5-.1 5.3-.2l2.6-.2 2.3-.1c1.9-.3 3.7-.3 5.6-.5l5.1-.4 4.9-.5 11-.7 5.4-.4c1.8 0 3.6-.2 5.4-.5l2.6-.4h.8s.1-.2 0-.2Zm-26.4 2Zm.8.3Zm0 0Zm12.7-19.2-9.7.8-4.8.5-4.7.5c-2.5.3-5.1.3-7.7.5-2.5.2-5 .2-7.7.6l-2.4.3h-1.5l-1.4.2-3 .2-2.5.2c-.8 0-1.5.2-2.3.3-1 0-1.8 0-2.7.2l-1.2.1c-.2 0-.4.1-.2.3h.4l2.8-.2 1.3-.1 1.4-.2h2.1l2.4-.2c1.5 0 3-.2 4.4-.4l4.6-.5 4.5-.2 9.4-.7c3.1-.3 6.3-.5 9.4-1l5-.5 2.5-.3 1.2-.1.5-.1v-.2Z" fill="#333"/><path d="M251.2 146.4c-1.6 0-3.1.3-4.7.2H242l-9.6.8-4.7.3-4.4.5-4.6.4-4.3.2-4.3.5-2.4.4c-.6 0-1.6 0-2 .6 0 .2 0 .4.2.4l.4-.4c.7-.3 1.6-.2 2.3-.3l4.4-.6c3-.3 6-.3 9-.7l4.4-.5 5-.2 10.7-.9c1.7-.1 3.5-.1 5.2-.3l2.3-.2h1.7l-.1-.2Zm-45.3 4.2Zm57.9 12.4-9.7.5c-3.2 0-6.4.3-9.5.7l-9.3.8-4.8.4a41 41 0 0 0-5 .2l-5.2.5-5.5.5h-.2l-.4.1-.8.1-.7.1h-.6l-1.4.2-1.2.1h-1.6c-.6.4.4.4.6.4 2 0 4-.3 6-.6l1-.1c3-.5 6.2-.6 9.3-.9l5.1-.2c1.7 0 3.4-.3 5.1-.4 6.3-.4 12.6-1.3 18.9-1.6l5.1-.3 2.7-.3h1.9c-.2 0 .5-.2.2-.2Z" fill="#333"/><path d="M207.2 149.8c-.8 0-1.6.5-2 1.2a9 9 0 0 0-1.3 3.8v1.2c0 .3-.2.9 0 1 .4.3.4-.4.4-.6 0 .2 0-.1 0 0v-.6a9 9 0 0 1 1-4.6c.4-.6 1-1 1.7-1.2h.9c0-.2-.6-.2-.7-.2Zm-2 1.2Zm0 .3Zm-1 4.4Zm0 .8Zm0-.2Zm.1 3.9c-.3 0 .1 2.5.2 2.7a12 12 0 0 0 .8 2.5 4 4 0 0 0 1.9 2c.2 0 1.7.5 1.9 0 0-.2-.7-.2-.9-.2a2 2 0 0 1-1-.3c-.8-.4-1.3-1-1.6-1.8-.4-.7-.8-1.8-1-2.7l-.3-2.2Z" fill="#333"/><path d="M205.7 149.9c-.6 0-1.1.4-1.5.8 0 0-.5.7-.2.6l.5-.5a2 2 0 0 1 1.3-.7c.1 0 .7.2.6 0 0-.2-.5-.2-.7-.2Zm0 .2Zm.3 17.2c-.2.2 1 .6 1 .6.2 0 1-.1 1-.3.1-.2-.8 0-.9 0-.3 0-.5 0-.8-.2l-.3-.1Zm1.5.3Z" fill="#333"/><path d="M204.8 150.2c-1.5 1-1.9 2.8-2 4.5-.1.6-.2 1.4 0 2 0 .5.2.3.2-.1v-1.8c.1-1 .4-1.9.7-2.7l.6-1.1c0-.2.2-.4.4-.6l.2-.1-.1-.1Zm-1.3 2.4Zm-.5 2.2Zm0 0Zm-.2-.1Zm1.1-3.6Zm-.9 9.5v.2c.2 1.6.6 3.3 1.4 4.7.4.8 1 1.5 1.7 2 0 0 .8.5.7.2 0-.2-.8-.5-.9-.6a7.4 7.4 0 0 1-1.8-2.8c-.3-.6-.5-1.2-.6-2l-.3-1.5-.1-.2Zm.2.2Z" fill="#333"/><path d="M203.1 160.5v.9l.3 1.4c0 .2.7 2.2.9 2.1l-.5-1.3c-.2-.6-.3-1.2-.3-1.9 0-.1-.1-1.4-.4-1.2Zm-.6-10.1-.8.1c-.7.1-1.3.2-1.7.7a17.3 17.3 0 0 0-1.5 4.7v.9c0 .2.2.1.3 0v-1l.5-2.3c.2-.7.5-1.4.9-2 .4-.6 1.1-.6 1.8-.7l2-.1c.5 0 .5-.2.1-.2h-1.6Zm-.8.1Zm-.8.5Zm-.4.1Zm-.9 1.5Zm-.8 9 .1.7c.1 1 .4 2 .7 2.7.4 1 .9 2.1 1.8 2.6.2.2 1 .5 1.2.4.2-.2.1-.2 0-.2-.2-.2-.6-.1-.8-.2l-1-.8-.9-1.7-1-3v-.5Z" fill="#333"/><path d="M201.2 167.4c-.1.1.9.5 1 .5.5.2 1 .2 1.4.1l1.7-.1 1.2-.1c.2-.2 0-.3-.2-.3l-1.2.2h-2.6l-.9-.1-.4-.2Zm-.5-6.6-.6.2-1.1.5h-.3c0 .3.3.3.4.2.3 0 .7-.4 1-.5l.6-.2s.2-.3 0-.2Zm-2.3-4.1s-.2.3 0 .4l.1-.1c.4 0 .7.3 1 .4.2 0 1 .3 1 0l-.9-.3-.6-.2-.6-.2Z" fill="#333"/><path d="M198.6 156.8c-.8 0-.5 1.5-.5 2v.4c0 .7 0 1.3.2 2 0 .1.1.5.3.5.3 0 .3-.1.2-.3l-.2-.7-.1-.6V157s.6-.3.1-.3Zm0 4.3Zm0 0Zm-.2-3.3Zm3-1.9c-1.3 0-1.2 2.4-1.1 3.2 0 1 .3 2.6 1.5 2.6.5 0 .8-.3.8-.8v-.3l-.2.3c0 .7-.8.7-1.2.3-.5-.4-.6-1.3-.6-1.9a6 6 0 0 1 0-2.2c.2-.6.7-1.4 1.4-.8l.2.2s0 .1 0 0l.2.7c.2 0 .1-.4 0-.5a1 1 0 0 0-1-.8Zm-.8 1.3Zm-.3 0Z" fill="#333"/><path d="M201.4 156.7c-.6.3-.5 1.6-.6 2.1 0 .6 0 1.7.5 2.1.3.3.9.2.9-.3 0-.3-.3.2-.4.3-.6.2-.7-1.2-.7-1.6a6.7 6.7 0 0 1 .1-1.7c0-.3.3-1 .6-.6 0 0 .2.5.3.1 0-.3-.4-.4-.7-.4Zm.3.2Zm-.5 3.4Z" fill="#333"/><path d="m208.7 158.3-.2.4c-.1.4-.4.7-.7.8-1.3.4-2.7.4-4 .7l-2 .3c-.3 0-1 .1-.3.2l1-.1c1.3 0 2.6-.4 4-.6.4 0 1.1 0 1.6-.3l.5-.7s.2-.7 0-.7Z" fill="#333"/><path d="M207.4 156.7h-.2l-1.6.1h-1.7l-1.7.3h-1c-.2.2.1.2.2.2l3.4-.2 1.7-.1c.6 0 1.3-.2 1.8.1.6.4.3 1.4 0 1.9l-.3.5c0 .3.4-.1.5-.2.3-.4.5-1.2.4-1.8-.2-.7-.9-.9-1.5-.8Zm-.2 0Z" fill="#333"/><path d="M202.6 157c-.4.1-.1 0-.2 0l-.4.1c-.4 0 0 0 0 0-.2 0-.8 0-.9.2-.3.3.6 0 .6 0l.7-.1h.5c.2-.2-.3-.1-.3-.1Zm-.7.1Zm-2.9-.1c-.1.2 1 .4 1.2.4 0 0 .3 0 .2-.2h-.1a4 4 0 0 0-.8-.2h-.5Zm3.2 3.5h-.6s-.7.1-.2.2h.5l.3-.1s.1-.1 0-.1Zm-1.6.2h-.2l-1.2.7c-.5.3.2 0 .4 0l.9-.4s.2 0 .2-.2c0 0 0-.1-.1 0Zm152.4-6.5v2c0 1.3 0 2.7-.3 4-.1.4-.4 1.2-.9 1.1-.4 0-1-1-1.2-1.2l-1.4-2.9a21 21 0 0 0 1.4 3.5c.3.4.7 1 1.1 1.1.6.2 1-.4 1.2-.8.4-1 .4-2.4.4-3.5 0-.3-.1-3.3-.3-3.3Zm-.3 6.1c0 .2 0 0 0 0Zm-.3.7Zm-4-27.9c-.3 0-.5.4-.6.7-.5.8-.6 2.1-.7 3.2v5.9c0 .3.1 3.5.3 3.5l-.2-3v-3l.3-3.1c0-.6 0-1.2.2-1.7 0-.6.3-1 .5-1.5.2-.3.3-.5.6-.3.4.2.7.7.9 1l1 2.3c.3-.1-1.2-3-1.3-3.3-.2-.2-.5-.7-1-.7Zm-.2 1Zm-1 6.5Zm0 0Zm2.6-.2-.2 3.8c0 1.2.2 2.4.3 3.5l.3 2.8.5 2.9-.3-3V149c-.2-1.2-.2-2.6-.2-3.8l-.3-3.4v-1.4s-.1-.1-.1 0Zm-.1 4.7Zm-12.9-6.1c-.7 0-1.5 0-2.2.2h-1.7l-2.3.3-4.2.3-8.9.6-17.2 1.4c-11.7 1-23.5 2-35.3 2.8l-18.7 1.6c-2.3.3-4.9.4-7.3.6l-7.3.8-7.7.6-3.5.3h-1.9l-.8.1h-1.1c-.1 0-.3.2-.2.3 0 .2.4.1.6.1h2l3.8-.3 7.4-.6 15.2-1c9.9-.9 19.8-1.4 29.8-2.2l30-2.6 14.6-1.3 14.8-1.3 1.8-.2c.1 0 .4 0 .5-.2.1-.2 0-.4-.2-.4Zm-83.6 6.6Zm-6 .5Zm92.6 10.2c-4 .1-8.1.6-12.1 1l-12.1.8-24.6 2-6.8.5-3.4.3-2.5.2h-.5l-.7.1-1.5.2-3 .2-6 .5-11.7 1-6.8.6h-.6l-.5.1-.9.1-1.7.2-3.3.2-6.6.6c-2.1.2-4.3.3-6.4.6l-6.5.6-5.4.4-2.7.2-1.3.1c-.4.3.6.3.7.3l10.7-.7 21.5-1.6 12-1.1h.7l1-.1 2.3-.2 4-.4 8.3-.7 16.3-1.3 16.5-1.4 16.8-1.3 9-.8 4.4-.4 2.4-.3 1-.1c.1-.1.2-.4 0-.4ZM278 161Zm.7 0Zm324.6-7.9c-.4 0-.8.3-.3.5.4.2 1 0 1.3 0l3.3.3a109.4 109.4 0 0 1 5.2.6h1c.3 0-.2-.2-.3-.2l-1.3-.2-4.7-.7-2.1-.2c-.7 0-1.4-.2-2.1-.1Zm-36.3-2.3-.7.1c-.2.2 0 .4.1.4l1 .1.8.2 3.7.3h3.8l2 .2h.8l.2-.1.1-.6-5.2-.2h-.2c-2.1 0-4.2-.4-6.3-.4h-.2Z" fill="#333"/><path d="M583.1 151.9v.4l.8.1 1.5.1 2.9.2 6.5.5 12.3.6c-1.9-.3-3.7-.7-5.6-.8l-6.3-.5-3-.3c-1 0-2 0-3-.2l-6.1-.4v.3Zm-24.9-1.7h-.7c-.2.3 0 .3.2.3.4.2 1 .1 1.3.1l3 .4a143.2 143.2 0 0 0 11.2.7l3 .2 1.4.2h.9c.2.1.3 0 .2-.1v-.4c-3.4-.3-6.9-.8-10.3-.8a84 84 0 0 1-5.2-.2c-1.6-.1-3.3-.4-5-.4Z" fill="#333"/><path d="m583 152.3 5 .3 5.1.4c0-.2-9.2-1-10-1.1v.4ZM451.7 136H448c-1.3.1-2.5.3-3.8.3h-7.1c-5.1 0-10.2.3-15.2.3l-7.5.1-7.4.1c-2.4.2-4.7.3-7.1.3l-7.4.5-3.4.2c-.1 0-.5 0-.4.3h2.5c2.4 0 4.7-.2 7-.3 2.3-.2 4.6 0 7-.2 2.4-.2 4.9-.2 7.3-.2l7.6-.2 7.3-.2c5.1 0 10.2-.3 15.3-.4l7.6-.2 7.3-.2a71.6 71.6 0 0 1 4.8 0c.1 0 .7.1.8 0 .2-.1-.4-.1-.5-.1-2.4-.2-4.9-.1-7.3-.1h-3.8Z" fill="#333"/><path d="m400.8 137.1-8.4.3c-2.7 0-5.4 0-8.1.2-2.8 0-5.5.5-8.2.5H372c-1.4 0-2.8.3-4.1.3l-4 .3c-.6 0-1.2 0-1.7.2-.2 0-.5 0-.6.2-.1.3.1.3.3.4l1.7-.2 2-.1 3.7-.4c2.8-.4 5.5 0 8.3-.2 2.7 0 5.5-.3 8.2-.4a118.5 118.5 0 0 0 13.9-1h2.4c.2 0 .1 0-.1-.1h-1.2Zm31.8 11.9-6 .2-5.9.2-12.1.5h-2.4l-2.5.2a61 61 0 0 1-5 .3c-3.2 0-6.5.4-9.8.7-1.7 0-3.4.2-5 .3h-2.5l-1.3.2c-.3 0-1 0-1.2.2-.2.1-.2.4 0 .4h1l2.6-.1 5.2-.3 5.1-.4c.8 0 1.6 0 2.5-.2l2.5-.2c1.6 0 3.3 0 4.9-.2l2.5-.2h2.5l9.9-.5c3.3-.1 6.7-.2 10-.5 1.8 0 3.4-.2 5.1-.3H447c.5-.2-.3-.2-.5-.2h-8.7l-5.2-.2Z" fill="#333"/><path d="M391.1 150.7c-2.1 0-4.3.6-6.4.7-2.1.2-4.3.3-6.4.3h.1c-1.8 0-3.6 0-5.3.2v.7c3-.2 6-.2 9-.6 1.4-.1 2.9-.2 4.4-.5 1.5-.2 3.2-.6 4.6-.6.2 0 1.2.2 1.3 0 .2-.2-1.2-.2-1.3-.2Zm-23.9 1.6-3.2.1c-.4 0-1 0-1.4.3-.2 0-.3.3-.1.5h3.7l1.6-.1.8-.1c.2 0 .2 0 .2-.3v-.5l-1.6.1ZM473 136h-4.7l-.2.4c.1.2.6.1.7.2h6.7l3.3.1h23.4l13.7.3 13.8.3 3.3.2h1.6l.8.1c.3 0 .7.2 1 .1.2 0 .2 0 0-.2h-.8l-1.8-.2c-1.2 0-2.3-.2-3.5-.3-4.5-.3-9.1-.4-13.7-.5-4.6-.1-9.2-.4-13.9-.4l-13.1-.1c-4.5-.1-9 .2-13.4 0h-3.3Zm11 .6Z" fill="#333"/><path d="M461.6 135.7c-4 0-7.8.2-11.7.5h-.4a18.9 18.9 0 0 1-2.2 0h-9s-1 0-1 .2c-.1.2 1 .2 1.2.2l2.9.2h8.8l3.4-.2c-.3 0 .3 0 0 0h.9c3-.2 6.5-.2 9.7-.2 3.2 0 6.6.3 9.7.1l6.4-.1h3.7c.2 0 1.3.2 1.4 0 0-.3-1.4-.3-1.6-.3-2.3-.1-4.6-.3-7-.3h-7.2c-2.7 0-5.4-.2-8-.1Zm-11.5.5Zm24 .3Zm-20.3.1Zm.4 0Zm19.7-.1Zm-23.1-.4Zm14.8 12.2c-4.3 0-8.6.2-13 .4l-12.8.1c-2.3 0-4.7.3-7 .4h-1.1l-1.2.1-1.7.1-1.9.1-3.2.2c-.4 0-3.6 0-3.6.3l3.6-.2h8.3l4.1-.1 4-.2h8.5c2.8 0 5.7-.1 8.5-.3 4.1-.2 8.3-.1 12.4-.2h5.9l6.1-.1H492c.1 0 .4 0 .2-.1 0-.2-.5-.1-.7-.1-2-.2-3.9-.1-5.9-.2h-13.2l-6.7-.2Zm-27.6.6Zm19 .3Zm-19.9.4Zm0 0Zm20-.4Zm0 0c.1 0 .1 0 0 0Zm-24.3 0s.1 0 0 0Zm.1 0Zm0 0Zm93.4-12.3h-6.6l1.2.1 3 .2 11.2.6h3.2l1.5.1h.7a8.1 8.1 0 0 1 .6 0l3 .1h2.7l3.5.2h.1c2 0 4.6.1 6.8.3h6.9l6.5.6c2.2.1 4.3.3 6.5.3l13.3.7 7.2.5a408.1 408.1 0 0 1 11.8.6l2.9.2c.2 0 1.3.3 1.3 0 0-.2-.9-.2-1-.2-4-.5-8-.8-11.9-1h-1.3l-1-.1h-1.7l-10-.8-4.8-.2-4.8-.3h-1.3l-1.6-.2h-1.6l-.9-.1h-.6l-6.4-.5c-2.1-.1-4.2 0-6.3-.2l-12.1-.4-6.8-.2h-.6a75 75 0 0 1-2.6-.1l-3.4-.1c-2.2-.2-4.4-.2-6.6-.2Zm16.5.4Zm15.9.5Zm5.4.8Zm18.2.5Zm-4.6.4Zm25.7 1.3Zm-2.7-.6Z" fill="#333"/><path d="M488.5 148.4a308.9 308.9 0 0 0-16.3.6h3.4c2.2 0 4.4 0 6.6.2 4.7 0 9.3-.2 14 0l3.6.1h25.9l2 .1 12.6.3h1.3l1.5.1 12 .6 3.3.1 3.9.4h.5c0-.2-.4-.2-.5-.2l-2-.2-3.6-.4c-4.8-.3-9.6-.8-14.4-1l-14.3-.3a253 253 0 0 0-22.1-.2h-7.8c-3.1-.2-6.4-.2-9.6-.2Zm38 .3Zm-45 .4Zm14.8 0Zm0 0c.1 0 .1 0 0 0Zm31.5.3Zm15.3.4Zm5.6.3Zm8.6.4Zm-35.2-1.9Zm-24 0c-.1 0 0 0 0 0Z" fill="#333"/><path d="M539.4 149.3c-.1 0-1 0-.9.2.1.1.7 0 .8 0 1.1 0 2.2.3 3.2.4l3.4.2 6.4.4h1.1a81.1 81.1 0 0 1 4.2.4l5.3.4 11 .6 3 .2h.8l.6.2.2-.4h.2v-.3c-2.8-.4-5.8-.5-8.7-.7l-8.8-.4h-.4l-.7-.1-1.3-.1-2.7-.3a79 79 0 0 0-5-.2h-2.8l-.6-.1h-1.3l-2.2-.1-4.8-.3Zm43.7 2.7c1.7 0 3.3.3 5 .3l-5-.4v.1Zm12.2.8 5 .4 5.3.6 5.3.3 5.2.5c.8 0 1.6 0 2.4.2l1.2.1.7.1c.1 0 .5.2.7.1l-.3-.1-.6-.1-1.4-.2-2.5-.2-5-.6-5.2-.5c-2-.1-4-.4-6-.4a97.8 97.8 0 0 1-4.8-.2Z" fill="#333"/><path d="m601.8 153.3 6 .6c1.8.1 3.7.5 5.6.6l5.7.5 6.2.5 11.6 1.1c3.8.3 7.7.5 11.5 1l12 1.2 5.8.7c.4 0 .6 0 0-.1l-1.4-.2-3-.4-11.2-1.3-11.8-1.2c-4-.3-8-1-12-1.3l-6-.5-5.7-.5-2.8-.2H611l-1.3-.1H607l-.5-.1h-.8l-1.4-.1-3.1-.2h.6Zm-4.5-13.2c-.2 0 0 .2 0 .3h.4l3.1.2c2.3.1 4.5.5 6.7.7l6.9.6c4.5.6 9.1.8 13.6 1.3l14.2 1.3 13.5 1.5 7 .7 3.4.4 1.6.3c.1 0 .7.2.8.1.1-.1-.2-.2-.3-.2-2.2-.5-4.5-.7-6.8-1l-7-.8-13.5-1.7a222 222 0 0 0-7-.7l-7-.7-6.6-.5-6.7-.7-3-.3c-1.1 0-2.2 0-3.3-.2l-3.4-.3-3.3-.2h-3.3Z" fill="#333"/><path d="M650.2 145c0 .3.6.3.7.3h.4l.3.1c1.5.2 3 .3 4.4.6l4.7.8 8 1h.7l.6.1 1.5.2 2.8.3 5.5.8h.5l1.1.2 1.8.2 5.6 1a81.7 81.7 0 0 1 17.2 4.8l1.7.8c.2.1 1.4 1 1.3.5 0-.2-.6-.4-.7-.5l-.8-.4-1.7-1a66.1 66.1 0 0 0-14.3-4.4l-7.2-1.4-4.2-.5-2-.3h-1l-.4-.2h-.7l-4-.6a147.5 147.5 0 0 1-3.3-.3l-.5-.1h-.3l-1.2-.2h-.2l-4.2-.5-2-.2-.7-.1h-.5c0-.1-.3-.1 0-.1l-2.7-.4a22.2 22.2 0 0 0-2.5-.2c-.4 0-3.7-.6-3.8-.3Zm11.1 1.2Zm0 0Zm21.9 3.4c-.1 0 0 0 0 0Zm-14.5-1.8Zm-9.5-1.9c-.2 0 .1 0 0 0Zm-22.6 10.3c0 .2 3.4.5 3.8.6l4 .6c4.9.7 9.8 1 14.7 1.7a9 9 0 0 0 .3 0l.4.1 1 .2 2.3.3 2 .2 1 .1.6.1h.3c9 1.3 18 1.8 26.9 3 2.5.3 5 .4 7.6.8l1.5.2c.2 0 1.3.4 1.3.2s-3-.7-3.4-.7l-3.3-.6-3.4-.4c-7.6-1-15.1-1.8-22.7-2.6l-5.8-.7-5.5-.7-5.7-.6c-2-.1-4-.4-5.9-.6-2.1 0-4.2-.3-6.4-.7-.5 0-5.6-.8-5.6-.5Zm62.8 7.2Zm-5.3-.8Zm-26.6-3Zm0 0c-.1 0-.1 0 0 0Zm-27.5-2.9Z" fill="#333"/><path d="M694 162.8a161.1 161.1 0 0 0 3.7.8l1.8.3.7.1h.3l.7.2h.2l2.1.3a2 2 0 0 1 .3 0l.6.1.4.1h.3c2.1.3 4.5.8 6.6 1h.1l2.6.5c.4 0 2.5.6 2.6.4.1-.4-5-1.2-5.4-1.3-3.3-.4-7-1.2-10.4-1.7h-.7l-1-.2-1.8-.3c-.3 0-3.7-.7-3.8-.3Zm11.1 2Zm0 0Zm6.6 1Zm1.9.3Zm-1.8-.8Z" fill="#333"/><path d="M703.7 154.2c-.1.2 1.6.8 1.8 1a28.3 28.3 0 0 1 2.2 1.2l.7.5a26.9 26.9 0 0 1 4.2 3.3c.8.9 1.4 1.8 2 2.7.8 1 1.6 2 2 3.2 0 .3-.1-.1 0 .1v.2l.2.2c.3 0 .2-.3.2-.5a22 22 0 0 0-3.3-5.3 23.6 23.6 0 0 0-5.8-4.8c-.3-.2-4-2.3-4.2-1.8Zm12.9 12Zm0 0c0-.1 0-.1 0 0Zm-8.7-10.3Zm-287.2 30.3-2 .1h-1.1l-.5.1h-1a47.2 47.2 0 0 1-4.6.3h-.5c-.1 0 0 0 0 0h-.2s-.3 0 0 0h-.6l-.7.1-1.4.1h-.1l-1.8.1h-2.3c-.5 0-1.5 0-2 .4-.1.1 0 .5.2.6h.8l2.1-.1h1.8s.7-.1.4 0l5.4-.6h.3c-.3 0 .1 0 0 0h.1a12.6 12.6 0 0 1 .5 0h.4l3.5-.3 3.5-.4h3s.8.2.7-.1c-.2-.3-1.4-.2-1.8-.2h-2Zm-.1.4Zm-9.2 0Zm-.5.1Zm2.4.6Zm-.4 0Zm-.2 0Zm-9-.3Zm7-.3Zm.1 0Zm.2 0Zm.6 0Z" fill="#333"/><path d="m410.4 186.2-5.2.5-2.5.1h-1.3l-.8.1h-.4c-2.1.2-4.4.2-6.6.3-2.3 0-4.6.3-6.9.4l-7.1.2c-2.3 0-4.5.3-6.8.4l-6.6.4a30.9 30.9 0 0 0-5 .7c-.3 0-1.5.3-1 .8a47.3 47.3 0 0 1 3.1-.3l3.6-.3 6.8-.3 15.8-.7h1.7l.5-.1h.7c-.2 0 0 0 0 0h.6l1-.1 1.9-.1c-.1 0 .1 0 0 0l8-.5 7.5-.8h-.1a47.2 47.2 0 0 1 7.6.2c.2 0 .7 0 .4-.2l-1.1-.1-1.2-.2-2.3-.2a42 42 0 0 0-4.3-.2Zm1 .7Zm-43.3 1.6h-.2.2Zm-1.4 0Zm29.2-.3c-.1 0 .1 0 0 0Z" fill="#333"/><path d="m427.2 186-6.1.1c-2 .1-3.8 0-5.7.2a34 34 0 0 0-5.4.5h-.6c-.2.2-.1.3 0 .4l.8-.1a34.3 34.3 0 0 1 3.5-.3 52 52 0 0 1 5-.2h5.6c1.7-.2 3.5-.2 5.3-.2h3.6c.5 0 .5-.3 0-.3-2-.2-4-.2-6-.2Zm-13.5.8Zm1.4-.5Zm0 0Zm127.2.4c-.2 0-.2.1-.2.3h.5l1.4.1 3 .3h2.6l2.5.1c3.5 0 7 .3 10.6.4 1.9 0 3.7.1 5.5.3l5.2.4 10.6.6 10.7.5 5.3.2h1.4c.1 0 .5.2.6.1.3-.1 0-.2-.1-.3l-1.3-.1-1.4-.1c-1.7-.2-3.5-.2-5.3-.5l-5.6-.5-11-.7-10.9-.8H561l-5.3-.3h-2.5.1-11Zm6 .7c-.1 0-.1 0 0 0Zm89.1 5.2c-.3 0-.3.4-.1.5.1.2.6.1.8.2l2.3.1 4.2.3c1.5 0 3 .2 4.3.3h4.3l4.3.4c.2 0 .7.2.9.1.4-.1 0-.2-.2-.3-.7-.2-1.5-.2-2.2-.3-3-.4-6-.4-8.9-.7l-4.6-.3c-1.7-.1-3.4-.4-5.1-.3Z" fill="#333"/><path d="M614.8 190.5c-.3 0-.3.4-.2.5.2.2.7.1 1 .1l2 .2c1.3 0 2.6.3 4 .4l8 .8 4 .4c1.4 0 2.8 0 4.1.2l4.2.4h4.2c2.7.2 5.4.3 8.1.7.2 0 .8.2 1 0 .1-.1-.1-.2-.3-.2l-2-.3-4-.5c-2.8-.3-5.6-.3-8.3-.6l-4.2-.5c-1.3 0-2.7 0-4-.2l-9-.9-4.5-.4h-4.2ZM369.2 147c-.5 0-.5 2-.5 2.3l-.2 2.7-.4 5.7v.6l-.4 3.1c-.2 1.1-.2 2.2-.2 3.2-.2 2-.2 4-.2 6l-.1 11.7-.2 6.2v.7c.2.2.2 0 .2-.2.1-.5 0-1 0-1.6l.2-3.3.2-12.2.4-6.6.2-3.5.2-1.6.1-.9v-.3l.1-.3v-.7a20.3 20.3 0 0 0 .2-1.3v-1.5l.3-3 .1-3c0-.3.5-2.2 0-2.2Zm-1 15.6s0-.2 0 0Zm6.5-10.6c-.4.2-.2 1.2-.2 1.5v2l-.1 3.7c0 2.5-.3 4.9-.2 7.3l-.1 7.4-.3 8-.1 3.7a336.6 336.6 0 0 1-.1 2.6c0 .2-.2.8 0 1 .2.5.3-.7.3-.9l.1-2 .3-3.7.3-7.6.2-7.6.2-8.2.2-4v-1.8c0-.3.2-1.8-.5-1.4Zm-2.2-5c-.2.2-.2 1-.2 1.3l-.3 1.9-.4 3.8-.6 8c-.1 1.2-.3 2.4-.3 3.7v23.5c.4.5.4-.8.4-1v-2l.1-7.9.1-4v-3.8c.1-2.6 0-5.1.2-7.7l.3-4 .4-4.2v-1l.2-1.2.2-2.2v-.7l.1-.2v-.6l.2-1c0-.1.2-.4.1-.6 0-.2-.3-.3-.5-.1Zm-1.6 15.4Zm0 0Zm.6.9Zm0 0c0-.1 0 0 0 0Zm1.1-13.1Z" fill="#333"/><path d="M372.7 147.1c-.3.1 0 1.2 0 1.4l.1 2 .3 2c0 .3-.1 1.7.4 1.5.3-.2 0-1.3 0-1.6a64.1 64.1 0 0 0-.3-4c0-.2 0-1.5-.5-1.3Z" fill="#333"/><path d="M370.3 146.8h-1c-.3.1-.5.4-.2.6h.9a27.3 27.3 0 0 1 2.3-.1c.2 0 .8-.1.4-.4-.2-.2-.8 0-1 0l-1.4-.1Zm-6.5 53.1c-.2.1-.3.6-.3.9l-.4 1.1-.5 2.2c-.2.8 0 1.5 0 2.3l.2 2.6c.2 3.3.5 6.6.6 10 .2 6.7 0 13.4-.6 20l-.4 5.2-.2 2.5-.1 1.2v.6l-.2.8c.2.4.3 0 .3-.3l.2-1.1c0-1 .1-1.8.3-2.7l.6-5.1a127.5 127.5 0 0 0 .3-31.3c0-1-.2-1.8-.3-2.8-.2-.8-.1-1.5 0-2.4.2-.8.3-1.6.6-2.3l.3-1c0-.2 0-.7-.4-.4Zm-1 3.6-.1.1Zm5.6-3.2c-.3.1 0 .6 0 .9l.1 1 .5 2.5.4 2 .1 1c0 .2.1.8.4.4V207l-.3-1.1c0-.7-.1-1.4-.3-2 0-.8-.2-1.6-.3-2.3 0-.2-.1-1.6-.6-1.3Z" fill="#333"/><path d="M364.6 199.8c-.2 0-1.3.1-.8.5.3.2 1 0 1.3 0l1.8.1c.4 0 1.2 0 1.4.2.2.2.5 1.3.5.5 0-.5-.1-1-.6-1-.6-.3-1.3-.2-1.9-.3h-1.7Zm-.2.5Zm0-.5c.1 0 .1 0 0 0Zm.1 0Zm5.4 6c-.2.1 0 .8 0 1 0 .2-.2 1.5 0 1.2.3-.1.2-1.1.2-1.4 0-.1.1-1-.2-.8Z" fill="#333"/><path d="M370 206.1c-.2.4-.2.8-.2 1.1 0 .2-.2 1.3.2 1 .2-.1.2-1.1.2-1.4v-.5s-.2-.4-.3-.2Zm-7.2 34.5-1.5 12.4-.4 6-.6 6-.2 2.9v1.3c-.1.4-.2 1 0 1.3.1.1.3.3.5.1.2-.1 0-.2 0-.3-.1-.5 0-1.1 0-1.6l.3-3 .6-6 .4-6.1c0-1.2.3-2.5.4-3.7l.2-3.1a100.9 100.9 0 0 0 .4-5.2c0-.2.2-.8.1-1 0 0-.1-.2-.2 0Zm-2.2 29.7Zm8.8-33.3-.1 3.4-.1 15.2.2 7.2v1.7c0 .3 0 1.4.5 1 .3-.1.1-1 .1-1.4v-1.9l-.3-8V237s-.2-.2-.2 0Z" fill="#333"/><path d="M369.5 265.3a65.5 65.5 0 0 0-4.5 4.3c-.1.2-1 .8-.5 1a56.5 56.5 0 0 0 2.7-2.6l1.6-1.5.7-.7c.1-.1.4-.2.3-.4 0-.1-.2-.3-.3-.1Z" fill="#333"/><path d="M360.3 270.1c-.5.3 0 .7.3.7h1.4l1.6-.1c.3 0 1.2.1 1.3-.1.2-.4-.6-.3-.8-.4h-2.8c-.3-.1-.7-.2-1 0Zm2.7-32.5a30 30 0 0 0-4.8 2 30.2 30.2 0 0 0-14 14.4 53 53 0 0 0-2.8 6.5c-.4 1.2-.9 2.5-1.2 3.8 0 .3-.3 1 .2 1 .3 0 .3-.4.4-.6l.1-.5.1-.3.8-2.6a37 37 0 0 1 9.7-16.4 34.3 34.3 0 0 1 9.1-6l1.7-.7c.2 0 .6-.1.8-.3.1-.1.1-.4-.1-.3Zm-21.2 23.8Zm4-9.3Zm.6-.8Zm4.4-6.6Zm7.4-5Zm0 0Zm1.1-.1Zm67.6 17.1a47.4 47.4 0 0 0-21.6 4.5l-.3.1-.3.2h-.1c.2 0-.2 0 0 0 0 0-.2 0 0 0l-1 .5-.5.1-.3.2-5 2c-1.9.5-3.7.8-5.7.8-.2 0-.7 0-.6.2h1.4c1 0 1.9 0 2.9-.2a20 20 0 0 0 5.3-1.5l6-2.4a56.1 56.1 0 0 1 14.4-4c-.2 0 0 0 0 0l3-.2h2.4c0-.1.2-.3 0-.3Zm-5.6.6Zm-.5 0Zm-15.6 4h-.2.1Zm-10.3 3.6Zm9.5-3.3Zm0 0h.1Zm2.7-.4Z" fill="#333"/><path d="M380.4 264.9h-9.6l-1 .1c-.1.2 0 .4.1.5h6.8l9.8-.1h6.2c.2 0 .8 0 .6-.3-.1-.2-1-.1-1.2-.1H391l-10.5-.1Zm-22 .1h-16.9c-.3 0-1.3-.1-1.2.4.1.5 1.3.3 1.6.3h17.5c.3 0 2 .1 1.3-.6-.1-.2-.8-.1-1-.1h-1.3Zm113.8-28c-6.7.2-13.3 1.2-19.8 2.8l-9.7 2.5c-3.2.9-6.5 1.4-9.7 2.2-3.3.9-6.8 1.5-10.2 2h-1.2c-.2.1-.8 0-.9.2-.2.3.5.1.6.1h1l4.5-.4h.2l.4-.1 1-.1 1.6-.4 3.3-.6 7-1.6c2.4-.5 4.7-1.2 7-1.8l7-1.7 3.8-.9 2-.3 1-.2a18.2 18.2 0 0 1 .7-.1 103 103 0 0 1 16.8-1.2h.8c.4-.2-.7-.2-.8-.2-2.2 0-4.3-.2-6.4-.1Zm-41.6 8Zm-2.6.6Zm2.2.2Zm-4.2.2Z" fill="#333"/><path d="M392.7 243.4c-.4.6 4.3 2 4.8 2 1.9.5 3.7.8 5.6 1.1 2 .3 4 .6 6 .7a58.4 58.4 0 0 0 12.9-.6l2-.2a96 96 0 0 1 2.7-.3c.1 0 1 0 1-.2h-1l-2.6.2-5.1.3-5.3.1-5.4-.1h-.3a68.1 68.1 0 0 0-5.8-.7h-.2a45.4 45.4 0 0 1-7.4-1.7c-.3-.1-1.8-.9-2-.6Zm1.1.3Zm14.5 2.7Z" fill="#333"/><path d="M372.3 235.9c-.8 0-1.6.1-2.3.3-.2 0-.6.2-.7.4-.2.4.3.3.5.2 1.3-.4 2.8-.7 4-.5h.4a44.2 44.2 0 0 1 8.3 2.6l.1.1 3.7 1.6 4.4 2.2c1.6.7 3.2 1.2 4.8 1.7l1.2.4.5.2c.2 0 .6.3.7.2.5 0-.3-.3-.4-.4l-1.3-.5c-1.5-.5-3-1.1-4.4-1.8l-2.5-1.2-1.2-.6-.7-.3-.3-.1-3-1.4c0 .1-.2 0-.2 0l-.4-.2-.8-.4-1.4-.5c-1-.3-2-.8-3-1-1-.4-2-.6-3.1-.8-1-.2-2-.3-2.9-.2Zm11.4 3.6Zm-.5-.2Zm-9.4-3Zm-4.5 4.4c0 .2.4.2.4 0 0-.3-.4-.3-.4 0Z" fill="#333"/><path d="M369.4 236.4c-.3.3 0 1.4 0 1.8v2.5c.3.1.2-.4.2-.5v-.8l.1-2c0-.3.2-.7.1-.9 0-.2-.2-.3-.4-.1Zm.3 1.4Zm-.3 1.2Zm3-33.4c-.3 7.3-.5 14.6-.5 22 0 2 .1 4 .3 5.9v1.9c.1.2 0 .6.3.8.2.2.3 0 .4-.3v-1l-.1-1-.2-1.3c-.2-3.6-.2-7.1-.2-10.7l.1-10.9.1-3v-1.7c0-.2.2-.6 0-.8 0 0-.2-.1-.2 0Zm.3 27s0 .2 0 0Zm0 0Zm103 24h-23.9l-24 .1h-4.2c-.1 0-.4 0-.4.2 0 .3.5.2.6.2h53.9l3-.1h2.8c.2 0 .4-.1.2-.3h-2.2l-3-.1h-2.8Zm-115.3-51.1-10 .7-4.8.3a177 177 0 0 1-3.6.2h-1.4l-6 .5-3.2.3-1.3.1c-.4 0-1 0-1.4.3-.3.3 0 .7.4.7l1-.2a77 77 0 0 0 6.1-.7l1.7-.1h.8l.5-.1h.2a196.6 196.6 0 0 0 10.3-.7l10.9-.9h1.2c.2 0 1.1.2 1.2-.1.2-.5-.8-.3-1-.3h-1.6Zm-11.6 1.3c-.1 0 0 0 0 0Zm.1 0c-.1 0 0 0 0 0Zm.6 0Zm.3 0Zm40.8-18.8-1.4.2c-3.4 0-7 0-10.3.4-3 .2-6 0-8.9.3-1.8 0-3.6.3-5.4.4-1.6 0-3.3.1-4.9.3l-5.1.4c-1.8 0-3.5.3-5.2.4-.3 0-1.1 0-1.1.3 0 .4.5.3.7.3l2.8-.2c1.8-.2 3.8-.2 5.5-.3h.2l3.4-.2h.5l2.8-.2 3.2-.3 6-.5c2-.1 3.9-.1 5.8-.3l5.9-.4h2.6l.8-.1 1.5-.1.7-.1-.1-.2Zm-27.4 1.4Zm0 0h-.1Zm-2.3.1Zm-6 .5Zm6.8.3Zm-.2 0Z" fill="#333"/><path d="M355.8 190h-2.3l-1 .1-2.8.2-3.4.1-6.7.5h-.4c.2 0-.1 0 0 0h-.7l-1.5.1h-1.2l-1.4.2h-1.6l-2.8.3-3 .4c-.4 0-.9.1-1.1.4-.2.2-.3.7 0 .5.3 0 .2-.1.5-.2h.7l1.3-.2 3.1-.2 3-.3 1.6-.1h.8l.6-.1h.6l.6-.1h1l3.3-.3a6.6 6.6 0 0 0 .8 0l1-.1 2.3-.2 3.8-.3 3.8-.4h2c.2-.1.5-.1.3-.3-.2-.2-1 0-1.2 0Zm-.3.2Zm-4.8 0Zm0 0Zm-11.2.7h-.1Zm-12.7 1.7Zm0 0Zm17-1.3h-.1Zm-8.2-.2Zm12.3-.2Zm-8.8 0Zm0 0h.1Zm.2 0Zm-41.3 2.9-1.3.2h-.1c-2.6.3-5.6.3-8.3.7l-9.2 1.3-4.6.7-1.9.3c-.4 0-1.4 0-1.4.6.1.6 1.2.2 1.5.2l2.3-.4 4.7-.7 5-.8 2.7-.5a458.4 458.4 0 0 0 1.8-.2h.6l.3-.1h.6l.2-.1h.8l1.3-.2 1.4-.2 2.5-.2 1-.2c.2 0 .4 0 .4-.2 0-.1-.1-.2-.3-.2Zm-5 1Zm.3 0Zm4.1 16.3a45 45 0 0 0-3.6.3h-.3c.2 0 0 0 0 0h-.1l-1.7.1-1.2.1-.6.1h-.4l-4.4.5-4.7.6a3.2 3.2 0 0 0-.4 0h-.3l-1 .2-1.8.1h-.9l-1.3.2c-.4 0-2.1-.1-1.9.6.2.5 1.6.2 2 .1l1.4-.1h.6l.5-.1c5.7-.6 11.4-1.5 17.1-2 0 0 .1 0 0 0l3.7-.3h1c.2 0 .6 0 .3-.3 0-.2-.7 0-.9 0h-1Zm-3.7.3Zm0 0Zm0 0Zm-.3 0c-.1 0 0 0 0 0Zm0 0Zm1 .3Zm-.1 0Zm-17.5 1.4Zm6.8 0c-.2 0 .2 0 0 0Zm5.6-1.3Zm0 0c.1 0 .1 0 0 0Zm5.2 0Zm-.8-.4s.1 0 0 0Zm.6 0Z" fill="#333"/><path d="m274.3 196.8-3.1.5c-1 0-2 .6-2.4 1.6l-.4 1.6v.7c.2.2.3-.2.3-.3.3-.9.5-2 1.3-2.5s2-.6 2.8-.9h.4l.1-.1c.5-.2 1-.4 1.5-.4h2.3c0-.3-.4-.2-.5-.2h-2.3Zm.4.2Zm-1.7.5Zm0 0s.1 0 0 0Zm-2.5 15c-.4.3.4 1 .7 1.2.4.4 1 .3 1.7.3l1.8-.2 1.7-.2h1.7c.2 0 1.1 0 .6-.4H276l-2.9.1c-.4 0-1 0-1.4-.2-.3-.1-.9-.9-1.1-.6Z" fill="#333"/><path d="M270.4 212.5c-.4.2.2.8.3 1 .4.5.9.7 1.5.7.4 0 1.1 0 1.6-.2.2 0 .3-.2 0-.3h-.8c-.6.1-1.2.2-1.6-.3-.2-.2-.7-1-1-1Z" fill="#333"/><path d="m270.8 197.5-.5.3c-1.7 1-2.1 3.6-2.2 5.4-.1 2.2.1 4.7.8 6.9.4 1 .7 2 1.3 2.8l.9 1 .6.2c.2 0 .4-.2.3-.4 0-.5-.6-.8-.9-1l-.8-1.4c-.5-1-1-2.1-1.2-3.2a18 18 0 0 1 0-8c-.1.2 0 0 0 0 0-.2 0-.4.2-.5 0-.3.2-.6.3-.8l1-.9s.3 0 .3-.2c0-.1 0-.2-.1-.1Zm159.4 5.1-7.5.3h-7.6l-.5.1h-1.4l-9 .4-9.6.4c-3.5.1-7-.3-10.6 0l-10.6.4a38 38 0 0 0-3.8.4h-.5v.6c.2.5.2.4.7.4l1.4-.2h1.2l7.4-.4 7.4-.5c5-.4 10-.5 15.1-.7l7.6-.2h7.3c5 0 9.9-.5 14.8-.6h4.3l2 .2c.1 0 .7.2.8 0 .1-.2-.5-.2-.6-.2a63 63 0 0 0-8.3-.4Zm-27.1.8Zm0 0h-.1Zm-30.5.8Zm31.8-.8Zm-41.5 1.8h-4.7c.3 0 0 0 0 0h-.1s-.1 0 0 0l-6.7.4c-1 .2-2.2.3-3.3.3l-2.9.3h-1.4l-1.5.1-2.8.4c-1 .1-2 0-2.9.3-.1 0-.4 0-.3.2h2.1l6-.2h2.3l1-.1h.9l.5-.1c1.3 0 2.6-.3 3.9-.4 1.3 0 2.7 0 4-.2l3.7-.4h2c.1 0 .4 0 .5-.3 0-.2-.2-.3-.3-.3Zm-7.3 1Zm-8.4.7Zm11-1.6Z" fill="#333"/><path d="M445.2 202a262.8 262.8 0 0 0-9 .2H433c-4 0-8.2.4-12.3.6a130.4 130.4 0 0 1-6.5.3l-.4.1c-.4 0-3 .2-3 .5l10.2-.2c3.6 0 7-.3 10.6-.3 3.3 0 6.5 0 9.8-.2l5.1-.1h5.1l10.4-.2h10.5c1.6-.1 3.3-.3 4.9-.2.8 0 1.7 0 2.5-.2.3 0 .6 0 .2-.2l-1.3.2-2.7-.1h-12.9c-1.7 0-3.4-.2-5.2-.1h-12.8Zm4.5-16.7c-3.5 0-7 .2-10.4.3-3.6 0-7.1.3-10.7.5-3.4.1-6.9.2-10.4.6a133.8 133.8 0 0 1-6.4.5c-.2 0-.7.2-.4.4l1.2-.1h1.4c3.5-.3 7-.4 10.5-.5 3.5 0 7-.3 10.5-.4l5.3-.2 5-.1c3.7-.3 7.2-.2 10.8-.1l10.6.1 10-.2h2.5c-3.8-.4-7.7-.3-11.5-.3l-11.5-.3-6.5-.2Z" fill="#333"/><path d="M433.1 185.8c-4.5 0-9 0-13.5.4s-9 .6-13.6.7c-4.5.1-9 .4-13.6.8l-6.5.5-6.6.4-6.8.3c-.4 0-2.8 0-2.8.3 0 .4 2.8.2 3.2.1l13.1-.6 6.9-.4h3.3l3.5-.3c2.2-.2 4.4 0 6.6-.2l6.7-.3c1 0 2.2 0 3.3-.2l3.4-.3 6.8-.5c2.3-.2 4.6-.3 7-.3h3.5c.2 0 1.2 0 1.1-.2 0-.3-1.4-.1-1.6-.1H433Zm-105.3 20.8c-.2 0 .5 1.4.5 1.6.2.4 0 .5-.4.7l-1.9.1c-.6 0-1-.1-1.6.1l-1.7.3h-3c-1 .2-2 .5-3 .4-.6 0-1-.3-1.6-.4l-1.8.2c-.3 0-1.2 0-1.3.3-.2.4.4.3.6.3l1.8-.2c1 0 1.7.3 2.7.3l3.2-.2 3-.1 1.5-.4.5-.1h.5a4 4 0 0 0 2 0l.8-.5c.2-.2.1-.5.1-.6 0-.2-.7-2-.9-1.8Zm-11.7 3.1Zm1.3.1c-.1 0 0 0 0 0Z" fill="#333"/><path d="M310.7 208.5c-.2.1.6 1 .7 1.2.3.5 0 .6-.5.7h-2c-.6 0-1.1.2-1.7.3l-1.6.3c-.6 0-1.2-.2-1.9-.1l-1.8.3c-.6.1-1.6.2-2.1-.1-.2-.1-1-1.3-1.2-.9l.3.7.5.7c.5.3 1.4.3 2 .2l2.1-.3h2c1 0 1.8-.3 2.7-.5.8-.2 1.7.2 2.5.2.5 0 1.8-.3 1.5-1-.1-.4-.5-.6-.8-.9 0-.1-.6-1-.7-.8Zm1 1.6c-.1 0-.1 0 0 0Zm-6 .9Zm0 0c.2 0 0 0 0 0Zm-.1 0c-.1 0 0 0 0 0Zm0 0Zm-4 .3Zm23-20.1h-1.2c-.3 0-.7 0-1 .2l-.3.2h-.2l-.9-.1c-.7 0-1.4 0-2.1.2-.5 0-1 .1-1.4.5-.5-.5-2-.3-2.5-.2a3 3 0 0 0-1.2.4c-.4.2-.5.6-.6 1 0 .2-.4 1-.2 1.2.3.2.6-.8.6-1 .2-.3.3-.7.6-.9.5-.2 1-.2 1.5-.2h1.3c.1.2 0 .8.5.6.3-.2.4-.6.8-.7a7.5 7.5 0 0 1 2.6-.4h.7c.1.1 0 .4.3.5.3 0 .5-.5.8-.6.4-.2 1-.1 1.5-.2.4 0 1 0 1.4.2.4.1.2.4 0 .7a3 3 0 0 0-.3.8c0 .2-.2.6-.1.8 0 .2.2.3.3.2l.1-.3.1-.4c0-.4.2-.6.5-1 .1-.2.4-.5.3-.9-.2-.6-1.4-.6-2-.6Zm1.3.9Z" fill="#333"/><path d="m313.7 192.5-.8.1c-.7 0-1.5 0-2.3.2-.3 0-.7 0-1 .3-.2.3 0 .4.3.4.8 0 1.6-.3 2.4-.4.4 0 .9 0 1.3-.2l.3-.1c0-.1 0-.3-.2-.3Z" fill="#333"/><path d="m309 192.3-2.5.3c-1 .1-1.4.6-1.6 1.5 0 .2-.3 1 .1.8.3 0 .4-.8.6-1 .4-.8 1.6-.8 2.2-.8 0 0 .2 0 0 0h1.6c-.3.6-.7 1.2-.9 2 0 .1-.3.8 0 .8.4 0 .4-.7.5-1 .3-.6 1-1 1.2-1.8.3-.8-.7-.8-1.2-.8Zm-3.5 1.6Zm2.4-.8Z" fill="#333"/><path d="M303.3 192.8c-.4 0-.8 0-1.2.2l-.4.3-.1.1-.3-.1c-.7-.3-2 0-2.7.1l-.9.7c-.2.3-.2.6-.3 1 0 .2-.3.8-.1 1 .2.1.4-.7.5-.8.2-.5.5-1 1-1.2l1.2-.2c.2 0 1-.3 1.2 0v.4h.5c.4-.3.5-.6 1-.8.4-.2 2-.5 2.2 0 0 .3-.3 1 .1 1s.4-.5.4-.8c0-1-1.4-1-2.1-1Zm-.5.7Zm-1.7.3Zm.2 0c0 .1 0 .1 0 0Zm.5.4Zm-3.7.4Zm11.2 3.4c-.7.1-1.2.6-1.5 1.2-.2.3-.3.6-.6.8-.3.3-.6.5-.8.9 0 .2-.2.6 0 .8l.8.3.7.3c1 .5 2.3 2.1 3.6 1.6.5-.2 1-.7 1.3-1 .6-.5 1-1 1.7-1.3 1.3-.9-.6-1.7-1.3-2l-2-1c-.5-.2-1.2-.6-1.9-.5Zm.2.5Zm.2 0c.3 0 5 1.7 4.7 2.3 0 .2-.6.5-.8.6l-.6.7c-.5.5-1 1-1.6 1.3-1.1.6-2.4-.8-3.3-1.2l-1.3-.5c-.4-.3 0-.8.3-1 .5-.5.9-.8 1.3-1.4.3-.5.7-.9 1.3-.8Zm3.8 1.2Zm1 1Zm-.6 1.2Zm-6 .3s.1 0 0 0Zm5.2-2.4Zm0 0Zm-.1 0Z" fill="#333"/><path d="m304.5 198.5.4 1.4c.2.5.6.8.9 1.1.1.2.8.7.8.9 0 .4-.9.8-1.1 1-.2 0-.5.2-.6.4-.2.1-.3.5-.5.5-.2.1-.6-.1-.8-.3l-1.2-1-.5-.5-.2-.2c0-.1.1.1 0 0l-.1-.2-.2-.4-.4-.8c0-.2-.2-.6-.4-.6s0 .6 0 .7c.2 1.6 1.6 2.3 2.7 3.2.6.5 1.1.6 1.7 0l1.6-1c.6-.4.8-1 .2-1.5-.5-.2-1-.6-1.4-.9a2 2 0 0 1-.5-.7c0-.1-.3-1.2-.4-1.1Zm-2.7 3.3Zm4.7.3Zm-1.2 1.4Zm-1.8 0c0-.1 0 0 0 0Zm-1.2-1.1Zm7.1.7c-.3 0 .5 3.4.6 3.8l.6 1.6c.3.4.6 1 1 1.3 0 .2.2.7.4.6.2-.1 0-.3 0-.4l-.2-.3c-.6-1-1-2.1-1.4-3.3 0-.3-.7-3.3-1-3.3Zm2.3 6.4Zm-1.8-5.2Zm3.8-2.6c-.3 0 0 .6 0 .7v1.2a16.1 16.1 0 0 0 .9 4.4c.2.6.5 1.5 1 2 .3.4.5.2.3-.2l-.5-1c-.3-.7-.4-1.5-.6-2.2l-.6-2.2-.1-1v-1c0-.1 0-.1 0 0 0-.2 0-.8-.4-.7Zm0 .7Zm7.4-5.4c-.4 0-.5.5-1 .6a2 2 0 0 1-1 .3c-.5 0-1 0-1.5-.2-.3-.2-.7-.5-1.1-.3-.3.1-.5.4-.7.6l-1.2.4c-.5 0-.8 0-1.2-.2-.4-.2-.7-.3-1 0 0 0-.1 0 0 0h-.2l-.8.4c-.2 0-1-.3-.6 0 .4.4 1 .2 1.5 0h1.1c.5.2 1 0 1.6 0-.2 0 0 0 0 0h.6l.7-.5c.5-.3 1-.2 1.6-.1a8 8 0 0 0 1.8 0c.3 0 .6 0 .9-.2.2-.2.3-.3.6-.3l1.9.2h.9s.6-.2.5-.4l-.7.3h-.9c-.6-.2-1.2-.6-1.8-.6Zm1.7.5Zm-10.5.7Zm0 0Zm7.3-.2c-.1 0 0 0 0 0Z" fill="#333"/><path d="M325.6 193c-.3.7-.7 1.6-.7 2.4 0 .8.5 2-.6 2h-1.5c-.2 0-.6-.2-.7 0-.4.2.6.2.7.2h.9c0 .1 0 0 0 0l1 .1c1.2 0 .8-1.8 1-2.7v-1.2c0-.2.2-.5.1-.7 0 0 0-.4-.2-.2Zm.6 9.5c-.5 0-1 .8-.6 1.2.2.3.4.2.7.2l.8.2c.7 0 1-.8.4-1.3l-.6-.1c-.2-.1-.4-.3-.7-.2Zm0 .5.5.1.7.1c.4.4-.4.7-.6.6-.2 0-.7 0-.9-.2-.1-.2.1-.4.3-.6Zm-.2.7Z" fill="#333"/><path d="M325.6 194c-.4 0 .6.5.6.5.5.3.9.6 1.1 1 .5.8.8 1.8.8 2.8.1 1 0 1.8-.3 2.8-.2.5-.4 1-.4 1.5v.5c.3 0 .2-.5.2-.5l.8-2.5a7 7 0 0 0 0-2.9c0-.8-.4-1.7-1-2.3-.3-.3-.7-.6-1.1-.7-.2 0-.5-.3-.7-.2Zm2.2 2.6Z" fill="#333"/><path d="M325.1 196.6c-.2.3.7 1 .9 1.2.3.6.4 1.2.5 1.8v2l-.2.9c0 .3.1.2.3 0 .5-1 .4-2.4.1-3.6 0-.6-.1-1.2-.5-1.7-.1-.2-.7-1.1-1-.6Zm1.5 4Zm-.9 3.1c-.4.4-.4 1.4-.6 2l-1 1.7c0 .2-.2.5 0 .7.3.2.6 0 1 0 .2-.2.2-.1.5 0h.9c.3-.2.2-.3.5 0 .3.2.6.3.7-.1a2 2 0 0 0-.1-1.1l-.2-1.4-.1-1.1c0-.4-.3-.4-.3 0 0 .8.2 1.5.3 2.2 0 .2.2 1 .1 1.2 0 .1 0 0-.1 0-.3 0-.4-.3-.8-.2 0 .1-.1.2-.3.2h-.4l-.7-.2-.6.2c-.3 0 0-.4.2-.6l1-2.1c0-.3.2-.5.3-.7l.2-.4c0-.2-.2-.6-.5-.3Zm-.2 4Zm1.9.2Z" fill="#333"/><path d="M327.2 204.1c-.2 0 0 .8 0 1l.4 1 .5 1.2.3 1 .1.5c.3 0 .2-.2.2-.3 0-.9-.3-1.7-.6-2.5 0-.2-.6-1.9-.9-1.9Zm-2.1-7.1c-.3.2.5 2 .6 2.3l.4 1.5c0 .2.2 1.4.5 1.2.2-.1-.2-1.2-.3-1.4l-.3-1.4c0-.3-.4-2.4-.9-2.2Z" fill="#333"/><path d="M325.3 199.7c-.1 0 0 0 0 0Zm-.6 0c-.4.2-.6.5-1 .6l-1.1.1h-1.1l-1.3.4c-.8.2-1.7.8-2.5.4-.4-.1-.9-.2-1.3 0a7 7 0 0 1-1.3.2l-1.3.2s-.3 0-.3.2.4.1.5.1c.5.1.8.2 1.3.1.5 0 1-.4 1.4-.4l1.4.2 1.3-.3 1.3-.3 1.2-.1c.6 0 1-.2 1.6-.4l.6-.1.6-.4c.2-.1.5-.2.7-.1.2 0 .4.3.6 0 .2-.5-1.1-.4-1.3-.3Zm-16.4-1a4 4 0 0 1-1.5.3l-1.2-.2c-.8 0-1.7 0-2.5.3l-.9.4c-.4.2-.7.1-1.1 0h-.4l-.6-.1-1-.2c-.1 0 0 0 0 0-.1 0 0 0 0 0-.8 0-1.8 0-2.5.5-.5.2-1 .5-1.4.9-.1 0-.7.8-.3.8l.2-.3.4-.3 1.4-.7a6 6 0 0 1 3-.6c-.2 0 0 0 0 0s.3.3.2.1c.4.6.8.5 1.4.4.7 0 1-.5 1.6-.7h.1c.3-.2 1-.5 1.3-.3 0 0 0 .2.2.3.3.1.6 0 .8 0l1.6-.1 1-.3.3-.1v-.1Zm-.8.2Zm-8.5.3Z" fill="#333"/><path d="M297.3 195.3c-.6 1-1.6.9-2.6 1.2-.7.3-1.4.8-1.3 1.6 0 .7.4 1.4.7 2 .3.7.5 1.5 1.4 1.7v-.4c-.1 0-.2 0 0 0-.4-.3-.8-.9-1-1.3a5 5 0 0 1-.7-1.3c-.3-1.2.5-1.8 1.5-2h.1c.5 0 1 0 1.4-.2.3-.2.7-.4.8-.7 0-.1.2-.5.1-.6 0-.1-.3-.2-.4 0Zm-.7.7Zm-1.3.9Zm-1.3.6Zm3 4c-.2.1-.2.2-.3.4.1 0 .4 0 .5-.2 0 0 0-.2-.2-.2Z" fill="#333"/><path d="M296.7 202c-.4.9-.8 1.6-1 2.5v.1l-.1.5-.1 1-.5-.2-.7-.2c-.4.1-.8.4-.7.8 0 .5.6.7 1 .7s1-.1 1.2-.5v-.9c0-.6.2-1 .4-1.6.1-.2.9-2.3.5-2.4v.2Zm.1.3Zm-1 3Zm-1 1.5c-.2 0-1-.1-.7-.5.3-.3.9 0 1.2 0 .1 0 .4 0 .2.3 0 .3-.5.2-.7.2Zm.7 0Z" fill="#333"/><path d="M295.4 202c-.3.6-.4 1.4-.6 2l-.2.8-.3 1c0 .3.3-.2.3-.3l.3-.7.4-1.7.2-1.2h-.1Zm-1.6 4.7c-.6.5-.8 1.3-1.1 2-.1.2-.7.9-.5 1.2.2.3.6-.2.8-.3h.6l.5-.1.1.1c.2.1.4.2.6 0 .1.1.3.5.5.3s0-.6 0-.8c0-.6 0-1.3.2-1.9 0 0 .2-.4 0-.4s-.3.6-.3.7l-.1 2-.4-.2-.2.1-.2-.1c-.2-.1-.2 0-.4 0l-.6-.2c-.3 0-.6.3-.8.4l.5-.8.2-.3.7-1.1c.1-.2.4-.3.3-.5 0-.2-.3-.3-.4-.1Zm.3 2.8Zm-.2 0s.1 0 0 0Zm6.7-7.2c-.3 0-.6 0-.9.2-.2.2-.3.3-.6.3l-.6-.3c-.3 0-.6 0-.9.2-.4.2-.8.2-1 .5-.2.5-.1 1.2 0 1.7.2 1.3.8 2.5 1.2 3.7l.8 1.7c0 .2.4.9.6.9.2 0 .1-.1.1-.2l-.1-.3c-.5-.9-.7-1.9-1-2.8l-1-3c0-.3-.2-1.1-.1-1.4l.2-.1.6-.3c.5-.3.9 0 1.4 0 .3 0 .5-.3.7-.4h.6c.4 0 .6.4 1 .4.3 0 .9 0 .9-.5s-.6 0-.8 0c-.4 0-.7-.4-1.1-.3Zm0 .4Zm1.6.3Z" fill="#333"/><path d="M295.3 200.7c-.4.1 0 1 0 1.2l-.3.9c0 .2.2.4.4.1v-.6l.1-.8c0-.2.3-1-.2-.8Z" fill="#333"/><path d="M295.4 200.7c-.3.2-.4 1.2-.4 1.5l-.1 1.3-.2 1.2c0 .2-.6 1.1-.4 1.2.2.1.7-1.4.8-1.6l.3-1.7c0-.5 0-1.4.2-1.8h-.2Zm1.7.5-.3.6-.2.8-.3.8c0 .1-.3.7-.2.9 0 .2.1-.1.2-.2l.3-.9c.1-.4.2-.8.5-1.2l.2-.6s0-.4-.2-.2Zm8.3-8.2c-.2.1-.3.8-.4 1l-.3.7a10 10 0 0 0-.5 1.7v1.7s.3 1 .4.7v-1.2c0-.5 0-1 .2-1.5l.4-1.7c0-.2.7-1.5.2-1.3Zm-3.4.4c-.5 0-1 .9-1.2 1.2l-.6 2c-.1.7-.3 1.5-.2 2.2l.4.9c0 .2.2.4.3 0l-.2-.7v-1c0-.6.3-1.3.5-1.9l.5-1.7c.1-.1 1.1-1 .4-1Zm-.6 1.3Zm-.9 4.3Zm-.5-.3Zm9-4.7c-.3.7-.8 1.6-.9 2.5 0 .5.2.9.4 1.4 0 .2 0 .7.3.3.2-.2 0-1 0-1.3v-1.3l.5-1.1c0-.1.3-.4.1-.6h-.3Zm4.7-1.2c-.4 0-.8 1-1 1.3l-.4 1.6c0 .6.2 1 .3 1.7 0 .1 0 1.3.3 1v-.8l.1-.8v-1.6l.6-1.5c0-.2.6-.9 0-.9Zm.1.5Zm3.4-.9c-.3.1-.4 1-.5 1.2a5 5 0 0 0-.3 1.4l.2 1.4v.9c.3 0 .2-2.3.3-2.6 0-.6.3-1 .4-1.6 0 0 .4-1-.1-.7Zm4.6-.4c-.5 1-1.1 1.7-1.1 2.8l.2 1.5c0 .1 0 1 .2.7.2-.2 0-1 0-1.2a5.7 5.7 0 0 1 .9-3c0-.2.3-.5.2-.7 0-.2-.3-.2-.4 0Z" fill="#333"/><path d="M296.6 202.7c-.2 0-.2.5-.3.6l-.3.9-.3 1.2c0 .2 0 .4.1 0 .3-.6.2-1.3.7-1.8l.4-.4c0-.2 0-.7-.3-.5Z" fill="#333"/><path d="M297 199.7c-.4.2-.1.8 0 1 0 .4 0 .8-.2 1.2l-.4 1.3c0 .3 0 .7.4.3.2-.2.3-.8.4-1.2.2-.4.4-.8.4-1.3 0-.4-.2-.6-.3-.9 0-.2 0-.7-.3-.4Zm110 3.2h-2l-5.7.3h-2.8l-1.4.1H394c-3 .2-6 0-9 .2l-2.2.3-1.2.1c-.4.4.3.3.5.3a68 68 0 0 1 3.8-.3l5.2.1 5-.1c3.6 0 7.3-.4 11-.6l5.2.1h2.7c.3 0 2.6.2 2.6 0l-10.7-.5Z" fill="#333"/><path d="M413.9 202.5c-2.8 0-5.6.5-8.4.6h-.4l-8.2.3-4.7.3-1.8.1c-.3 0-.4.1 0 .2h1.2l13.8-.5c3.2 0 6.5-.5 9.7-.6l4.4-.1a267.7 267.7 0 0 1 4.4-.2h-10Zm.3.4Zm-14.2.8Zm-.5 0Zm-8 .3Zm4.3-.2Zm3.2-.1Zm.4 0Zm0 0Zm0 0Zm-2.4-.3Zm8-.3Zm9.5-.2Z" fill="#333"/><path d="m414 202.9-1.8.1h-.5c.1 0 0 0 0 0l-1.8.2c-.2 0-.7 0-.5.4h1s.1 0 0 0h.5l2.6-.2h.5l7.1-.3h.4c0-.2-.6-.1-.8-.1h-2.2c-1.5-.1-3-.2-4.4-.1Zm-1 .2Zm-.5 0Zm-1 .5Zm-1.3 0Zm0 0Zm-42.9 28.8c-.3 0-.3.8-.3 1l-.1 1.5-.4 2.6c0-.3 0 0 0 0-.3 2.1-.3 4.4-.4 6.6l-.6 6.7-.9 14.4a66 66 0 0 1-.2 3.6c0 .2-.3 1.6.1 1.4l.1-.8.1-1 .8-7 1.2-14.5.4-7.6.4-3.8v-2c.1-.1.3-1.4-.2-1.1Zm-.8 5Z" fill="#333"/><path d="M367.9 200.8a24.4 24.4 0 0 0-1.2 3.2c-.3 1-.2 2.2-.2 3.4.1 2.6.4 5.1.4 7.7 0 5.1.4 10.2.2 15.4l-.2 4v4l-.2 2s-.1.7 0 .8c.2.2.1-.4.2-.4 0-1.3.3-2.6.4-3.9l.4-4c.1-1.3.3-2.5.3-3.8 0-2.6-.3-5.2-.4-7.8-.1-2.8-.1-5.6-.4-8.3l-.4-4.3v-4a17.6 17.6 0 0 1 1.1-3.5l.2-.4c0-.1-.1-.3-.2-.1Zm-1 4Zm-2.2-.1c-.2 0-1.3-.1-1.3.2 0 .4 1 .2 1.3.2.2 0 1.4.2 1.5-.1.2-.4-1.3-.3-1.5-.3ZM369 162c-.2 0-.3.2-.3.4l.4.1c.3 0 1 .2 1.3 0 .4 0 .2-.3 0-.4h-1.5Zm1 43c-.5.2-.3 1-.3 1.4 0 .2-.2 1.9 0 2 .3 0 .4-1.7.5-2 0-.2.4-1.4-.2-1.3Z" fill="#333"/><path d="m370 205-.1.1-.1 1.2c0 .2 0 .9.2.5l.2-1c0-.2.1-.9-.2-.8Z" fill="#333"/><path d="M370 205.2c-.2.4-.1 1-.2 1.5 0 .2-.1.5.1.5s.2-.3.2-.4l.2-1.2v-.5l-.4.1Z" fill="#333"/><path d="M370 205.4v.7l-.1.8c0 .2-.2 1.4.1.8.2-.4.2-1 .3-1.4 0-.1 0-1.2-.3-1Z" fill="#333"/><path d="M369.6 205.4v.7c0 .3.3.4.3 0l.1-.7c0-.2-.4-.3-.4 0Zm1.7 31.1h-1.7c-.2.2-.2.5 0 .7h.6c1.4 0 2.9 0 4.2.2a37.9 37.9 0 0 1 8.8 2.9l1.2.5 2.3 1 4.2 1.9a73 73 0 0 0 4.8 1.7l.8.2-.9-.4-2.5-.8-.1-.1-4-1.8c-1.2-.6-2.3-1.2-3.4-1.6l-3.3-1.6c-1.2-.6-2.4-1-3.6-1.4a19 19 0 0 0-7.4-1.4Zm2.8.8Zm8 2.5Zm3.5 1.1Zm197.1-94c.5 0 .5 2 .5 2.3l.2 2.7.4 5.7v.6l.4 3.1c.2 1.1.2 2.2.2 3.2l.3 6v11.7l.2 6.2v.7c-.1.2-.2 0-.2-.2-.1-.5 0-1 0-1.6l-.2-3.3c0-4.1 0-8.2-.2-12.2l-.4-6.6-.2-3.5-.2-1.6-.1-.9v-.3l-.1-.3v-.7a20.3 20.3 0 0 1-.2-1.3 85.3 85.3 0 0 1-.3-4.4l-.1-3c0-.4-.4-2.3 0-2.3Zm1 15.6c0-.2 0 0 0 0Zm-6.5-10.6c.4.2.2 1.2.2 1.5v2l.1 3.7c0 2.5.3 4.9.2 7.3l.1 7.3.3 8 .1 3.8v1.7l.1.8c0 .2.2.8 0 1 0 .2 0 .2-.2 0-.1-.1 0-.6 0-.8l-.2-2c0-1.3-.2-2.5-.3-3.8 0-5-.6-10.2-.5-15.3l-.2-8-.2-4v-1.8c0-.3-.2-1.8.5-1.4Zm2.2-5c.2.2.2 1 .3 1.3l.2 1.8.4 4 .6 7.8c.2 1.3.3 2.5.3 3.8V189c-.4.5-.4-.8-.4-1v-9.9l-.2-4v-3.8c-.1-2.6 0-5.1-.2-7.7a27 27 0 0 0-.3-4l-.4-4.2v-1l-.2-1.2-.2-2.2a104.6 104.6 0 0 1 0-1l-.2-.5-.1-1v-.6c0-.2.2-.3.4-.1Zm1.6 15.4Zm0 0Zm-.6.9Zm0 0c0-.1 0 0 0 0Zm-1.1-13.1Z" fill="#333"/><path d="M579.2 147c.4.1 0 1.2 0 1.4l-.1 2-.3 2c0 .3.1 1.7-.4 1.5-.3-.2 0-1.3 0-1.6a67.2 67.2 0 0 1 .3-4c0-.2 0-1.5.5-1.3Z" fill="#333"/><path d="M581.6 146.7h1c.3.1.5.4.2.6h-.9a27.4 27.4 0 0 0-2.3-.1c-.2 0-.8-.1-.4-.4.2-.2.8 0 1 0l1.4-.1Zm6.4 53.1c.3.1.4.6.5.9l.3 1.1.5 2.2c.2.8 0 1.5 0 2.3l-.2 2.6c-.2 3.3-.5 6.6-.6 10-.2 6.7 0 13.4.6 20l.4 5.2.3 2.5v1.8l.2.8c-.2.4-.3 0-.3-.3l-.2-1.1c0-1-.1-1.8-.3-2.7l-.5-5.1a127.4 127.4 0 0 1-.4-31.3l.3-2.8c.2-.8.2-1.5 0-2.4l-.5-2.3-.4-1c0-.2 0-.7.4-.4Zm1.2 3.6v.1Zm-5.7-3.2c.3.1 0 .6 0 .9l-.1 1-.5 2.5-.4 2-.1 1c0 .2-.1.8-.4.4l.1-1.1.2-1.1c0-.7.2-1.4.3-2 0-.8.2-1.6.3-2.3 0-.2.1-1.6.6-1.3Z" fill="#333"/><path d="M587.3 199.7c.2 0 1.3.1.8.5-.3.2-1 0-1.3 0l-1.8.1c-.4 0-1.1 0-1.4.2-.1.2-.5 1.3-.5.5 0-.5.1-1 .6-1 .6-.3 1.3-.2 1.9-.3h1.8Zm.2.5Zm0-.5c-.1 0-.1 0 0 0Zm-.1 0Zm-5.4 6c.2.1.1.8 0 1 0 .2.2 1.5 0 1.2-.3-.1-.2-1.1-.2-1.4 0-.1-.1-1 .2-.8Z" fill="#333"/><path d="M582 206v1.1c0 .2.3 1.3-.1 1-.2-.1-.2-1.1-.2-1.4v-.5s.2-.4.3-.2Zm7 34.5c.6 4.1 1.2 8.3 1.6 12.4l.4 6 .6 6 .2 2.9v1.3c.1.4.2 1 0 1.3-.1.1-.3.3-.5.1-.2-.1 0-.2 0-.3.1-.5 0-1.1 0-1.6l-.3-3-.6-6-.4-6.1c0-1.2-.3-2.4-.4-3.7l-.2-3.1a101 101 0 0 1-.4-5.2c0-.2-.2-.8-.1-1 0 0 .1-.2.2 0Zm2.3 29.7Zm-8.8-33.2.1 3.3v-.1l.1 15.3-.2 7.2v1.7c0 .3 0 1.4-.5 1-.3-.1-.1-1-.1-1.4v-1.9l.3-8v-17.2s.2-.2.3 0Z" fill="#333"/><path d="M582.4 265.2a65.5 65.5 0 0 1 4.5 4.3c.1.2 1 .8.5 1a57.9 57.9 0 0 1-2.7-2.6l-1.6-1.5-.7-.7c-.1-.1-.4-.2-.3-.4 0-.1.2-.3.3-.1Z" fill="#333"/><path d="M591.6 270c.5.3 0 .7-.2.7h-1.5l-1.6-.1c-.2 0-1.2.1-1.3-.1-.1-.4.6-.4.8-.4h2.8c.3-.1.7-.2 1 0Zm-2.6-32.5a39 39 0 0 1 4.7 2 30.2 30.2 0 0 1 14 14.4 53 53 0 0 1 2.8 6.5c.4 1.2.9 2.5 1.2 3.8 0 .3.3 1-.2 1-.3 0-.3-.4-.4-.6l-.1-.5-.1-.3-.8-2.6c-1-3.2-2.4-6.3-4-9.2a35 35 0 0 0-5.7-7.2 34.2 34.2 0 0 0-9.1-6l-1.7-.7c-.2 0-.6-.1-.8-.3-.1-.1-.1-.4.1-.3Zm21.1 23.7c0 .1 0 .1 0 0Zm-4-9.2Zm-.6-.8Zm-4.4-6.6Zm-7.4-5Zm0 0Zm-1.1-.1ZM525 256.6c3.7 0 7.3.3 11 .9a31.7 31.7 0 0 1 8 2.5l1.3.5c.4.2 1 .3 1.3.6l.4.1c-.3 0 .4.2.2.2h.1c-.1 0 .2 0 0 0h.1l1 .5.4.1.3.2 5 2c1.9.5 3.8.8 5.7.8.2 0 .7 0 .6.2H559c-1 0-2 0-3-.2a20 20 0 0 1-5.3-1.5l-6-2.4a56 56 0 0 0-14.3-4c.1 0-.2 0 0 0l-3-.2h-1.6l-.9-.1s-.1-.2 0-.2Zm5.6.6Zm.5 0Zm15.6 4h.2-.1Zm10.3 3.6Zm-9.5-3.3Zm0 0c-.1 0-.1 0 0 0Zm-2.7-.4Z" fill="#333"/><path d="M571.5 264.8h9.6l1 .1c.1.2 0 .4-.1.5h-6.8l-9.8-.1h-6.2c-.2 0-.8 0-.6-.3.1-.2 1-.1 1.2-.1h1.2l10.5-.1Zm22 .1h16.9c.3 0 1.3-.1 1.2.4-.1.5-1.2.3-1.6.3h-17.5c-.3 0-1.9.1-1.3-.6.1-.2.8-.1 1-.1h1.3ZM479.7 237c6.7.1 13.3 1 19.8 2.7l9.7 2.5c3.2.9 6.5 1.4 9.7 2.2l4.8 1.1 5.4.9h1.2c.2.1.8 0 1 .2.1.3-.6.1-.7.1h-1l-4.5-.4h-.2l-.4-.1-1-.1-1.6-.3-3.3-.7-7-1.6c-2.4-.5-4.7-1.2-7-1.8l-7-1.7-3.8-.9-2-.3-1-.2h-.3l-.4-.1a103.3 103.3 0 0 0-16.8-1.2h-.8c-.4-.2.7-.2.8-.2l6.4-.1Zm41.6 8Zm2.6.5Zm-2.2.2Zm4.2.2Z" fill="#333"/><path d="M559.2 243.3c.4.5-4.3 2-4.8 2-1.9.5-3.7.8-5.6 1.1-2 .3-4 .6-6 .7a58.4 58.4 0 0 1-12.9-.6h-.8l-1.4-.2-2.6-.3c-.1 0-1 0-.8-.2.1-.2 1 0 1.1 0l2.7.3h2.4l2.7.2 5.5.1 5-.1h.2a66.5 66.5 0 0 1 5.4-.7h.6a45.4 45.4 0 0 0 7.4-1.7c.3-.1 1.8-.9 2-.6Zm-1 .3c-.1 0-.1 0 0 0Zm-14.6 2.7Z" fill="#333"/><path d="M579.6 235.8c.8 0 1.6.1 2.3.3.2 0 .6.2.7.4.2.4-.3.3-.5.2a9.2 9.2 0 0 0-4-.5h-.4a45.5 45.5 0 0 0-8.4 2.6v.1l-3.7 1.6-4.4 2.2c-1.6.7-3.2 1.2-4.8 1.7l-1.2.4-.5.2c-.2 0-.6.3-.7.2-.5 0 .3-.3.4-.4l1.3-.5c1.5-.5 3-1.1 4.4-1.8l2.5-1.2 1.2-.6.7-.3.3-.1 3-1.4c0 .1.2 0 .2 0l.4-.2.9-.4 1.3-.5c1-.3 2-.8 3-1 1-.4 2-.6 3.1-.8 1-.2 2-.3 2.9-.2Zm-11.4 3.6Zm.5-.2Zm9.4-3Zm4.5 4.4c0 .2-.4.2-.4 0 0-.3.4-.3.4 0Z" fill="#333"/><path d="M582.5 236.3c.3.3 0 1.4 0 1.7v2.6c-.2.1-.2-.4-.2-.5v-.8l-.1-2c0-.3-.2-.7-.1-.9 0-.2.2-.3.4-.1Zm-.3 1.4Zm.3 1.2Zm-3-33.4.4 11c0 3.7.2 7.4.1 11.1 0 2-.2 3.9-.3 5.8v2c-.1.2-.1.7-.4.7-.2.1-.2-.1-.3-.3l.3-3.3c.2-3.6.2-7.1.2-10.7l-.1-10.9-.1-3V206c0-.1-.2-.5 0-.7 0 0 .2-.1.2 0Zm-.3 27c0 .2 0 0 0 0Zm0 0Zm-103 24h23.9l24 .1h4.2c.1 0 .4 0 .4.2 0 .3-.5.2-.6.2h-6l-12 .1h-24.2l-11.7-.2h-5.8c-.2 0-.4-.1-.2-.3h2.2l3-.1h2.8Zm114.1-51.2H589c-.3.3-.1.5.2.5h2.1c3.7.2 7.3.7 10.9.8h.8l3.4.3 6 .5h1l1.2.1 2.9.2 2.5.3 2.4.4v-.8c-3.6-.5-7.5-.7-11.1-1a8 8 0 0 0-.8 0h-.6l-1.3-.1-2.5-.2-5.3-.3-5.3-.3c-1.7-.1-3.5-.4-5.2-.3Zm12.8 1.4Zm-.8 0c-.2 0 0 0 0 0ZM561.2 188c0 .3 2 .4 2.2.4h.8l2.6.1c4.2.3 8.8.7 13.2.8 4.5.1 9 .5 13.4.9l6.8.5h1.6l.7.1c.3 0 .7.2 1 .1.4-.1 0-.5-.3-.5l-1.6-.1c-4.3-.5-8.6-.8-13-1l-7.3-.6-7.2-.2-2.4-.1-3-.1-6-.2c-.2 0-1.5-.2-1.5 0Zm27.5 1.3Zm0 0h.1Zm8.3.6Z" fill="#333"/><path d="M596 189.9h-1c-.2.3.7.2.8.2l2 .1c1.7.1 3.2.4 4.8.6l9.7.6h1l.6.1h.6l.6.1h.6l1.5.2 2.8.2 5.2.5h.3v-.6c-.2-.2-1-.2-1.2-.2l-3-.3c-1.6-.2-3.5-.4-5.1-.4 0 0-.1 0 0 0h-.8s-.7-.1-.4 0l-2.2-.2h.1-.3l-5.7-.4c-1.9-.2-3.7-.1-5.6-.2l-1.7-.2h-2.3l-1.2-.1Zm.4.2Zm11.8 1Zm4-.3c-.2 0 .2 0 0 0Zm.3 0Zm43.3 3.5 2.8.4h.1l1.9.2h1.3l.3.1c1 .1 2.6.3 3.8.6l4 .7 7.6 1 1.7.4c.3 0 1.2.3 1.4 0 .5-.8-2.1-1-2.5-1-2.5-.5-5-.8-7.6-1.1l-4.4-.7-2.3-.3c-.5 0-1.2 0-1.6-.2l-1.2-.1-2-.2-3.7-.2c.2 0 .4.3.5.4Zm3 .4Zm1.7.2Zm-6.1 16.3c0 .2.1.2.4.2a31.4 31.4 0 0 1 1.9.2h.7l8.4 1c2.9.4 5.9.8 8.8 1 .8.2 1.6.2 2.5.3.4 0 1.8.4 2 0 .3-.8-1.4-.7-1.8-.7l-1.3-.1h-.8l-.2-.1-1.6-.1-1-.1h-.7l-.2-.1c-3-.3-6-.9-9-1h-.1l-.3-.1h-.7l-1.3-.2-1.5-.1h-.4l-.9-.1H656c-.5-.1-1-.2-1.5 0Zm4 0Zm-1 .4Zm.2 0Zm0 0Zm1-.3c-.1 0 0 0 0 0Zm-1 .3c-.2 0 0 0 0 0Zm5.1.1ZM675 213Zm-.4.7Z" fill="#333"/><path d="m677.6 196.7 3.1.5c1 0 2 .6 2.4 1.6l.4 1.6v.7c-.2.2-.3-.2-.3-.3-.3-.9-.5-2-1.2-2.5-.9-.5-2-.6-3-.9h-.2l-.3-.1-1.3-.4h-2.4c0-.3.4-.2.5-.2h2.3Zm-.4.2Zm1.7.5Zm0 0c-.1 0 0 0 0 0Zm2.5 15c.4.3-.4 1-.6 1.2-.5.4-1.2.3-1.8.3l-1.8-.2-1.7-.2h-1.7c-.2 0-1.1 0-.6-.4h5.7l1.4-.1c.3-.1.9-.9 1.1-.6Z" fill="#333"/><path d="M681.5 212.4c.4.1-.1.8-.3 1-.4.5-.8.7-1.5.7-.4 0-1.1 0-1.6-.2-.2 0-.3-.2 0-.3h.8c.6.1 1.2.2 1.6-.3.2-.2.7-1 1-1Z" fill="#333"/><path d="m681.2 197.4.4.3c1.7 1 2.1 3.6 2.2 5.4.1 2.2-.1 4.7-.8 6.9a9 9 0 0 1-1.3 2.8 4 4 0 0 1-.9 1l-.5.2c-.3 0-.5-.2-.4-.4 0-.5.6-.8.9-1l.8-1.5c.5-1 1-2 1.2-3.1a18 18 0 0 0 0-8c.1.2 0 0 0 0 0-.2 0-.4-.2-.5 0-.3-.2-.6-.3-.8l-1-.9-.3-.2.1-.2Zm-161.7 5.1c-1.3 0-2.7 0-4 .2l-2 .2s-.8 0-.7.2c0 .2.6 0 .8 0 2.8-.3 5.6-.2 8.4 0 2.7 0 5.4.3 8 .3 2.8 0 5.6 0 8.3.3l2.3.1h2.2l2.4.2a22.2 22.2 0 0 0 1.5 0h3.4l3.1.1c2.2.1 4.3 0 6.5.3 2.1.2 4.2.2 6.3.2l6.4.3 7 .3h.4l.6.1 1 .1c.3 0 .9.2 1.1.1.3 0 .2-.3.3-.6 0-.4 0-.4-.4-.4l-1.1-.2-1.8-.2h-.3c-3 0-6.1 0-9.2-.2-1.4-.1-2.7-.3-4.1-.3H561c-3 .2-6 0-9-.2l-8-.2c-2.3 0-4.5-.3-6.8-.3h-.7c-2.9-.2-5.8 0-8.6-.1-2.8-.2-5.7-.4-8.5-.3Zm29.3.8Zm.1 0Zm18.2 1.4Zm-6.4-.2h-.2.2Zm-13.2-1.2ZM589 205c1.6.1 3 0 4.6.2h.1c-.3 0 .1 0 0 0 0 0 .1 0 0 0h.1s.1 0 0 0c2.2 0 4.5 0 6.7.3 1 .2 2.2.2 3.3.3l2.9.3h.1c1.7 0 3.8.2 5.6.5 1 0 2 0 3 .3 0 0 .3 0 .2.2h-2.1l-6-.2h-2.3l-1-.1h-.9l-.5-.1c-1.3 0-2.6-.3-3.9-.4l-4-.2-3.7-.4h-1.9c-.2 0-.5 0-.5-.3 0-.2 0-.4.2-.4Zm7.3 1.2c.1 0 .1 0 0 0Zm8.4.6Zm-11-1.6Z" fill="#333"/><path d="M506.7 202a262.7 262.7 0 0 1 8.9 0l3.2.2h6l6.2.5c2.4 0 4.8 0 7.1.4h.3l.6.1 1.2.1c.2 0 1 0 1 .3-.2.2-1 0-1.2 0l-5.4-.2h-5.3l-5.5-.3h-5.2l-2.6-.1h-2.6c-3.5-.2-7-.1-10.5-.2h-5.3l-5.5-.2h-11l-5-.2h-2.7l-1.2-.2c-.2 0-1 0-.4-.2l1.3.2h1.4l2.5-.1h11l5.5-.2 5.4.1h7.9Zm-6.7-16.7-10.8.2-5.5.2H478c-.6 0-5.8.2-5.8.5 1.8 0 3.5-.2 5.2-.1h16.3c3.7 0 7.3-.2 11 0l10.8.3 10.7.5 5.4.3c1.8 0 3.5.3 5.3.4h2.6c.3.1.8.2 1 0 .3-.3 0-.5-.3-.5-.9-.2-1.8-.2-2.6-.2a45 45 0 0 1-2.7-.2c-3.6-.4-7.2-.5-10.7-.7-7.2-.3-14.4-.7-21.6-.7h-2.5Z" fill="#333"/><path d="M518.7 185.7h-3.6c-.2 0-1.3 0-1.3.2s1.4.1 1.6.1a136 136 0 0 1 13.8.6l6.8.7 6.8.4c2.2.1 4.4 0 6.6.2l6.2.2 6.9.4 6.6.3c2.2 0 4.5.1 6.7.3.6 0 6.4.5 6.4 0 0-.3-2.5-.3-2.8-.3l-3.4-.2c-4.5-.2-9-.3-13.4-.7l-13.5-1c-4.5-.2-9-.2-13.6-.5l-6.9-.5-6.7-.1h-3.2Zm26.3 17.1h1.8l5.7.3h2.8l1.4.1h1.3c3 .2 6 0 9 .2l2.3.3 1 .1c.5.4-.2.3-.4.3l-3.8-.3-5.2.1-5-.1c-3.6 0-7.3-.5-11-.6l-5.2.1H537c-.3 0-2.5.2-2.6 0l10.7-.5Z" fill="#333"/><path d="M538 202.4c2.8 0 5.6.5 8.4.6h.4l8.2.3 4.7.3 1.8.1c.4 0 .4.1 0 .2h-1.2l-13.8-.5c-3.2 0-6.5-.5-9.7-.6l-4.4-.1a268.3 268.3 0 0 0-4.4-.2h10Zm-.3.4Zm14.2.8Zm.5 0Zm8 .3Zm-4.3-.2Zm-3.2-.1Zm-.4 0Zm0 0Zm0 0Zm2.4-.3Zm-8-.3Zm-9.5-.2Z" fill="#333"/><path d="m537.9 202.8 2.1.1h.7l.6.1h.9c.3.1.5.5 0 .6h-.4c.2 0-.1 0 0 0l-.8-.1-2.6-.2h-.5a85 85 0 0 0-6.7-.2h-.5s-.4 0-.2-.2c.1-.2.9 0 1 0h2.2c1.4-.1 2.8-.2 4.2-.1Zm1.8.1Zm.8.6Zm1 0Zm.2 0Zm0 0Zm-3.8-.3Zm-7.1-.1Zm9.2-.2Zm44.6 29.4c.3 0 .3.8.3 1l.1 1.5.4 2.6c0-.3 0 0 0 0 .3 2.1.3 4.4.4 6.6l.6 6.7.9 14.4c0 1.2 0 2.4.2 3.6 0 .2.3 1.6-.1 1.4l-.1-.8-.1-1-.8-7-1.2-14.5-.4-7.6-.4-3.8v-2c0-.1-.3-1.4.2-1.1Zm.8 5Z" fill="#333"/><path d="M584 200.7a24.5 24.5 0 0 1 1.2 3.2c.3 1 .3 2.2.2 3.4-.1 2.6-.4 5.1-.4 7.7 0 5.1-.3 10.2-.2 15.4l.2 4v4l.2 2s.1.7 0 .8c-.1.2-.1-.4-.1-.5l-.5-3.8-.4-4c-.1-1.3-.3-2.5-.3-3.8 0-2.6.3-5.2.4-7.8l.4-8.3.4-4.3v-4a17.9 17.9 0 0 0-1.1-3.5l-.2-.4c0-.1.1-.3.2-.1Zm1 4Zm2.2-.1c.2 0 1.3-.1 1.3.2 0 .4-1 .2-1.3.2-.2 0-1.4.2-1.5-.1-.2-.4 1.3-.3 1.5-.3ZM583 162c.1 0 .2.1.2.3l-.4.1c-.3 0-1 .2-1.3 0-.4 0-.2-.3 0-.4h1.5Zm-1 43c.4 0 .2 1 .2 1.3 0 .2.2 1.9 0 2-.3 0-.4-1.7-.5-2 0-.2-.4-1.4.2-1.3Z" fill="#333"/><path d="m581.9 204.9.1.1c.2.4 0 .8.1 1.2 0 .2 0 .9-.2.5l-.2-1c0-.2-.1-.9.2-.8Z" fill="#333"/><path d="M582 205c.1.5 0 1.2 0 1.6 0 .1.2.5 0 .5s-.2-.3-.2-.4l-.2-1.2v-.5h.4Z" fill="#333"/><path d="M581.9 205.3v.7l.1.8c0 .2.2 1.4-.1.8-.2-.4-.2-1-.3-1.4 0-.1 0-1.2.3-1Zm.4 0v.7c0 .3-.2.4-.3 0v-.7c0-.2.3-.3.3 0Zm-1.7 31.1h1.7c.2.2.2.5 0 .7h-.6c-1.4 0-2.9 0-4.2.2a38.1 38.1 0 0 0-8.8 2.9l-1.2.5-2.3 1-4.2 1.9-4.8 1.7-.8.2 1-.4 2.4-.8c2.4-1 5-2.5 7.5-3.5l3.3-1.6c1.2-.6 2.4-1 3.6-1.4a19 19 0 0 1 7.4-1.4Zm-2.8.8Zm-8 2.5Zm-3.5 1.1ZM477.2 185c-4.8 0-9.5-.2-14.3 0l-7.2.2-7.3.1a45 45 0 0 0-3.8.2l-2 .2h-1l-.5.1h-.7a5 5 0 0 0-.5 0l-.9.1c-.3 0-.7.2-.2.4h1.5l1.4.1 3-.1h9.1l6.3-.1h1.1l1.3-.1h7.9l5.3.1h5.5c3.7 0 7.4.2 11.1 0l5.4.1h16.6l5.7.1 2.8.2h.6c.2 0 .6.1.8 0 .4-.1-.1-.2-.3-.3-3.7-.2-7.3-.6-11-.7l-11-.4c-7.3-.5-14.6-.1-22-.3h-2.7Zm-33.5 1.3Zm16.2-.1h.1Zm144.8 4.2c-.1.4 3 .5 3.4.6l3.5.3c1.2 0 2.3.3 3.5.4l3.9.3c4.7.4 9.5 1 14.3 1 2.5.1 5 .4 7.4.6l7.6.7c4.8.4 9.7.6 14.6 1.1l7.4 1 7.6 1 1.8.2c.2 0 .8.2.9 0 .3-.2-.4-.2-.5-.3l-3.6-.5-7.6-1.3c-5-.8-9.9-1.4-14.8-1.8l-7.5-.6c-2.6-.1-5.1-.3-7.7-.6-4.8-.5-9.7-.6-14.5-1l-7.4-.4c-2.3-.2-4.5-.5-6.8-.6l-3.6-.2h-1c-.2 0-.9-.2-1 .1Zm5.3.1Zm-7 15.5c-.1.4 2.6.6 3 .7l3.1.3 6.4.7 6.8 1 3.3.3 3.5.2c4.4.3 8.9.7 13.3 1.3 4.5.6 9 .8 13.4 1.1 4.4.4 8.9.7 13.3 1.3.2 0 1.4.4 1.5.2.2-.4-1-.4-1.3-.5l-3.4-.5-7-.9c-4.4-.5-8.9-.8-13.3-1.2-4.5-.5-9-1.2-13.5-1.6-4.4-.4-8.7-.7-13-1.2l-6.6-.6-6.6-.5c-.4 0-2.9-.4-3 0Z" fill="#333"/><path d="M561 187.7c-.4 0-.7.5-.4.7h1.5l2.9.1 5.7.3c2 0 3.9.2 5.7.3l5.8.3 2.9.1 2.8.2 2.9.2h2.7l12 .8 5.7.3 5.8.6 5.8.5 5.8.7c3.8.3 7.7.8 11.5 1l12 .9 11.7 1.2 11.7 1.5 1.4.2c.5 0 1.1.2 1.6.1.1 0 .3 0 .2-.1 0-.2-.4-.2-.5-.2l-1.4-.1-5.8-.8-11.7-2c-3.9-.5-7.8-.8-11.8-1.1l-6-.5-6-.4c-7.5-.8-15.1-1.8-22.8-2.5a370.8 370.8 0 0 0-17.3-1l-5.7-.3c-3.9 0-7.8-.4-11.8-.5h-5.5c-2 0-3.9-.2-5.9-.3a57 57 0 0 0-5.6-.2Z" fill="#333"/><path d="M526.8 186c-.3 0-1.4-.2-1.6 0-.4.6.8.5 1 .5l3.9.3c2.6.3 5.1.3 7.7.5 2.5 0 5.1 0 7.7.2 2.5 0 5 .3 7.6.4l7.7.1 7.6.5a1695.4 1695.4 0 0 0 23.1 1.1l7.8.1 1.8.1c.1 0 .8.2.9 0 .2-.2-.4-.2-.5-.2l-3.8-.2c-2.5-.2-5-.2-7.5-.2-5-.2-10.1-.8-15.1-1.2-5-.5-10-.8-15-1l-3.9.1c-1.2 0-2.5 0-3.7-.2-2.6 0-5-.3-7.6-.4-5-.2-9.8-.1-14.7-.4l-3.4-.2Zm-90.3-.6c-3.6 0-7.2.5-10.8.6l-5.7.1c-1.9 0-3.8.2-5.7.4-3.6.2-7.2.5-10.9.6l-11.3.8c-3.7.3-7.5.2-11.2.5l-11.1.3c-3.7 0-7.4-.1-11 .2l-5.4.4-5.5.4c-3.6.3-7.3.4-11 .8l-5.5.5c-1 0-1.9.2-2.8.3-.9 0-1.8 0-2.7.2-.2 0-.7 0-.7.4 0 .1 0 .2.2.3h.3c1.3-.2 2.6-.2 3.9-.2l3.8-.3 4-.4 3.8-.2 8-.4 4-.4 3.8-.2 3.8-.2h3.9c1.2-.1 2.4 0 3.6-.2l4-.3 7.7-.4 7.7-.4c2.6-.2 5.2-.4 7.8-.4 2.7 0 5.3-.3 8-.3 5.2 0 10.6-.5 15.9-.8l8-.4 8.2-.5c5.3-.2 10.7-.1 16-.3a142.2 142.2 0 0 1 8.8 0h1.1c.5-.4-1-.3-1.1-.3h-12l-8-.2h-3.9Zm-165.9 12.3a19.9 19.9 0 0 0 1.2 15c.1.2.3 1.1.8 1.1.6 0 .2-.7 0-1l-.7-1.5a18.6 18.6 0 0 1-1.3-12.5c0-.3.3-.6.3-1 0 0 .1-.2 0-.2h-.3Zm0 .9Zm-.9 5Zm248-55.2H508l-4.6.2h-6.2a34.8 34.8 0 0 0-2.3 0h-3l-6.4-.1H479l-3.1.1h-.8c-.2 0-.6 0-.8.2-.5.3.1.4.4.4h7.9c2.6 0 5.2.3 7.9.4 2.6.2 5.2.2 7.8.2h16.2l7.8.1 8.1.3h8c5.3.1 10.7.5 16 .5 2.8 0 5.5.1 8.3.3a125.8 125.8 0 0 0 11.7.5h2l.8.2c.4 0 .6-.2.2-.3-.5-.2-1.3-.2-1.8-.2l-2-.1-4.2-.2-8-.7c-2.6-.2-5.2-.3-7.9-.3-5.4-.2-10.8-.9-16.2-1l-8-.1c-2.7-.1-5.3-.3-8-.3l-3.7-.1Z" fill="#333"/><path d="m464 147.6-7.8.7c-2.5.2-5.1.2-7.7.3l-1.9.1c-.4 0-1.4 0-1.7.3-.2.2-.2.4 0 .6.1.2.4.1.7.1h2c2.5 0 5 0 7.6-.2 2.6-.2 5.2-.5 7.9-.6 2.5-.2 5-.1 7.5-.1 5.3 0 10.5.3 15.8.3h7.5c2.6 0 5.1.2 7.7.1 5 0 10.2-.5 15.3-.3l3.9.3h.8c.2 0 .7.2.9 0 .4-.1 0-.3-.2-.3h-1.1c-2.6-.3-5.2-.6-7.8-.6-5-.2-10 .3-15 0l-15.2-.4c-5.2 0-10.3-.3-15.5-.3H464Z" fill="#333"/><path d="M462.8 147.8c-2 0-4 0-6 .2l-5.7.2h-6l-5.7.2-11.7.6-11.6.4-6.4.6-3.3.3c-.3 0-1.2 0-1.4.3-.2.4.8.2 1 .2h1.2a66.4 66.4 0 0 1 4.7-.2l5.9-.3 12.1-.3 7.3-.2c3.3-.2 7.1-.5 10.6-.4 3.6.1 7.2 0 10.8-.2h21.7c7.3 0 14.6-.5 22 0 .8 0 1.8.3 2.7.2.3 0 .5-.2.2-.4s-1-.1-1.4-.1l-5.6-.5c-3.7-.3-7.5-.2-11.2-.2h-11c-3.5 0-7-.3-10.5-.4h-2.7Zm-9 .4Zm-18.4.4c-.1 0-.1 0 0 0Zm1.7 1.2Zm-12-11.3c-1.2 0-2.3.4-3.4.9-1 .4-2.3.5-3.5.3-1.2-.2-2.2-.9-3.4-1.1-.5-.1-1 0-1.5.2-.6.2-1 .6-1.5.8-1.2.4-2.5.5-3.7 0a6 6 0 0 0-3.4-.8 5 5 0 0 0-1.8.5c-.5.2-1 .6-1.6.7-1 .2-2.2.3-3.2.1-1.2-.3-2.5-.5-3.8-.5-1.2 0-2.4.4-3.6.6a15 15 0 0 1-3.7.4c-1.2 0-2.4-.5-3.6-.7-1.2-.2-2.5 0-3.7.4-1.2.5-2.3.8-3.5.7-1.2-.1-2.4-.8-3.6-.8-1.2 0-2.5.5-3.7.9a21.1 21.1 0 0 1-5.6 1l-.8.1c-.2.1-.2.2 0 .3.5.2 1.4 0 2 0h2c1.2-.2 2.4-.4 3.5-.8l1.9-.5h.3l.6-.2 1.2.1 3 .3c2 0 3.8-.5 5.7-.3l2.8.4c.8 0 1.7 0 2.5-.2 2-.2 3.7-.9 5.6-1.1.9-.2 1.7-.2 2.6 0l2.4.9c.9.2 1.8.3 2.6 0 1-.2 1.5-.9 2.3-1.3 1.8-1 3.6.1 5.4.4 1 .2 1.8.1 2.8 0 .8-.1 1.7-.5 2.6-.6 1 0 2 .4 3 .6 1 .2 2.1.1 3.1-.1s1.8-.7 2.7-1a7 7 0 0 1 1.3-.3h.8l-.1-.3Zm-13.4 1.1Zm1.5.2Zm-16.8.5Zm-17.7.4Zm44.5-1.6Zm-19.6 0v-.1Z" fill="#333"/><path d="m488.9 138.2-2.1.5c.2 0 0 0 0 0h-.4c-.3.2-.5.3-.8.3l-1.3.2c-1.1.1-2.3 0-3.4-.3-1-.1-2-.4-3-.4s-2.1.4-3.2.6c-2.2.3-4.3-.4-6.4-.6a12 12 0 0 0-3.4.2c-1 .2-2 .5-3.1.5-1 0-2.1-.4-3-.7-1-.3-2-.4-3-.2-1 .3-2 .8-3 1-1 0-2.2-.1-3.3-.4-1-.2-2-.5-3.1-.4-1 .1-2.1.5-3.2.7-.9.2-1.9.3-2.8.2-1 0-2.1-.4-3.2-.7a7 7 0 0 0-3.4.1 12 12 0 0 1-3.6.2c-1.2-.1-2.5 0-3.7-.2-.5 0-1.2-.4-1.6-.2-.5.2.6.3.7.4 1 .3 2.1.5 3.2.6l1.7.3h2c1-.2 2-.7 3-.8.5-.1 1 0 1.4.1l1 .3.3.1.3.1c1.1.4 2.2.6 3.4.5 1.1 0 2.1-.3 3.1-.7 1.2-.3 2.3-.6 3.5-.4 1.1.2 2.2.5 3.4.6.6.1 1.2.2 1.8.1l1.8-.3 1.6-.3 1.9.1c1.1.2 2.2.3 3.4.2 1.1 0 2.2-.4 3.4-.5 1.1 0 2 .2 3.1.6 1.2.3 2.4.5 3.6.5 2.3 0 4.4-1.4 6.7-1 1.2.1 2.3.5 3.4.7 1.2.2 2.3.2 3.5 0 1.1 0 2.2-.4 3.3-.5 1.1-.2 2.2 0 3.3 0 1.2.2 2.4.5 3.6.5.2 0 1.6-.1 1.5-.3 0-.2-1.3 0-1.6 0-1.2 0-2.4-.6-3.6-1a9.3 9.3 0 0 0-3.7-.3Zm-50.8.8Zm9.3 0Zm-16 .1Zm3.7 0Zm26.6 0Zm-20.6.4Zm45.6-.8Z" fill="#333"/><path d="M501.5 138c-.7 0-1.3.4-1.9.6a15.2 15.2 0 0 1-6.1.3c-.1 0-.6-.2-.7 0-.3.1.1.2.3.3.7.2 1.5.3 2.2.3 1.3.2 2.7.2 4 0l2-.6c.8 0 1.6 0 2.3.2 1.4.3 2.8.5 4.2.2 1.4-.3 2.6-.7 4-.3 1.4.3 2.6 1 4 1.3 1.3.2 2.6 0 3.8-.4 1.3-.6 2.5-1.1 4-.7 1.3.5 2.4 1.3 3.9 1.2.7 0 1.4-.2 2.1-.4.6-.2 1.2-.5 1.9-.5.6 0 1.2.3 1.8.6.7.4 1.4.8 2.2 1 1.4.5 2.6.3 4-.1 1.2-.4 2.6-1.2 4-1 1.3.2 2.6.9 4 1 1.6.3 3.2-.1 4.8-.4 1.6-.2 3 .1 4.7.3 1.6.2 3.2.1 4.8 0h1c.3-.3-.5-.2-.6-.2h-2.5c-1 0-2 0-2.9-.4-.7-.3-1.4-.6-2.2-.7-2-.2-3.6.3-5.4.7a7 7 0 0 1-2.5.1c-.9-.1-1.7-.5-2.6-.8-.9-.2-1.7-.3-2.6 0-1 .1-1.9.4-2.8.7-1 .2-1.8.4-2.7.3-1-.2-1.8-.5-2.6-.9s-1.6-1-2.5-1c-.9.1-1.7.4-2.5.6-1 .2-1.7.2-2.6 0l-2.6-.5c-.9-.2-1.7-.1-2.6 0-.8.3-1.6.6-2.4.7-1 0-2 0-3-.3-.4 0-.9-.3-1.4-.4l-1.5-.1c-1-.1-2-.2-3.2 0l-2.8.2a6 6 0 0 1-2.3-.5c-.8-.2-1.6-.6-2.5-.4Zm30.7 1.6Zm12.4.7Zm1.5 0Zm3 0Zm-42.9-1.4Zm135.2 7.4c0 .2 1.8 1 2 1a4 4 0 0 0 2.4.5c1.6-.2 3.1-.8 4.8-.3l2.3 1c.8.3 1.9.4 2.8.4 1 0 1.8-.3 2.8-.4a7.3 7.3 0 0 1 2.6.3c2.2.7 4.8 1.4 7.2 1.2a10 10 0 0 1 3.6.1l3.5 1.1c1 .3 2.1.7 3.2.7.3 0 .4 0 0 0l-.9-.2-1.8-.5-3-1.2c-1.1-.5-2.3-.8-3.4-.9a23 23 0 0 0-3.7.3c-1 0-2.3 0-3-.4l-2.1-.7a9.8 9.8 0 0 0-4.4-.2h-2.5c-1.5 0-2.7-.9-4.1-1.1-1.5-.3-3 .3-4.4.3-.7 0-1.5-.1-2.2-.4-.1-.1-1.5-1-1.7-.6Zm3.8 1Zm19.7 2.1Z" fill="#333"/><path d="M607.4 143c-.8 0-1.5.3-2.3.5-.8.2-1.6.3-2.5.1l-1-.2c-.3 0-.6.1-.4.4.4.5 1.5.6 2 .6a6 6 0 0 0 2-.4c.8-.3 1.5-.7 2.4-.7 1.5 0 2.9.9 4.3 1.3 1.8.5 3.7.2 5.5-.3h1.1l1.2.1 2.7 1.1c1 .4 2 .5 3 .4.9-.2 1.8-.5 2.8-.6a6 6 0 0 1 2.7.5c1.7.6 3.4 1.7 5.3 1 .8-.2 1.7-.8 2.6-.8 1 0 1.8.3 2.7.6l1.4.5c.4.2.8.4 1.3.4.1 0 .4 0 .2-.1l-.6-.2-1.5-.6c-.4-.1-.8-.5-1.2-.7l-1.6-.5c-1.2-.2-2.2.2-3.3.7-2.2 1-4.3-.5-6.3-1l-.3-.1-.5-.2h-1c-1 0-1.7 0-2.5.2h-2.4l-2-.3c-.8-.3-1.5-.7-2.4-.9-.9-.2-1.8 0-2.7.1a12.3 12.3 0 0 1-4.1 0l-.4-.1h-.2a11 11 0 0 0-4-.9Zm11 1.2Zm23.8 2.4Zm.1.3Zm1.5.3Zm-32.4-3.5Z" fill="#333"/><path d="M574.8 140.8h-.8c.3 0-.3.2-.3.2l-.5.1-1 .3a9 9 0 0 1-2 .5c-.2 0-.3 0 0 0h1c.8 0 1.6 0 2.3-.2 1.5-.3 2.8-.5 4.3 0 1.2.4 2.7.9 4 .9 1 0 2.2-.2 3.3-.4 1-.2 2-.1 3 .2h-.1c1.6.4 3.3.8 5 .7 1.7-.2 3.3-.6 4.9-.1l2.6.7c.8.2 1.6.2 2.5.3.2 0 1 .3 1.1 0 .1-.5-.5-.4-.8-.5-.7 0-1.7-.3-2.2-.4h-.1c-1.4-.4-2.9-.9-4.4-.8-1.5 0-3.3.6-4.7.5-1 0-2-.3-2.9-.6-.9-.4-1.8-.8-2.8-.9-1 0-1.9.2-2.8.4l-1.4.2-.8.1h-.4a10 10 0 0 1-1.9-.3l-1.9-.7c-.7-.2-1.5-.3-2.2-.2Zm14.3 1.8Zm9.2.5Zm2.7 0Zm-12.9-.7Zm0 0Z" fill="#333"/><path d="m563.7 139.9-3.3.6c-.6 0-1.2.2-1.8.1-.2 0-1.5-.2-1.3 0 .1.3 1.1.4 1.4.4l1.8.1c1.2 0 2.3-.3 3.5-.4a8 8 0 0 1 3.2.5c1 .4 2 .8 3.2.9l1.3-.1.9-.2c.1 0 .8-.1.9-.3.1-.2-1 .1-1 .1l-1.6.2c-1.2-.1-2.3-.7-3.4-1.2a7.2 7.2 0 0 0-3.8-.7Zm116.3 18 4.5 1c1.8.2 3.5.6 5.3.9 3.5.6 7 1 10.4 2l1.8.7-4.8-.8-4.4-.8-4.7-.7-5-.7-1.1-.2c-.2 0-.9-.2-1-.1-.3.1.5.1.6.2.4 0 .9 0 1.3.2l4.7 1 9 1.6 5 .8c.3 0 1.1.3 1.3.1.4-.3 0-.5-.2-.6-.7-.5-1.7-.8-2.3-1-3.5-1-7.1-1.3-10.6-2-.8-.1-9.8-1.9-9.8-1.6Z" fill="#333"/><path d="M625.6 152.8c0 .2 5.2.8 5.8.9 2 .3 4.1.4 6.2.6 5.4.5 11.2 1.3 16.7 1.9h.7l1 .1 2 .2 3.7.6 8 1c5.2.7 10.4 1.2 15.6 2l3.9.6c.6 0 1 0 1.7.2h.8c.5 0 0 0-.3-.1l-3.8-.5-4-.7-7.5-1.1c-2.7-.3-5.3-.8-8-1-5.7-.7-11.4-1.7-17.2-2.3-1.9-.1-4.1-.5-6.1-.7-2.2-.3-4.3-.5-6.5-.6l-2.6-.3-1.3-.1h-1.2c-.2 0-.2 0 0 0l-5.3-.5c-.2 0-2.3-.4-2.3-.2Zm10 .8Zm2 .7Z" fill="#333"/><path d="M583 149.5c-.2 0-.2.2 0 .3.1.2.7.1.9.1l2 .2 5 .3c3.3.1 6.5.4 9.7.7h.6l1 .1 2.1.2 4.2.2c2.6.1 5.2.5 7.8.8l7 .6 4 .3 2.2.2 2.6.3c.9 0 1.7.1 2.5.3h.7l.7.2c.3-.2-.1-.3-.3-.3l-2.4-.4-2.5-.2c-.9 0-1.7-.2-2.5-.3-1 0-1.8-.2-2.8-.3l-5.6-.7-5.5-.4-1.4-.2-1.2-.1-1.4-.1-.6-.1h-.6c-3-.4-5.9-.5-8.8-.7l-4.2-.3c-1.3 0-2.9 0-4-.2l-3-.1-2.5-.2-1.7-.2h-1.2c-.3 0-.6-.1-.8 0Zm-73.5-3.5 4.4.3c2 .1 3.9.4 5.8.4l11 .4 10.6.5 5.4.2 5.4.2 11.1.5c1.9 0 3.7.1 5.6.3l5.5.3 2.9.2h1.2l.3-.1c0-.2-.5-.2-.7-.2l-5.6-.5c-3.7-.3-7.4-.3-11-.6a236 236 0 0 0-11.1-.5c-3.5 0-7-.4-10.6-.5h-3.6l-1.3-.1-2.6-.1-5.3-.2c-3.3-.2-6.7 0-10-.3h-5.1c-.2 0-2.2-.2-2.3-.1Zm-67.5-.1-13.8.3c-4.5.1-9 .1-13.6.4l-6.6.2c-2.2 0-4.3 0-6.5.2l-6.6.3-6.8.4-3.8.4-2 .1h-1.9c0 .2.4.1.5.1h2.8c1.2 0 2.6-.2 3.7-.1 4.1 0 8.3-.4 12.4-.5l5.8-.3h6l12.2-.6 6.3-.1 6.1-.2c4.7-.1 9.3-.4 14-.4h1.5c-.2-.2-1.1-.1-1.3-.1h-4.9l-1.6-.1H442Zm5.2 0Zm-34.5-.1c-10.6.2-21.3.4-32 .9l-4.5.2c-.8 0-1.5 0-2.3.2h-1.1c-.4.1-.3.3-.4.6l4.1-.2 4.3-.2 8.6-.4 8.5-.4 8.6-.4a95 95 0 0 1 7.5-.3h-1.3Zm-44 1.6H366l-2.4.1c-.2 0-.7-.1-.9.2-.1.4.3.4.4.4h.1l3.5-.2h1.7c.2 0 .5 0 .6-.3 0-.1-.1-.2-.3-.2Zm-5.1.1Zm0 0Zm-.4.6Zm1.5 1.5h-1.3c-.4.3-.1.5.2.5h2.9c-.1 0 .1 0 0 0 .2 0 1.2.1 1-.3 0-.2-.3-.2-.5-.2h-.6.1-1.8Zm2.3.5Zm-.4 0Zm216.1-2.4v.4c0 .3 0 .3.3.3h1.4l3.1.2 6.3.3 6 .3 6 .3c2 .1 4 .4 5.9.6h1c-.5-.2-1.1-.1-1.6-.2-1 0-1.9-.3-2.8-.4l-12-1-7-.5-3.4-.2c-1 0-2.1-.2-3.2-.1Zm-36.7-1.5 6.3.3c2.2 0 4.4.2 6.6.4 4.3.4 8.6.4 12.8.6 2.2 0 4.4.2 6.6.4.2 0 .5 0 .4-.2 0-.2-.4-.2-.5-.2-.6 0-1.2 0-1.7-.2a60 60 0 0 0-3.3-.2c-4.4-.1-8.7 0-13-.4-1.3 0-2.5-.2-3.8-.3h-3.7l-3.7-.1-1.9-.2H546s-.1 0 0 0Zm-196.2-5.8-.2 3.8c0 1.2.2 2.4.3 3.5l.3 2.8.5 2.9-.3-3V149c-.2-1.2-.2-2.6-.2-3.8l-.3-3.4v-1.4s-.1-.1-.1 0Zm-.1 4.7Zm15 59.6c-.2 0-1.3-.1-1.3.2 0 .4 1 .2 1.3.2.2 0 1.4.2 1.5-.1.2-.4-1.3-.3-1.5-.3ZM369 162c-.2 0-.3.2-.3.4l.4.1c.3 0 1 .2 1.3 0 .4 0 .2-.3 0-.4h-1.5Zm218.2 42.6c.2 0 1.3-.1 1.3.2 0 .4-1 .2-1.3.2-.2 0-1.4.2-1.5-.1-.2-.4 1.3-.3 1.5-.3ZM583 162c.1 0 .2.1.2.3l-.4.1c-.3 0-1 .2-1.3 0-.4 0-.2-.3 0-.4h1.5Z" fill="#333"/><path d="M347.2 129c-.5 0-.6.4-1 .6l-1 .3c-.6.4-.9 1.4-1.1 2.1a23.2 23.2 0 0 0-1.1 6.4v.5c-.2.2-.6.2-.8.1-.4-.3-.6-.6-1.1-.5-.3 0-.5.2-.7.4l-1.1.1h-2.6l-3 .2h-3c-1.7 0-3.4.3-5.1.4-2.1 0-4.2.2-6.3.4a235.6 235.6 0 0 1-14.9 1.2c-1.3 0-2.7.3-4 .5l-5 .5c-4.6.5-9.2.7-13.8 1l-11.8 1L248 146l-1.7.2-13.5 1.1-4.8.3-6.6.8-7.3.4-3.6.4c-1 .2-1.8.4-2.7.4l-1.1.2-.7.1h-.7c-.5.2-.8.6-1.3.6l-3 .1c-.6.1-.9.3-1.2.9l-.6 1.2-.8 2.8v1.1l-.3.4c-.4.7-.1 1.6-.1 2.3v1.5c.1.3.2.8.5 1h.2v.4l.5 2 .7 1.7c.4 1 1 1.8 2.1 2a8 8 0 0 0 2.7 0c.5 0 1.1-.2 1.6-.1l.7.1.8-.2 1.6-.1 1.8-.1 3.4-.5 8-.5 9.1-.7c6-.4 12-.8 18-1.4L266 163l5.4-.5 7.8-.6 7-.6a180.4 180.4 0 0 1 11.3-.8l3.4-.2c1.6-.1 3.3-.2 5-.5l4.1-.5 9.5-.6 4.1-.4 7.5-.7 8-.8c.5 0 3.2 0 3.2-.3.1.4 1.2-.1 1.3-.2h1.5c.2 0 .1 0 .2.2l.3 1c.5 1.4 1.1 3 1.9 4.4.5.8 1 1.9 1.8 2.5.5.3.8.2 1.2.3.6.1 1 .5 1.5.1 1.1-.7 1.4-2.1 1.6-3.3l.4-2.7V154h1l2-.1 3.2-.3c.7 0 1.5 0 2.3-.2l1.1-.1 1.8-.1 3-.2v1.5l-.2 1.6-.2 3-.4 3c-.2 1.6-.2 3.3-.2 4.9a167 167 0 0 0-.3 10v8.3l-.1 2.5v.6c-.1.2-.1.1-.4.2l-3.7.1c-1.8 0-3.5.2-5.2.3l-4 .2-9.6.8c-2.8.2-5.6.2-8.4.6l-4.6.4-2.2.3h-1.2c-.5 0-1.1.2-1.6.1l-1-.2h-.9c-.6 0-1.3 0-1.8.2l-.3.2-.4-.1h-1l-1.6.1c-.6.1-1.3.2-1.7.6-.2-.4-1-.3-1.4-.3-.7 0-1.4 0-2 .4-.3 0-.4.2-.7.3h-.8l-1.6.1-.6.1c-.1 0-.2-.3-.5-.4-.5-.2-1 0-1.5 0-.9.1-2.5 0-3 .8-.2-.5-1.4-.5-1.8-.5-.7 0-1.4.1-2 .7-.3-.5-1.7-.2-2.2-.1a2 2 0 0 0-1.2.4c-.4.2-1 .2-1.5.3l-5 .3-4.5.5-9.6 1.4-3.8.6-2 .3-.6.2c-.4 0-.8 0-1.1.3-1.4.8-1.4 2.3-1.7 3.7a19 19 0 0 0 1.4 10.8c.4.8 1 2 2.1 2 .8.2 1.7 0 2.5 0l1.3-.1c.3 0 1.4 0 1.6-.2h1l2-.3 3-.4 3.8-.5c3.8-.4 7.4-1 11.1-1.1h1l.8.3h2l1.8-.3h1.9c.7 0 1.5-.2 2.3-.4.5-.2 1-.1 1.6 0h1.3c.5 0 1.6-.2 1.4-.9h1.2l1-.2h.8l.5.2c.8.2 1.9.1 2.7 0h2.6a10 10 0 0 0 3.7-.6c.7-.3 1.3 0 2 0 .5 0 2.3-.2 2-1.1.2.2.6 0 .7 0l1.3-.2 2.4-.3c2.1-.3 4.2-.4 6.4-.5h.7l.8-.1h1l1.8-.2 3.4-.3 2.5-.2c1.9 0 3.7-.2 5.5-.4l3.6-.2 2.5-.2h1.2l.1.6c.3 1.8.3 3.7.4 5.5a166.8 166.8 0 0 1 0 24.1l-.1 1.5-.7.2c-1.6.6-3.2 1.3-4.6 2.2l-3.8 2.3a26.6 26.6 0 0 0-4.7 4c-1 1-1.7 2.2-2.5 3.4a56.8 56.8 0 0 0-6.3 14l-.2 1.1v.4l.2.1c.1.2 0 .2.2.3.2.1.6 0 .8 0h19c-.3.7-.2 1.6-.3 2.4v1.3c0 .6-.1 1.5.6 1.5h1.7l1.1-.1h1.2c.3 0 .4-.3.6-.5l.8-1 2.7-2.7c.4-.3.8-.9 1.2-1h6.8l11.4-.2c3.3 0 6.6.3 9.8-.5 1.4-.4 2.8-1 4.1-1.5l4.5-1.8c4.7-2.1 9.7-3.6 14.9-4.3 2.5-.3 5.2 0 7.8 0h10.3l14.7-.1h19l19.2-.1h34.7l3.4.1c.3.2.8.2 1.2.2a71.4 71.4 0 0 1 9.1 2.3c.4 0 4 1.4 4 1.5 1.7 1 3.7 1.6 5.6 2.3 1.9.7 3.6 1.4 5.6 1.6 2.3.3 4.7.2 7 .2h5.6l12.2.2c.5 0 1 0 1.5.2l1.3 1.2 2 2.1 1 1 .6.7h2.5c.5 0 1.2.2 1.7.1.8-.1.5-1.6.5-2.1l-.2-3c6-.2 12.2 0 18.3 0h1.1c.4 0 .3-.1.5-.4.1-.2.2-.1.2-.4v-.5a26 26 0 0 0-.4-1.4l-1.7-4.5a40.6 40.6 0 0 0-8.6-13.9c-2-1.9-4.4-3.3-6.8-4.7-1.3-.8-2.8-1.4-4.2-2l-.8-.2c-.3-.1-.3-.1-.4-.4v-.3l-.2-2.4a136.1 136.1 0 0 1 .3-24.3l.2-2.6v-1l.1-.7c.1-.2 0 0 .3-.1h1.8l5.5.4 6.9.5 6.5.5 4.6.4 4.6.7c2.5.3 5.1.7 7.7.8 2.5 0 5 .4 7.5.5 2.8.2 5.5.6 8.3 1l7.9.7 7.8.6 7.1.7 2.5.3c.3.2 1 .1 1.3.2l1.3.2c.5 0 1 0 1.6.2l3.8.3c.8.1 1.7.4 2.5.3.6 0 1.2 0 1.8-.2.5-.2 1-1 1.3-1.5.7-1.1 1.2-2.6 1.5-4 .3-1.8.5-3.6.4-5.5 0-.8-.2-1.6-.3-2.3 0-.6-.2-1.2-.4-1.7-.2-.7-.7-1.3-1.4-1.6a3 3 0 0 0-.9-.2l-.6-.1c-1.3-.3-2.7-.5-4-.6l-2.3-.4-9-1.3-7.3-.7-3.8-.4-3.6-.3c-3-.4-6.3-.3-9.4-.7l-3.4-.4c-1.3-.2-2.7-.2-4-.3-2.3-.1-4.6-.4-6.8-.6-1.4 0-2.8-.3-4.2-.4l-4.8-.4-7.8-.8-8.3-.5-7-.4-4.8-.3-2.3-.1-1.4-.1h-.8c-.3-.1-.2 0-.3-.3l-.1-3.8v-6.6l-.1-7.4c-.1-3-.1-6-.5-9l-.4-3v-.7l-.1-1.9-.2-2.1h-.4c-.2.1-.1 0-.2.3v.1l.1 1 .2 3v.6l.5 4 .4 5.8.3 10.7c0 3.1.2 6.2.3 9.2l-1.6-.1h-1.9v-18.3c0-2.4 0-4.7-.2-7l-.7-8.9h-.6v.6l.1 1.1v1.4c.2 1.2.4 2.4.4 3.6l.3 6 .1 4.4v3.4l.2 6v7.6h-1.1l-1.2-.1c-.2 0-.1 0-.2-.2v-.2l-.1-3c-.2-2.8-.3-5.7-.3-8.5l-.2-7.8V164l-.1-3.7-.2-6c-.2.1-.5.2-.7.1 0 4.5.3 9 .4 13.5 0 4.2.3 8.3.5 12.5 0 2.5.2 5 .4 7.6-1.8-.3-3.6-.3-5.4-.4a623 623 0 0 1-4.7-.4c-3.4-.3-6.7 0-10-.3-1.6 0-3.2-.2-4.7-.1h.1c-1-.2-2.1 0-3.2 0l-4.4-.2-8.6-.2h-3.3l-4-.4-8.2-.1c-4.8-.1-9.5-.4-14.2-.4l-8.5-.3-9.1-.2h-28.3c-4.5.2-8.9.4-13.4.4-1.7 0-3.5.2-5.3.1h-6.5c-3 0-5.8.4-8.7.5l-9.4.2-3.1.2h-2.9c-2.5-.2-5 .2-7.5.4l-4.6.2-5.3.2-6 .3c-3.2.3-6.5.3-9.8.4l-5.1.3.4-6.8c0-2.6.2-5 .3-7.6l.4-12V158l.2-2.3v-2.9c0-.3 0-.3.2-.3.2-.1.5 0 .8 0l1.2-.2 6-.3 6.6-.4c2 0 4-.3 6-.4l4.5-.3 4.5-.3c-.2 0 .2.3.2.3h.5l.6-.1h2.6l3.9-.3 8.7-.3 7-.1c2.8-.1 5.9-.1 8.7-.4h2.1l2.7-.2h2.6l.5.2h4.4l3.9-.1 5.3-.4 5.3-.2 10 .2h7.2l7.8.3 8.8.3h17.8c2.4 0 5 0 7.4.2 4.6.1 9 .3 13.6.2 6 0 11.9.5 17.8.5 2.6 0 5.2.5 7.8.6l10 .6 4.5.2v1.5h.5c.2-.1.1 0 .2-.3v-1.2l.3.1h.7l-.1 1.2h.3c.2 0 .2-.1.2-.3v-.7a37.5 37.5 0 0 1 .4-3.2v.3l.1 1c0 1 .2 1.8.3 2.7h.6v-.4l-.2-1.2-.1-1.8-.4-2.6h2l1 .1v.9l.4 4.6h.3c.2 0 .3 0 .2-.2v-.2h1c.7.1 1.2-.2 2-.5 1.4-.7 3-1 4.6-1.4a43.7 43.7 0 0 1 10.1-1l1.4-.1h1.3l.8-.1h1.3c-1-.8-2.2-1.5-3-2.5-.3-.5-.7-1-.7-1.7 0-.3 0-.6.2-.8.2-.4.4-.3.2-.7-.3-.7-.5-1.3-1-1.7-.5-.6-1-1.1-1.8-1.2a121.7 121.7 0 0 0-14.1-1.5l-8.7-.4-6-.4-2.1-.1-3.9-.3c-2.3-.2-4.7-.1-7-.2l-9.1-.4c-3.1 0-6.3 0-9.4-.2l-5-.2-5-.2c-3.2 0-6.5-.1-9.7-.3l-8.5-.2-5.6-.2H492l-5-.2-4.1.1-6.4-.2h-5.3c-4 0-8.2-.2-12.3 0l-9.2.2-5.7.1-5.2.1-2.3.1h-6.9l-8.2.2-6.3.2h-5.4l-4.6.2-4.8.2c-3.6 0-7.1.3-10.7.3l-4.7.1c-2.2 0-4.4.3-6.6.4l-4.7.1-3 .1c-1 0-1.9.2-2.9.3-2 .1-3.9.1-5.8.4 0-.4-1.7-.1-1.8-.1l-1.8.1-1.2.1-1.6.2-2.6.2-1-.1-.2-1.2-.2-.6-1.4-4-1-2.5c-.5-.8-1-1.9-2-1.9Zm-6.6 10.3c.2 0 .1-.2.2-.3l.4-.2c.3 0 .6 0 .8.3-1.1-.1-1.2 2-1.2 2.7-.2 1-.1 2.2-.1 3.3a36.5 36.5 0 0 0 1.6 9.4c.2.6.5 1.6 1.2 1.8-.3 0-.5.2-.8.1-.3 0-.4-.2-.5-.4a18.2 18.2 0 0 1-1.5-5 45.4 45.4 0 0 1-.7-9.8c0-.4.2-1.8.6-1.9Zm20.2-.3h1c-.3 0-.2.3-.2.4l.2.1v1.2a49.4 49.4 0 0 1 .2 3.7l.3 5 .1 1.9v1s.1.1 0 .2v.6a110.5 110.5 0 0 1-10.5.8c-.5 0-1 .2-1.4.1-.4 0-.5-.5-.6-.8a17 17 0 0 1-.7-3.7c-.1-1.5-.4-2.9-.4-4.3V141c0-.5 0-1.5.5-1.6l.5.2h2.4l8.6-.7Zm8.8 8.5c.9 0 1.8-.3 2.8-.2-.3 1.1-.4 2.4-.5 3.6 0 1.4-.3 2.9-.4 4.3-.2 2.5-.3 5-.6 7.4-.3 2.6-.2 5.2-.2 7.9v17.8l-3.5.2.1-2.4.1-2.8.1-4.7a886.8 886.8 0 0 1 .7-16.2c.2-2.2.5-4.3.6-6.5l.3-4.4c.1-1.4.1-2.7.3-4h.2Zm2.6 6.4.5-4.7c0 1.2.3 2.4.4 3.6 0 .2 0 1.5.4 1.2.3-.2 0-1.1 0-1.4h1v2.6l-.2 3.8-.1 6v7.2l-.3 7.7-.3 8.3H371v-7.7c0-2.4.3-4.8.2-7.1l.1-6.7c0-2.2.1-4.3.3-6.5 0-1.3.3-2.5.3-3.7l.2-2.6Zm-169.2 3v-1.6c0-.7.2-1.3.3-1.9.3-1.2 1-3.4 2.6-3.3-.4.2-.8.9-1 1.3a6 6 0 0 0-.6 1.3l-.4 2.4-.1 1.4v.4h-.8Zm-3.6.1c-.3 0-.6-.1-.6-.3v-1l.6-2.4c.2-.7.6-2 1.3-2.3.4-.2 1.2-.2 1.7-.3h1.8l-.5.6c-.4.6-.6 1.3-.7 2l-.3 2.4v1.3h-.2c.1-.6-.5-1.2-1-1.1-.6 0-.9.5-1 1-.2.2-.1.3-.4.3l-.7-.2Zm2.2 4.4c-1-.2-1-2-1-2.8v-1.4l.3-.7c.3-.5.7-.4 1.1-.2l.2.3.2.5h-.3l-.4-.4c-.3 0-.5.2-.6.4-.2.4-.2 1.1-.3 1.6 0 .5 0 1 .2 1.5 0 .3.2 1 .7.9.3 0 .3-.3.5-.4h.3v.3c-.2.4-.5.5-1 .4Zm-.2-4.3c.1-.2.4-.3.5 0h-.5Zm3.5 0c.7 0 3.4-.6 3.7.5.1.4-.1 1.3-.4 1.6-.2.3-.7.4-1 .4l-1.2.2c-1.2.2-2.3.5-3.5.6h-1.2c-.2 0-.2-.6-.2-.8a4 4 0 0 1 .1-2c.2-.4 1.1-.3 1.6-.3l2-.1Zm-6.4 0 .8.2 1 .3v1.4c0 .5 0 1.3.3 1.7l-1.1.5c-.7.4-.8.2-1-.6v-3.5Zm8.4 10.5c-1.2-.3-1.9-1.5-2.4-2.5s-.9-1.9-1-3v-.6c-.1-.3 0-.7-.2-1l1-.1c0 1.3.1 2.5.5 3.7.5 1.4 1.2 3.1 3 3.5h-1Zm-3.9-7 .2 1.5.5 2c.5 1.2 1.2 2.7 2.4 3.4-1.8 0-4 1-5.3-.8 0-.3-.4-.6-.5-1l-.8-1.8c-.2-.7-.5-1.4-.5-2.1l.7-.4 1-.4c0 .4.6.7 1 .7.6 0 1.2-.5 1-1.1h.3Zm-1.5.1h.5s-.1.2-.3.2c0 0-.3-.1-.2-.2Zm46.6 3h.3-.3ZM674.7 197l-1.3-.2 1.6.2h-.3ZM272 213.2c-1-.2-1.6-1.6-2-2.5a18.7 18.7 0 0 1-1.1-9.9c.2-1 .5-2.3 1.6-2.6-.3.5-.3 1.2-.4 1.7a19 19 0 0 0 .8 10.3c0 .5.2.8.4 1.2l.7 1.8Zm314.7-13 1 .1c.2.1.2.6.3.8l.3 1c.2 1 .6 2 .4 3 0 1.2-.3 2.2-.4 3.3l-.3 3.3c-.3 4.7-.6 9.4-.5 14 .1 5.2.8 10.3 1.2 15.4l.7 5.6.4 4.5.4 4.5c.2 4.1.7 8.3 1 12.4l.1 1.9h-1.6l-1 .1c-.3 0-1 .2-1.3 0 .4.2.2-.7.2-.8l-.1-1-.2-2.5c0-1.5-.2-2.9-.3-4.3l-.5-9.5-.5-6.5c0-1-.2-2-.3-2.9 0-1.3 0-2.7-.2-4-.1-1.7-.5-3.4-.6-5l-.1-5.3.2-12.1c0-2.1 0-4.2.3-6.3.2-2.2.4-4.5-.3-6.7-.2-.7-.4-1.6-.8-2.3 0-.1-.3-.5-.4-.2l.2.5a14.5 14.5 0 0 1 1.1 5.8l-.1 2.3-.5 6.1c0 2.4-.2 4.7-.3 7 0 2.2-.4 4.3-.3 6.4 0 2.2.4 4.4.5 6.7l.2 2.4c.2 1.4.2 2.9.3 4.3l.6 7.5.5 6.9.9 9.2.2 2.2.1 1c0 .3 0 .8.2 1l-3.9-3.9-.6-.6-.4-.3c-.2-.3 0-1 0-1.2l.1-3.5c.2-4.2.1-8.5 0-12.8v-11.3c-.1-.3-.6-.3-.9-.3l-.6-.2-1.5-.2v-1.5l.2-1.7.2-3.8v-7.3l-.2-9-.1-4-.2-2.5c0-.1 0-1-.3-.4v1l.2 6.8v14.9l-.3 5.7v1.9h-.6a37.7 37.7 0 0 0-9.1 2.5l-1.6.7c-1.9.6-3.7 1.5-5.5 2.4-2.5 1.1-4.9 2.5-7.5 3.2l-4.9 1c-2.8.2-5.7.7-8.6.8l-7.8-.1c-2.4 0-4.9-.2-7.3-.4-2.8-.3-5.6-1.2-8.4-1.8l-6.5-1.4c-2-.4-3.8-1-5.7-1.5l-4.3-1a92 92 0 0 0-20.7-3.2 90.2 90.2 0 0 0-21.2 1.3c-2.8.4-5.5 1.1-8.3 1.8l-8.3 2.2-8.4 1.9c-2.7.6-5.3 1.3-8 1.7a27 27 0 0 1-4 .3l-3.3.2c-3.2.1-6.3.2-9.4 0-1.6 0-3.2-.3-4.7-.4-2-.2-4.1-.4-6.1-.9-1.2-.3-2.4-.5-3.5-1a45 45 0 0 1-4.3-1.8c-2.2-1.2-4.4-2.1-6.7-3.1-2.5-1-5-2.2-7.6-2.8-1.3-.2-2.6-.5-4-.6l-.2-4.7-.2-6.1.1-12.7.2-6.3c0-.2 0-.9-.3-.4-.2.2 0 .8 0 1l-.1.8-.2 3.2-.2 11.5v7.6l.4 6.2c-.6-.1-1.2 0-1.7.2l-.7.1h-.3c-.4.2-.3.4-.3.8v11.6l-.1 6.4c0 3 0 6 .2 9.1v1.3l-.5.4-1.8 1.7-2.6 2.6c.2-.1.1-.8.2-1l.2-2 .4-3.7c.3-2.3.4-4.7.6-7.1l.4-5.3.4-5 .3-3.4c0-1.2 0-2.3.2-3.5 0-1.6.2-3.3.4-5 .2-2.3.5-4.6.4-7l-.3-4c-.3-3.6-.2-7-.6-10.6 0-1.4-.2-2.7-.3-4.1 0-1.5-.1-3 .3-4.5.2-.9.4-1.8.8-2.7 0-.1.4-.6 0-.5-.2.1-.4.7-.4.9a13 13 0 0 0-1 4.1v2.7l.2 2.9.2 6 .2 10.7v3.6l-.4 4.7-.2 1.2c-.4 1.9-.3 3.9-.4 5.8a215 215 0 0 1-.5 6.3c-.2 1.6-.2 3.3-.3 4.9l-.5 7.8-.2 3.6a39.7 39.7 0 0 1-.3 3.5c0 .2-.2.9.1.8-.2.2-1 0-1.3 0h-.6l-2-.1c.3-3.1.5-6.2.9-9.2l.3-4.4.4-5.2c.3-1.7.4-3.4.5-5l.3-3c.4-3.2.8-6.3 1-9.5.6-6.2.6-12.4.2-18.7l-.4-5-.4-4.2c-.1-.7-.2-1.4 0-2.1l.2-1.1.4-1.5.3-.8c.3-.2.9 0 1.1 0h2.5c.3 0 .3 0 .4.3l.1.5.6 2.7c.2 1.3.5 2.6.6 4 0 .2 0 .4.3.4.4 0 .3-1 .4-1.2V206l.2-.5h.7l1.5-.2h2.6l2-.1c2.3 0 4.5-.3 6.7-.4 4.8-.3 9.6-.8 14.4-.9l7.2-.2h5.4l12.5-.2 4-.3h10.8s1.2.2.9-.1l3.4-.1h5l8-.2 3.5-.1h9.6c2.5 0 5 0 7.5-.2h7.3l5.1.1h3l4.2.1c5 .1 10.1 0 15.2.2h1.9v.2h.5a16.4 16.4 0 0 1 2.9 0h3.1c2.6 0 5 0 7.6.2l5.8.2 7.8.3 3.6.1c1.3 0 2.6.2 4 .1l6 .2c2 0 3.8 0 5.7.2l7.7.3c4 .3 8 .3 12 .5l1.6.2h.5v.4l.1 1.3c0 .3 0 .9.2 1 .3.2.4 0 .5-.2v-1l.2-1 .3-1.3.4-2.3c.1-.4.2-1.7.5-2h2.9Zm-52.6 2.6-2.4-.1h4.7-2.3Zm-116.6 0h2.7-4.9 2.2Zm174.5 62h-.4.4Z" fill="#333"/><path d="M368 236.8c-.3 2.3-.6 4.6-.7 6.9a254 254 0 0 1-.5 8l-.1 1.4-.2 2.8-.1 2.8-.4 2.8-.3 2.8v1.4c-.1.4-.3 1-.2 1.4 0 .3.3.6.7.5.4 0 .5-.4.5-.8l.1-1.3v-.7l.1-.4v-.4l.5-5v-5.7l.3-5.7.1-5.5a481.3 481.3 0 0 1 .4-4.8v-.6s-.2-.2-.2 0Zm-.9 10.7Zm1.2-8.9c.2 1.4.2 2.8.1 4.2 0 1.4 0 3-.2 4.4v.2l-.4 6v6.2-.1.3s0-.1 0 0c0-.1 0-.3 0 0l-.1.5v2.6l-.2 1.7c0 .4 0 1 .5 1 1 .2.7-1.5.7-2v-8.4l.1-5.9v-5.7a51.3 51.3 0 0 0-.2-4.3l-.1-.7s-.2-.2-.2 0Zm-.6 21.2Zm1 .7v.3-.3Zm-1-.8Zm0-.1Zm0 0Zm0 0s0-.2 0 0Zm-.3-55.2c-.2 1-.2 2 0 3l.1 3 .4 5.8.1 3.2.3 3.2v10.9s-.1 1.2.2 1v-1.4l.2-1.3v-3.2l.1-6.3v-2.7c-.2-1-.1-2-.1-3a75 75 0 0 0-.3-6.7l-.2-3.2c0-.5-.3-1-.4-1.6 0-.1 0-.5-.2-.7 0 0-.2-.2-.2 0Zm5.4-49.2c-.4 1.9-.5 3.8-.6 5.7l-.3 6.2v19.6s0 1 .2.8c.2 0 0-1 0-1l.1-5 .1-5 .2-5 .1-3.6v-1.3l.1-1.6.2-3.2.1-6.3v-.3h-.2Zm-.2 12.8c0-.1 0 .1 0 0Zm-.7-.8s0 .1 0 0Zm0 0Zm211.8 68.7c-.2 0 .2 1.8.2 2v1.1c0 2 .4 3.9.4 5.8v4.2l.1.7a16.3 16.3 0 0 0 0 1v2.8l.3 3 .2 6.2.1 2.8.2 1.4c0 .4 0 1 .6 1 1 .1.6-1.3.6-1.8l-.2-1.3v-.8s-.1-.8 0-.4l-.8-9.6c-.1-.8 0-1.6-.2-2.4l-.2-2.5-.3-2.6v-2.3l-.6-5.8c0-.2 0-2.6-.4-2.5Zm.2 3Zm.8 7.2Zm.2 15.3v.2-.2Zm.4-8.7Zm-2.2-14.7v2.1l.1 2.6v16.5l-.1 4.1c0 .6-.2 1.2-.1 1.8 0 .5.6 1 1 .6.5-.3.3-1 .3-1.5v-1.9l-.2-4v-8.4l-.1-.4-.2-3-.1-3-.3-3-.2-1.6c0-.1.1-.8 0-.8 0 0 0-.2 0 0Zm.9 11.3Zm0 2.7Zm.3 12.5Zm-1.1-5.1v-.2.2Zm0-16.7Zm0 0Zm.8-39.8v1.2l-.3.8v2.4c.2 1.5 0 3 0 4.6l-.2 4.8-.1 4.6a63.8 63.8 0 0 0 0 9.1l.1 1.2v1.3c.3.2.2-.7.2-.8v-8.4l.2-2.4c.3-1.7.2-3.5.3-5.2l.2-2.5a20.3 20.3 0 0 1 .1-4v-1l.2-2.2c0-.7.2-1.4 0-2l-.4-1-.1-.5s-.2-.2-.2 0Zm-.6 18.8Zm0-.4Zm-4.4-66.8c-.3 0 0 2.8 0 3.2l.2 3.2c0 2.2.2 4.3 0 6.4v3.3l.1 3.1.3 6.6c.1 2.2.1 4.5.3 6.7 0 .2 0 .5.2.4.2 0 .1-.4 0-.6v-17.5a82 82 0 0 0-.3-7c-.1-2.4 0-4.8-.5-7 0-.1 0-.8-.3-.8Zm.3.8ZM361.7 152c-2 .1-3.8.3-5.7.2h-2.8c-.5 0-2-.2-2.2.5-.3 1 1.3.5 1.7.4h2.6l2.7-.1.8-.1s.2 0 0 0l2.4-.2c.3 0 .6 0 .8-.2 0-.2-.1-.5-.3-.5Zm-9 1.1c-.1 0-.1 0 0 0Zm7.5-2.3-5.8.1h-2.7c-.3 0-.7 0-.8.4-.1.5.4.5.7.5 2 .1 3.8-.2 5.6-.4l3-.3c.3 0 1.3.1 1.3-.1 0-.3-1.1-.2-1.3-.2Zm-6.9-1.2h-2c-.2.2-.4.5-.3.7.2.4.5.4.8.4.8 0 1.6-.3 2.4-.4l2.4-.2h2.3c.1 0 1 0 .7-.2-.1-.2-1-.1-1.2-.1l-5-.2Zm-1.9-1.2c-.3 0-.7 0-.8.3-.1.4.3.6.6.5l1.2-.2h1.2c.2 0 1.1.1 1.1-.2 0-.3-1-.2-1.1-.2-.8 0-1.5-.3-2.2-.2Zm12.4 111.4-.2 1.8c0 .9-.2 1.7-.3 2.6l-.1 1.4-.4 2-.1 2c0 .2-.3 1.3.3 1 .4-.1.3-1.3.3-1.7l.1-4v-.7l.5-3.9v-.6h-.1Zm-.5 5Zm-.6 4.6Zm-.4-6.2-.3 3-.1 1-.5 2.6c0 .1-.2.2-.1.4 0 .2.3.4.5.2.3-.1.2-1 .3-1.3l.1-3.2c0-.6 0-1.1.2-1.7 0-.2.2-.8 0-1 0 0 0-.1 0 0Zm0 1.7Zm-.3 4.7Zm0-3.6Zm225.5-7.6c-.2 0 0 1.3.1 1.5.2.8.2 1.8.3 2.6l.2 3v3l.1 1.2c0 .2 0 1 .4.8.3-.2.1-.8.1-1V268l-.3-3c-.2-1.8-.3-3.7-.7-5.6 0-.1 0-1.1-.2-1Zm.1 1.4Zm1.4 1.4c-.2 0 0 .9 0 1l.2 1.3.2 2.7.1 2.5c0 .3-.2 2 .5 1.8.6-.2.1-1.7 0-2.1l-.3-2.4c0-.4-.5-4.8-.7-4.8Zm-223.6-56.4c-.3.2 0 1.5.1 1.8l.2 2 .2 1.1v2.2c.3 0 .2-.5.2-.7v-1l-.2-2.4v-2c0-.1 0-1.3-.5-1Zm.4 4.4ZM364 205v.2c0 .6.3 1.4.4 2v1.4c.2 0 .2-1.3.2-1.5l-.1-1.4v-.7c-.2-.1-.4-.3-.5 0Zm222.2-.2c-.3.1-.2 1.2-.2 1.5l-.1 2v2c0 .2-.2.7-.1 1l.1-.3.1-1.9.2-1.8c0-.6 0-1.2.2-1.8 0-.1.3-.9-.2-.7Zm.1 1Zm.9-1c-.2.2-.2.7-.2 1v1.3c0 .1-.1 1 .1.8.2 0 .1-1.2.1-1.4l.2-1 .2-.5c0-.1-.2-.3-.4-.2Zm0 1.8Zm27.3-56.6c0 .3 5.6.8 6.2.8l3.6.2c1.2.1 2.4.4 3.5.4 1.8 0 3.6.3 5.3.5l5.7.5 11.4 1.4 5.4.6c1.8.3 3.6.7 5.4.8l5.5.8 5.8.7a38.2 38.2 0 0 0 4.1.6c.2 0 1.1.2.8-.1l-.7-.1h-.7l-1.3-.2-2.9-.5c-1.8-.4-3.7-.6-5.6-.8l-5.6-.8-5-.8-5.5-.6c-3.8-.4-7.5-1-11.3-1.3-3.8-.3-7.5-1-11.3-1.2a764 764 0 0 1-10.8-.8c-.2 0-2-.4-2-.1Zm13.4 1.4ZM208.1 158v.4c-.3.9-1.8.7-2.5.8-1 .1-2 .4-3 .4-.3 0-1.3-.2-1.3.3-.1.6 1.3.3 1.6.3.7 0 1.4-.2 2.1-.4l2.2-.5c.2 0 .7-.2.9-.5l.2-.7s0-.4-.2-.2Zm-4.4 2.3c-.3.2 0 1.2 0 1.4l.4 1.6.4 1c.2.7 0 0 0-.2-.3-.7-.4-1.5-.5-2.3 0-.2.2-1.7-.3-1.5Zm.3 1.4Zm0 1.5c.1 0 .1 0 0 0Zm-1.5-2.6c-.2.2 0 .6 0 .8 0 .6.3 1.3.5 2l.1.3.3.7c.2 0 0-.1 0-.2a13.1 13.1 0 0 1-.7-3c0-.1 0-.8-.2-.6Zm0 .8Zm-.8.3c0 .2 0 .5.2.6 0 .2.3 1.7.6 1.6l-.4-1.6s-.2-1-.4-.6Zm-.9-.7c-.1.4.1 1 .2 1.4 0 .1.3 1.1.4.9.2-.2-.2-1.2-.2-1.4l-.1-.7s-.3-.5-.3-.2Zm-.8 0a11.9 11.9 0 0 0 .4 2v-1c0-.2 0-1.1-.3-1Zm-.7.5v.3c0 .3.3 1 .3.4 0-.1-.1-.8-.3-.7Z" fill="#333"/><path d="M202.2 160h-1.1c-.3.2.2.2.3.2h.4l.5-.1v-.1Z" fill="#333"/><path d="M201.9 160.1c-.1 0-1 0-.7.2h.7v-.2Z" fill="#333"/><path d="M201.4 159.6c-.5 0-.6.6 0 .6.3 0 .6 0 .6-.3 0-.2.1 0 0-.2h-.6Zm.4 1c-.3 0-.7.2-.2.3l.4-.1c0-.2 0-.3-.2-.2Zm0 0Zm-1.4-.3a6 6 0 0 0-1.2.6s-.4.2-.3.3c.1.1.6-.2.8-.3l.7-.3c.1-.1.3-.4 0-.3Zm-.1-.3c-.2 0-.6 0-.7.2-.2.2 0 .2.3 0l.5-.1-.1-.2Zm2 .5v.2l-.2.4-.4.2c.3.2.6-.3.7-.5v-.3Zm3-1.6-3 .1c-.3 0-1-.2-1.3 0-.2.2 0 .4.2.4l.7-.1c.6 0 1.3 0 2-.2h.9l.5-.1v-.1Zm-2.5.4Zm399.9-14.5c-.5.3.1.9.3 1.2l1.1 1.2a5 5 0 0 0 2.5 1.7l2 .3 1.1.1c.5.1.4 0 0 0-1.3-.2-2.7-.3-3.7-.9a4.8 4.8 0 0 1-2-2c-.4-.3-.8-.8-.9-1.2v-.3s.1 0 0-.1c0-.1-.3-.1-.4 0Zm-1.3-3.6.5.6.6.8c.3.5.9.5 1.5.6l1.7-.2c.4 0 .3 0 0 0h-1c-.8 0-1.4-.2-2-.8 0-.2-1.2-1.2-1.3-1Zm1.8 1.5s.2 0 0 0Zm-1.2 6.8-4.8.6 1.3-.1h1.5l1.5-.2a20 20 0 0 1 3.6 0l1 .2h.6c0-.2-.7-.1-.9-.2h-.8c-1-.1-2-.4-3-.3Zm-.2 0Zm0 0Zm.2 0Zm-9.8 1.3h-.5c-.7 0-1.5.2-2.3.4-.1 0-1.2.3-1.2.5 0 .1.1 0 .2 0l.5-.1a17 17 0 0 1 4.4-.5l5 .3c0-.2-5.5-.6-6.1-.6Z" fill="#333"/><path d="M326.3 191.7c-.1.4-.4.8-.6 1-.9 1.1-.9 3.2-.7 4.5.1 1 .4 1.8.8 2.6l.4 1.2c0 .2.2 1.1.4 1 .1-.2-.2-1.2-.3-1.4l-.4-1.2c-.4-1-.3-1.7-.3-2.7v-2.5c0-.8.4-1.4.7-2v-.5Zm-.7 2.3Zm-.6 3.2c0-.1 0 0 0 0Zm0 0Zm0 0v-.1Zm1.3 5c-.6 0-1 .8-1 1.3.2.6 1.2.5 1.6.5.4 0 .6-.1.8-.5 0-.3 0-.5-.3-.7-.2 0-.4 0-.5-.2-.2-.2-.4-.4-.6-.4Zm.1.5c.2 0 .4.2.5.3l.4.1c.3.4 0 .7-.3.7-.2 0-1.1-.1-1.2-.3 0-.2.5-.7.6-.8Zm-.6.8Zm1.2.3Zm-.8-.2Zm0 0Z" fill="#fff"/><path d="M325.2 196.7c0 .4.6.8.8 1l.5 1.2c.2.9.1 2-.1 3-.1 0-.5.7-.3.7.3 0 .6-1 .7-1.2a7 7 0 0 0 0-2.4 4 4 0 0 0-.5-1.8c-.2-.1-.9-1.1-1-.5Zm1.2 4.7Zm-.1.6Zm.5-1Zm0-2Z" fill="#fff"/><path d="M325.5 194c-.4 0-.3.4 0 .5.1.2.5.2.8.3 1.6.7 2 2.9 1.8 4.4 0 .9-.4 1.7-.5 2.6 0 .3-.4 1.1-.2 1.4.1.2.2-.4.2-.4.2-1.9 1-3.7.8-5.6-.1-1-.3-1.7-1-2.3-.4-.4-1.4-1.1-2-1Zm.7.8Zm2 3Zm-1.3 6.1c-.2.4.2 1.2.2 1.7l.2 1.3.1.5v.6c-.2 0-.3-.4-.5-.5-.3 0-.4.2-.6.3h-.7c-.1 0-.3-.2-.5-.1-.2 0-.3.3-.6.3-.1-.4.3-1 .4-1.4l.7-2 .2-.8c-.1-.2-.2 0-.2.1l-.5 1.9-.8 1.8c-.2.6 0 1 .6.5l.3-.2.4.1h.8c.1 0 .2-.4.4-.3.3 0 .3.7.7.5.3-.2 0-1.3 0-1.6l-.1-1.8v-.8c0-.2-.4-.6-.5-.2Zm-2 2.6Zm2 1.2Zm0 0Zm0 0Zm-1.7.2Zm-.5 0Zm-.2.1Zm2.9 0Zm-3 0Z" fill="#fff"/><path d="M327.2 203.7c-.2.1 1 4.1 1.1 4.6v.3l-.4.4.5-.3c.2-.1.2-.4.2-.6 0-.5-.2-1-.4-1.4l-.6-1.7c0-.2-.2-1.3-.4-1.3Zm-2.3-3.9c-.5 0-.8.4-1.3.5-.5.2-1.1 0-1.7 0-1 0-2.1.8-3 1-.6.2-1 0-1.5-.2s-1.1 0-1.5 0c-.3.2-.5.3-.8.3h-1c-.6.2.2.4.5.5 1 0 1.8-.5 2.8-.2 1.3.3 2.3-.5 3.5-.8.8-.2 1.6.2 2.4 0 .3 0 .6-.2.8-.4l.6-.5h.8c.1.1.4.3.5.2.1-.2-1-.4-1.1-.4Zm-4 1Zm0 0c0 .1 0 .1 0 0Zm-5 1Zm2.8-.1s.1 0 0 0Zm3.4-1.4s.1 0 0 0Zm0 0Z" fill="#fff"/><path d="M309.3 198.1c-.8 0-1.1.5-1.5 1.2-.3.5-1 .9-1.3 1.4-.6.7 0 1 .7 1.4l1.8 1 1 .5c.3.2.8.5 1.2.4.8-.2 1.2-1 1.8-1.4l1.5-1.1c.8-.5.2-1.1-.3-1.4l-2.7-1.2c-.7-.3-1.5-.8-2.2-.8Zm.3.4c1.1 0 2.4.7 3.4 1.2.4.2 1 .4 1.3.8.3.3.2.4-.2.6l-1.2 1c-.4.3-.7.9-1.2 1.2-1 .9-2.4-.3-3.4-.9l-1.6-.8c-.6-.5.3-1 .6-1.2.5-.2.8-.5 1-1 .3-.5.7-.9 1.3-.9Zm-1.4 4.1Zm4.7 0Z" fill="#fff"/><path d="m303.5 199-.6.1-1.1.6h-1c-.8.4.4 1.7.6 2 .5.5 1.2 1.4 2 1.9 1 .7 1.5-.1 2.4-.6.4-.1.8-.1 1-.5.3-.4 0-.7-.2-1l-.7-.7-.9-1.2c-.3-.5-.9-.8-1.5-.7Zm.3.1c.7.1.9.7 1.3 1.1.4.6 1 1 1.3 1.6.2.4 0 .6-.4.8-.4.2-.7.3-1.1.7-.4.3-.8.5-1.3.1-.4-.2-.7-.6-1-1a5.6 5.6 0 0 1-1.6-2.4c.4-.1.9-.1 1.3-.3.4-.2 1-.6 1.5-.6Zm1.2.5Z" fill="#fff"/><path d="M301.3 201.1c-.3.2 1.2 1.5.5 1.5-.3 0-.6-.3-1-.4l-1 .3c-.3.3-.4.4-.9.2-.3 0-.6-.2-1-.1-.2 0-1.7.7-1.3 1 .3.1.6-.4.8-.5l.7-.3 1 .2c.5 0 .8-.2 1.2-.3.4 0 .6 0 1 .2.3 0 .7.3 1 0 .2-.4-.9-1.8-1-1.7Zm.7 1.6Zm-4.7.5Zm-2.2-2.3c0 1 0 2-.2 3l-.3 1c0 .2-.5.7-.5 1 0 .4.4 0 .5-.2l.4-1a9 9 0 0 0 .3-2.2v-1.7h-.2Z" fill="#fff"/><path d="M294.1 205.7c-.2.1-.5.4-.5.7 0 .6.4.8 1 .7.3 0 1 0 1.2-.3.3-.5-.2-.8-.6-1a3 3 0 0 0-1 0Zm.8.3Zm-.3 0h.3c.2 0 .9.1.8.6 0 .3-.6.3-.9.3-.4 0-.7.1-.8-.4 0-.5.3-.3.6-.4Zm1 .8Z" fill="#fff"/><path d="M297.2 199.8c-.6.2 0 1.2 0 1.6 0 .7-.5 1.5-.9 2-.4.7-.6 1.4-.7 2.2l.1.7.2-1c.2-.8.6-1.3.9-2l.8-2c.1-.3 0-.5 0-.8-.1-.2-.1-.8-.4-.7Zm0 1.5Zm-3.5 5.5-.4.8-.4.8c0 .2-1 1.4-.7 1.5.2.1.6-.2.7-.3.3-.2.5 0 .8-.1.2-.1.3-.2.5 0 .2 0 .4.3.6 0l.3.4c.3 0 .2-.4.2-.6V208s.2-.9.1-1l-.3.8c0 .6.2 1.3 0 2l-.2-.4-.4.1-.4-.2h-.7c-.4 0-.7.2-1 .4l.2-.2a108.9 108.9 0 0 0 .8-1.4c0-.3.2-.6.4-.9 0 0 .2-.5 0-.3Zm.5 2.6Z" fill="#fff"/><path d="M296.7 203.3c-.5.2-.1 1 0 1.4a22.5 22.5 0 0 1 .7 2.3l.1.4a14 14 0 0 0 .8 2.4c.3.5.5 1 1 1.4.3.3 1 .6 1.5.4l-.4-.1c-.3 0-.6-.1-.8-.3-.4-.3-.6-1-.9-1.5-.4-1-.6-2.2-.9-3.2l-.5-2c-.1-.3 0-1.4-.6-1.2Zm.8 4Zm0 0Zm.3-.9Zm0 0Zm11.4-3.2c-.1.1.1 1 .2 1.1 0 .4 0 .8.2 1.1a8 8 0 0 0 1 2.7c.3.6 1.2 1.5 1 2.1 0 .4-.4.3-.6.4-.5.2.1.1.3 0 1-.2.3-1.3 0-2-.3-.8-.8-1.7-1-2.6v-.3l-.2-.4-.2-1c0-.1-.2-1.4-.7-1Zm4.6-1.5c-.3.2-.3 1-.3 1.4a6.4 6.4 0 0 0 .2 1v.2l.5 2.4c.2.8.3 1.6.7 2.3.3.4 1 1.3 1.6 1.1.4 0-.4-.2-.4-.2-.2 0-.5-.3-.5-.4-.3-.3-.5-.7-.6-1l-.6-3.5c-.2-.7-.4-1.3-.4-2v-.8c.1-.2.2-.6-.1-.5Zm0 2.6Z" fill="#fff"/><path d="M314.2 201.5c-.2 0-.6.5-.6.7 0 .3.2.2.3 0 .1 0 .8-.7.3-.7Z" fill="#fff"/><path d="M314.2 201.6c-.2.1-.6.4-.6.6 0 .4.4.1.5 0l.5-.4c0-.3-.2-.3-.4-.2Zm8.8-10c-1 .4-1.8 1.4-2.2 2.4a2 2 0 0 0 0 1.3l.2 1.3s-.3.7 0 .8v-.3l.2-.5c.1-1-.1-2 .1-3l.7-1.2c.2-.2.4-.5.7-.6l.3-.1v-.1Zm-1.8 2.6Zm-2.5-2.2c-.5 0-.9.2-1.3.6-.3.3-.7.8-.8 1.3-.3.9-.2 2-.1 3 0 0 0 .5.2.6v-.7c.1-.6.3-1.1.3-1.7 0-1.2.2-2.4 1.4-2.9 0 0 .4 0 .4-.2 0 0 0-.1 0 0Zm-1 .7c-.1 0-.1 0 0 0Zm-.9 3.8Zm0 .7Zm-2-4.8c-.8.3-1.4.7-1.8 1.6-.3.6-.8 1.4-.8 2.1 0 .7.4 1.3.6 1.9.1.6.2-.3.2-.5l-.2-.6v-.4l.3-1.6v-.1l.3-1.2.7-.8.6-.3s.3-.2.1-.2Zm-2 5.6Zm.3-3.2Zm0 0Zm-2.4-1.8a2 2 0 0 0-1.3.7c-.9 1-1.8 3-1 4.2.2.2.6.5.5 0l-.2-.7a2 2 0 0 1-.1-.9c0-.6.3-1 .5-1.6.2-.5.4-1 .9-1.4l.7-.2h.7l-.7-.1Zm-1.3 1Zm-.8 2.2Zm0 1Zm-.2.7Zm-2.1-5c-.8.3-1.3.7-1.6 1.6l-.6 2.4v1.4c0 .3.5 1 .4.4v-.8c0-.3 0-.6.2-.8l.3-2v-.5l.3-.8.4-.5.7-.4Zm-1.4 2.4Zm-2.4-2.1a4 4 0 0 0-1.5 1.7l-.6 1.5c-.2.8-.6 1.5-.5 2.4.1.3 1 1.5 1 .9l-.4-1v-1l.3-1.7.4-1.2.5-.9.3-.3.6-.3Zm-1.3 1.6Zm-3-.8c-.4.3-.6.7-.7 1.2-.2.4-.5.8-.8 1l-.8.2-1.4.5c-.4.1-1 .6-1 1.1 0 .6.2 1.2.5 1.7l.5.8c.1.1.3.7.6.7 0 0 .3 0 .2-.2-.1-.2-.2 0-.3-.1l-.5-.8c-.3-.5-.7-1-.7-1.4 0-.5 0-1 .4-1.2.6-.5 1.4-.5 2.1-.7.6-.3 1.1-.6 1.3-1.3l.1-.8.6-.7h-.1Zm-.8 1.4Zm-3.5 2.3Zm-.1.6Zm.7 1.8Zm-.3-2.6Zm2-.7s.2 0 0 0Zm-.3-.4Z" fill="#fff"/><path d="M325 196.9c-.4.3-.7.5-1.2.5h-1c-.4-.1-.9 0-1.2-.2h-.1c-.2 0-.5-.2-.7 0l-.6.3a4 4 0 0 1-1.5.3c-.6 0-1.1-.3-1.7-.4h-.5a1 1 0 0 0-.4.1l-.4.4-.3.2c-.7.3-1.5.2-2.2 0-.5-.3-.8-.1-1.3.2l-.4.2-1.3-.1h-.3c.1.2.7.3.8.3.4.2.9.3 1.4.1l.7-.3h1.2c.5.1 1.1.1 1.6 0l.8-.4.4-.3 1.2.2c.7 0 1.6.2 2.3 0 .3 0 .4-.2.6-.4h1.5l.8.2c.7.1 1.4 0 1.9-.4 0 0 .3-.2.2-.3 0-.2-.1-.3-.3-.2Zm-12 1c.3.1 0 0 .2 0h-.1Zm-1 .4c-.1 0-.1 0 0 0Zm-.6.3Zm1 0Zm.3 0Zm.5-.6Zm-4.8.5c-1 .4-1.9.5-3 .3a1 1 0 0 0-1 0c-.3.1-1 .2-.5.3l2.2.2c.5 0 1 0 1.5-.2l.7-.3.3-.2s0-.2-.2-.1Zm-9.6.5-.6.1a2 2 0 0 0-1 .3l-.6.4c-.5 0-1 .2-1.3.6 0 .1-.5.6-.4.7 0 .4.5 0 .7 0 .2-.4.3-.6.7-.8.3 0 .6 0 1-.2.2-.3.2-.4.7-.5h1.3c.4 0 .8.3 1.3.4.4 0 .9 0 1.3-.2.3-.1.6-.4.2-.2-.7.2-1.1 0-1.7-.2a4 4 0 0 0-1.6-.3Zm.5.6Zm2.4 0Zm-2 .2c.1 0 .1 0 0 0Zm.1 0Zm-4.6.8Zm6.8-1Zm51-45c.2 1.6.1 3.2-.2 4.8 0 .6 0 1.4-.5 1.8-.4.5-.8 0-1-.2-.8-1-1.3-2.2-1.7-3.4 0-.2-.3-.7-.2-.2l.4 1.2 1 1.9.7 1.1c.1.2.3.3.5.3h.3l.1-.1c1-.8.8-2.5.9-3.6v-3l-.1-.5s-.1-.3-.1-.1Zm-4.5-21.5a2 2 0 0 0-.7.9c-.4 1-.4 2.5-.5 3.5l-.1 2c0 .1 0 0 0 0v1.2c-.1.2-.3 1.2-.1 1.3v-.8l.2-1.4c0-1.3.3-2.6.5-4 .1-.4.7-3.2 1.5-2.2l.6 1c0 .3.9 2.4 1 2.4l-.9-2.4c-.1-.5-.8-1.8-1.5-1.5Zm-1.3 9.5v3.2c0 .2 0 .7.2.6.2-.1 0-1.6 0-1.9 0-.1 0-1.9-.2-1.9Z" fill="#fff"/><path d="M347.3 129.4c-1 .2-1.2 1-1.4 1.9l-.4 2.6a63.6 63.6 0 0 0-.3 16.2s0 .2 0 0a41.7 41.7 0 0 0 2.2 9c.6 1.4 1.1 2.8 2 4.1.3.6.8 1 1.4 1.5 0 .1.7.5.9.2 0-.2-.5-.2-.6-.3l-1.1-1.2a47.5 47.5 0 0 1-4-10.6c-.3-1.1-.4-2.2-.5-3.3-.4-4.3-.4-8.5 0-12.7l.2-3.3.3-1.7c0-.4.1-1.1.4-1.6 0-.2.2-.4.4-.5l.4-.2.1-.1Zm-1.4 2.8Zm-.8 17.2Zm6 15.2Zm-6-14.4Z" fill="#fff"/><path d="m343.4 136.1-.3 3.9.1 4c0 1.2 0 2.5.3 3.8.1 1.2.5 2.4.6 3.5l.6 3.3c.4 1 .7 2.3 1.2 3.3l.4 1 .3.7-.2-.7-.4-1.1-.4-1.9-.6-2-.8-4c0-.7-.3-1.4-.3-2l-.2-2.1-.4-5.2v-2.5l.1-1.2v-.8Zm.4 13.2Zm69.2-3.6c-2.6.2-5.3.1-8 .1l-8.4.2c-2.6 0-5.2.3-7.9.4-2.7.1-5.4 0-8.2.2l-4 .3-2 .1-1 .1-.9.1c-.2.1-.3.4-.2.6.2.2.6 0 .8 0l2-.1 4-.4c2.7-.2 5.5 0 8.2-.2 2.7-.1 5.3-.4 8-.6 3-.1 6.1-.4 9.2-.4l4.7-.1 2.1-.1h1.5c-.2 0 .5-.2.2-.2Zm-49.7 1.7c-.4 0-.8.4-.4.7.3.2 1 0 1.3 0l3.3-.1c.2 0 1.4 0 .8-.5h-5Zm.4 2.1c-.2 0-.6.2-.3.5.2.2.6 0 .9 0h2.6c.1 0 .3-.1.2-.3 0-.2-.6-.2-.8-.2h-2.6Zm.2 0h.1Zm63.8-3.7c-3.2 0-6.5.3-9.7.5l-5 .1-4.7.2c-3.1 0-6.2.4-9.3.6l-9 .6-5 .2h-1.2l-.4.1h11.4c2.8-.2 5.6-.1 8.4-.4l4.4-.4 4.5-.1c2.9-.3 5.8-.2 8.6-.5 5.8-.5 11.6-.2 17.4-.2 2.8 0 5.7 0 8.6-.2l2-.2h.8c.2 0 1 .2 1.1 0 .3-.1 0-.1-.2-.1h-17.7l-5-.2Zm-23.5-6.8c-1.6.1-3 1.2-4.6 1.2a7 7 0 0 1-2.5-.5c-.8-.2-1.5 0-2.3 0l-2.5.5-2.6.7c-.8.2-1.7.4-2.5.3-1 0-1.8-.3-2.7-.5-.9-.3-1.8-.5-2.7-.5-1 0-2 .6-2.8.7l-3 .3c-.9 0-1.7-.5-2.6-.7-1-.2-2 0-3 .3-1 .2-2 .7-2.9 1l-3.1.5c-.4 0-1 0-1.3.2-.3 0-.2 0 0 0h3.7c1.7-.2 3.5-1 5.1-1.4h.3a3.7 3.7 0 0 1 1.4 0l2 .2h4.1l2-.1 2.3.1a16.1 16.1 0 0 0 8.2-.8c1.4-.4 2.8-.5 4.2 0a9 9 0 0 0 4.2.3c1.3-.3 2.4-1.2 3.8-1.3 1.5-.2 3 .4 4.4.6.6.2 1.5.3 2.2.3.3 0 .2-.2 0-.2l-1.2-.1c-1 0-1.8-.4-2.6-.6-1-.2-2-.4-3-.4Zm-4.8 1.2Zm-27.8 1Zm38.2-1.1Z" fill="#fff"/><path d="M446.8 138.3c-.8 0-1.7.3-2.4.6a10.9 10.9 0 0 1-1.9.4h-.5c-.7 0-1.6.2-2.4 0-.9-.3-1.7-.5-2.6-.6-.9-.1-1.7-.2-2.6 0-.9.2-1.7.5-2.6.6-1.7.2-3.2-.2-4.9-.6-.8-.2-1.6-.3-2.5-.1l-1.3.3-1.2.4a12 12 0 0 1-6.8-.1c-1.1-.4-2.3-.6-3.3.2-.5.3-.9.5-1.5.5l-1.8-.1c.2 0 0 0 0 0h-.6l-1-.1-1.5-.2s-.6-.3-.7-.2l.4.2 1.5.5 1.7.4.8.2h.7c.7 0 1.3-.3 1.8-.6s1.1-.5 1.7-.4c.6.1 1.2.5 1.8.7.7.2 1.3.2 2 .2 1.5.1 2.8 0 4.1-.5 1.3-.5 2.5-1 3.9-1.1l1 .1c.4 0 1 .3 1.4.5.6.1 1 .4 1.6.6 1 .4 2.4.1 3.5-.1 1.2-.3 2.2-1 3.5-1 .6 0 1.2 0 1.8.2l1.9.7c1.1.4 2.5.5 3.6.3 1.2-.2 2.2-.8 3.3-1 1.2-.4 2.4-.2 3.6.1a10.3 10.3 0 0 0 2.8.2l.9-.1c.1-.2-.6 0-.6 0h-1l-1.8-.3c-1.2-.3-2.5-.9-3.8-.8Zm2.6.5Zm-39 1.1Z" fill="#fff"/><path d="M404.2 139.1c-.6 0-1.2.3-1.8.6-.2 0-1.7.6-1.2.8l.8-.3.8-.3c.8-.1 1.5-.2 2.2-.1 1.4 0 2.9.3 4.3.5.1 0 .9.2.8-.2 0-.2-.9-.2-1-.2a20.3 20.3 0 0 1-2.5-.5 7 7 0 0 0-2.4-.3Zm2.3.3s.2 0 0 0Zm94.1-1.4c-.8.2-1.6.5-2.3.9l-.4.2-.5.1-.8.2c-1 .2-2.2.1-3.3-.2-1.2-.3-2.3-.8-3.4-.8-1.3 0-2.4.5-3.6.8a8 8 0 0 1-3.5.2c-1.2-.2-2.3-.7-3.6-1a7 7 0 0 0-3.3.4c-.5.2-1 .4-1.7.4h-2c-1.2 0-2.4-.3-3.7-.6-1.2-.3-2.5 0-3.8 0l-2 .4h-2c-1 0-2.2-.7-3.3-.9-1-.2-2 .4-3 .8-.3.2-1 .4-1.4.4-.5 0-1.1.1-1.6 0-.6 0-1.1-.3-1.7-.4l-.7-.2c-.3 0-.3 0 0 .2.5.3 1.2.5 1.8.6a6 6 0 0 0 2 .3c1.1.1 2.2-.3 3.3-.6 1.2-.3 2.4.2 3.5.3 1.2.1 2.4 0 3.6-.2 1.3-.2 2.6-.4 3.8-.3 1.2.1 2.3.8 3.4 1a10 10 0 0 0 6.4-.8c.7-.3 1.5-.4 2-.4 1 .1 2 .6 3 .9 1 .3 2 .5 3.1.5 2.2.1 4-1.2 6.1-1 1 .2 2 .5 3.1.6h2.9c1-.2 1.8-.6 2.7-.9l1.4-.3c.6 0 1 .3 1.6.4 1 .3 2 .6 3 .7 1 0 2-.2 3-.4 1.4-.3 3-.3 4.6.1l.6.1-.3-.1-1.3-.3a10 10 0 0 0-2.5-.3c-1.6.1-3.2.4-4.8 0-1.6-.4-2.8-1.2-4.4-.8Zm7.3 1.5Zm-23.9 0Zm12.7-.1Zm-36-.3Z" fill="#fff"/><path d="M521.5 138.3c-.8.2-1.4.7-2.2 1-.8.3-1.6.3-2.4.3-1.7 0-3.3-.2-4.8-.5a5 5 0 0 0-1.3-.2c-.2 0-1.1 0-.5.1l2.7.4.5.2 1.4.3c1 .2 2 .4 3 .4s2-.5 2.9-1a3 3 0 0 1 2.6 0c1 .3 1.8.9 2.8 1 1.1.1 2 0 3.1-.4l1.5-.6 1.5.3 3 1.2c1 .3 1.9.4 3 .3 1 0 2-.3 3-.8 1-.4 2-.4 3 0s1.8.7 2.8.8c1 .1 2 0 3-.2 1-.3 2-.6 3-.5 1.2 0 2.2.3 3.3.4l3 .2 1.5-.1c.5 0 1.1-.1 1.5-.3.4-.1 0 0-.2 0l-1 .1h-1.8c-1.2 0-2.2-.3-3.3-.6-1.1-.2-2.3-.5-3.4-.4-1 0-2.1.5-3.1.8-.9.2-1.9.4-2.7.2-1-.1-1.7-.6-2.5-1s-2-.5-2.8-.2c-1 .2-1.8.8-2.7 1-.8.3-1.8.4-2.6.2a11 11 0 0 1-2.7-1.2c-.8-.4-1.9-1-2.8-1-1 .2-2 1-3 1.2-1.1.3-2.2.1-3.2-.3s-2-1.3-3-1Zm.4.7Zm-11.4 0Zm47 1.5Zm-18.8.1Zm8.9.2Z" fill="#fff"/><path d="M511.5 138.9h-2l-1 .2-2 .2c-.1 0-.6-.1-.5.1h5.9c.8 0 1.5.3 2.2.3 1.6.2 3.2.4 4.7.4.5 0 .2-.1 0-.1l-2.3-.2c-1.6-.3-3.3-1-5-1Zm-1.3.4Zm-.8 0Zm3.8.3Zm50.9.2c-1.2.2-2.5.7-3.7.7h-2c-.7 0-1.4 0-2-.2l-1-.1s-.9-.2-.8 0h1l.5.2 2.2.4c.8.2 1.6.4 2.4.2 1.4-.2 2.7-1 4.2-.7 1.5.4 2.6 1.4 4 1.8 1.5.4 3 .2 4.4-.4 1.5-.6 3-.8 4.5 0 1.4.8 2.7 1.4 4.3 1.3 1.4-.1 2.7-1 4.1-1.2 1.4-.1 2.8.7 4 1a6 6 0 0 0 2.5.3h-.5l-1-.1c-1.4-.2-3-1.3-4.2-1.6a5 5 0 0 0-2.8.3c-1 .3-2 .6-3 .6-1.4 0-2.6-.6-4-1.1a6.6 6.6 0 0 0-4 0c-1.6.5-3.1.5-4.7-.1-1.4-.6-2.8-1.5-4.4-1.3Zm11.2 1.4Zm1.5.1Zm8.8.6Zm-2.4.1Zm-1.9.3Zm-.1 0Zm-8-1Zm29.1 2.6h.2c0-.4-.3 0-.2 0Z" fill="#fff"/><path d="m586.9 141.7.4.1c2 .7 4 2 6.1 1.4 1-.2 1.8-.4 2.8-.4 1 0 2 .3 3 .6a12.8 12.8 0 0 0 3.2.7c.1 0-.2.4 0 0s0-.5-.3-.6c-.5 0-1-.2-1.4-.3-1-.3-2-.7-3-.8h-3.1c-1.1.2-2.1.4-3.2.3-.8 0-1.6-.3-2.3-.4 0 0-.1 0 0 0h-.1l-.8-.3-.8-.3h-.5s-.1 0 0 0Zm13.9 1.5Zm-17.5 4.6c-.2 0-.3.2-.3.3 0 .3.3.3.4.3h1.5a73.1 73.1 0 0 0 6.8.3c1.2 0 2.3.4 3.5.4l4.4.3h.3a724.3 724.3 0 0 1 4.3 0h1.8l-2.5-.2-2-.1h-.8l-.8-.1-3-.2c-1 0-2-.2-2.8-.3l-4-.3-3.6-.2-3.2-.2Zm11.4.7Zm5.2.5Zm.8 0Zm2.1.5Zm-15.2-.9Zm15.8.6c-.1 0 0 0 0 0Zm-57.7-3c0 .2 5.4.2 6 .3l3 .2a23.4 23.4 0 0 0 2.2 0h.6c1.4.2 2.8.3 4.3.3l4.4.1 4 .4 4.7.2 2 .2h.8c.3.1.7.2 1 0 .5-.4-.3-.7-.7-.7h-1.9c-2.9-.3-5.8-.1-8.6-.4-1.6-.2-3.2-.2-4.8-.2-1.7 0-3.3-.3-5-.3l-6.2-.1h-5.8Zm20.1.9Zm10.5 0Zm-.7.7Zm0 0c.1 0 .2 0 0 0Zm-7-.4c-.1 0-.1 0 0 0Zm-58.6-.9c0 .3 4.6.2 5.1.3h.7l1.8.2h1.2a119.2 119.2 0 0 0 6.7.2h3.8l1.6.1h1.3l2.2.2 4 .2c1.4 0 2.8 0 4.1.2h1.8l1.4.1 2.9.2c1.8 0 3.8 0 5.6.2l2 .2h2.3l3.9.2 8.2.2 4.4.2 1.7.1 1.1.1c.2 0 1 .1.6-.3 0-.2-.7-.1-.9-.2a26.3 26.3 0 0 0-3.2-.1l-4.3-.2c-3 0-6.5-.2-9.3-.4-1.7-.1-3.4 0-5.2-.2l-4.1-.2-4-.1c-1.5-.2-3.1-.1-4.7-.3l-4.5-.1-4.2-.2-4.5-.1c-2.3-.2-4.6 0-6.9-.1l-2.8-.1-2.8-.2h-6l-1-.1Zm8 .1Zm4.6.3Zm12.8.3Zm42.1 2.2Zm-58.4-2.3Zm64.7 2.1h-.6v.5h1.9c1.3 0 2.6.2 4 .4l2 .1h1l1.1-.2-7.2-.6h-.8l-.3-.1h-1.1Zm.4.5Zm-253.8-9.1-13.4 1.2-13.6.8c-4.5.3-9 1-13.5 1.2l-6.8.4-6.8.5c-2.2 0-4.4.4-6.6.5l-6.7.5-6.7.5-6.6 1c-4.4.5-8.9.7-13.2 1.3l-3.3.4h-3.4c-2.1 0-4.3.4-6.5.6l-3.2.3-3.2.5c-1.1.2-2.2.2-3.3.2l-3.2.4-3.2.4c-.6.1-2 .2-2 1 0 1 1.4.7 2 .6l3.2-.2c1.1 0 2.1-.3 3.2-.3 1-.1 2 0 3.1-.3 2.2-.5 4.4-.8 6.6-1 2-.1 4.2-.6 6.3-.7h3.2c1.2 0 2.3-.1 3.4-.3l6.7-.7c2.1-.3 4.3-.3 6.4-.7l3.2-.4 3.3-.4 6.5-.6 6.7-.5 6.6-.5 6.9-.4 6.8-.5c4.5-.2 9-1 13.4-1.3l13.2-.7 13.6-1.3c2.2-.2 4.5-.5 6.8-.5h1.8c.3 0 .9.2 1.1-.2.7-1-1.6-.9-2-.9a67 67 0 0 0-6.8.2Zm-53 4Zm-30.7 2.9Zm91-4.1c-2.5 0-5 .3-7.4.5-1.2.2-2.5.2-3.8.3l-2 .1h-1l-.4.1a22.2 22.2 0 0 1-.8 0l-8.5.7-7.5.4-10.2.6-10 .7-9.7.5-9.8.8c-3.3.3-6.6.8-9.8 1.2l-4.7.3c-1.6 0-3.2.4-4.8.5-3.2.1-6.4.7-9.5.9-1.7 0-3.4.2-5 .4l-2.1.3h-2.4c-3.1.3-6.2.8-9.3 1l-2.3.1c-.9 0-1.8.2-2.6.3-1.6.2-3.1.2-4.6.6-.7 0-1.4.2-2 .3-.2 0-.8.3-.4.6h1l2.2-.3h2.1l4.8-.2c1.6 0 3.2-.3 4.8-.4l4.6-.5 2.3-.1h2.3l4.7-.5 4.9-.5 2.2-.1c.9 0 1.7-.3 2.6-.3l4.9-.4 4.8-.3 4.7-.6c3.3-.6 6.6-.8 9.9-1.1 3.2-.3 6.5-.5 9.7-.6l5-.4 4.8-.2 10.1-.9a239.8 239.8 0 0 1 3.7-.2h1l7.2-.4 7-.7c4.6-.5 9.2-.8 13.7-1.5l3.7-.3 1.8-.1c.2 0 .5 0 .4-.4 0-.2-.2-.3-.3-.2Zm-10.2.7Zm-21.3 1.4h-.1Zm.8 1.3h-.1Zm-62 4.9Zm-14.2 0Zm7 .7h-.2.1Zm-22.1 1.7Zm90.5-8.6s.1 0 0 0Zm.2 0h.1Zm.1 0Zm38.9-15.2c-.3.1-.6.8-.7 1.2l-.4 1.7c-.3 1.1-.4 2.3-.5 3.4-.1 2.5 0 5 .3 7.5l.2 1.7v.9c0 .3 0 .3.1 0V144c0-2.2.1-4.5.4-6.7l.5-3.9.3-1.7c0-.2.5-1.6-.2-1.5Zm-1 15Zm-2.7-5.3c-.3.6-.3 1.4-.3 2l.2 2.2.2 2.2.1 1c.2.2 0-.4 0-.5l.3-4.2c0-.7.2-1.4.3-2l-.1-.7c-.2-.2-.6-.1-.7.1Z" fill="#fff"/><path d="M566.5 139.4c0 .2 1.8.6 2 .7.8.3 1.4.7 2.2.8 1.6.2 3.2-.5 4.9-.5.8 0 1.6.1 2.4.4.8.2 1.6.6 2.4.7.8.2 1.7 0 2.5-.1l1.2-.3.5-.1h.5c1.2-.1 2.4.2 3.5.6 1.3.5 2.5.7 3.9.4 1.3-.1 2.6-.4 3.9-.3 1.3.1 2.9.4 4 .7.2 0 .5.2.7.1.2 0 .3-.1 0-.3 0-.2-.5-.2-.7-.2l-1.1-.3a19 19 0 0 0-3.8-.6c-1.3 0-2.5.3-3.8.4-1.3 0-2.5-.3-3.8-.7a8 8 0 0 0-3.7-.3c-1.2.2-2.4.7-3.6.5l-1.4-.5a11.6 11.6 0 0 0-5.3-.5c-1.3.3-2.7.7-4 .2-.6-.2-1-.6-1.7-.7-.2 0-1.6-.5-1.7-.1Zm.7.3Zm13.3 1.3Zm0 0Zm6.7.1Zm12 .6s.1 0 0 0Zm0 0Z" fill="#fff"/><path d="m568 139 .2.1 2.1.7h2.1c.7 0 1.4-.1 2-.3.8-.2 1.5-.1 2.3 0 .7 0 1.5.1 2.2.4.6.2 1.2.5 1.9.6 1.2.1 2.7-.5 3.9-.5 1.6 0 3.2.5 4.8.9 1.6.3 3.2-.2 4.8-.2l2.5.1 2.3.3c.1-.3-1.7-.4-2-.5l-2.4-.1-4.4-.3-4.2-.3c-1.5-.2-3-.2-4.6-.2l-4.1-.3c-1.6-.2-3-.2-4.6-.1-.8 0-1.7 0-2.5-.2-.3 0-2.3-.4-2.3-.1Zm19.7 1.4Zm6.2.4Zm-63.7-3c-1.4.1-2.7 1-4.1.7-.6 0-1.2-.3-1.8-.4l-.8-.2c-.4 0 0 0 .1.2.7.3 1.5.7 2.3.9.7.2 1.4 0 2.1-.2.8-.2 1.7-.7 2.5-.7s1.7.2 2.5.5c1.5.6 3.1 1.3 4.8 1.2 1.7-.1 3.2-.9 4.8-1a7 7 0 0 1 2.4.4c.8.2 1.6.6 2.5.6 1.8 0 3.5-.5 5.3-.8a8 8 0 0 1 2.7.3c1 .2 1.8.5 2.7.5 1 0 2 0 3-.2l1.4-.1h.6l.4-.1h1.9a7.7 7.7 0 0 1 2.5.4l1 .5s.4.3.5.1c0-.2-.6-.3-.7-.4a9.8 9.8 0 0 0-4-1.2c-1.5-.1-2.9.2-4.3.4-1.5.1-3 0-4.5-.3a9.3 9.3 0 0 0-4.1-.3c-1.4.2-2.8.7-4.3.7-.7 0-1.3-.4-2-.6-.6-.3-1.4-.4-2-.5-1.5 0-2.8.5-4.2.8-.8.2-1.6.3-2.4.2-.8-.1-1.6-.5-2.4-.7-1.4-.4-3-.9-4.4-.7Zm.1.3Zm12.3.7Z" fill="#fff"/><path d="M501.4 136.8c-1.5 0-2.8.8-4.3 1a12 12 0 0 1-4.5-.2h-.4l-.8-.2c-.3 0-1.4-.3-1.6 0-.2.2.3.1.4.2h.8l1.8.6c1 .4 2.1.4 3.3.3 1.2-.1 2.2-.5 3.3-1h.3l.4-.1 1-.2a7 7 0 0 1 1.8.2c1.2.2 2.4 1 3.8 1l4.3-.2c1.4 0 2.7.5 4 .7a8 8 0 0 0 4.1-.6l.3-.1a8 8 0 0 1 2.5-.3c1 .1 2.2.3 3.2.7 0 0 1 .5.7.2 0-.2-.5-.3-.7-.3l-.9-.4a8.2 8.2 0 0 0-6.2-.2 8 8 0 0 1-3.1.2c-2.2-.3-4.3-.4-6.5-.3a10 10 0 0 1-3.5-.3c-1.2-.4-2.3-.7-3.5-.7Zm4.2.9Zm17.7.5Zm-8.8.6h-.1Zm-21.6-1.1Zm0 0c-.1 0-.1 0 0 0Zm6.3-.5Zm57.5 1.1c-.3 0 0 .3.1.4.3.1.6.1.8 0h1.7l1.7-.1c0-.2-2-.2-2.2-.2-.7 0-1.3-.3-2-.2Zm1.4.5Zm0 0c.1 0 .1 0 0 0Zm.1 0Zm-.3-.5Zm-12.7-.6c-.3 0-.6.2-.1.3l1.6.6c.4.2.9.2 1.4 0l1.1-.3h2c0-.2-1.7-.2-2-.3h-2c-.6-.2-1.3-.3-2-.3Zm-22.6-.5.4.1 1.4.4.5.2.4.1h1.4l1.3-.1 1.2-.3 1.1-.1 2.2.1c.7 0 1.3.4 1.9.5l2.3.5h.1l.3.1h2.2l.4-.2.6-.3 1.3-.2h1c.2-.2-.7-.2-.7-.1h-.9l-1.7.2h-.9l-.7-.1c-1.1-.3-2.6-.3-3.8-.4l-3.5-.2-1.9.1h-1.9c-1.3 0-2.6-.4-4-.3Zm3.3.2Zm11.8.5Zm-10.8.1Z" fill="#fff"/><path d="M503.4 136.3c-.2 0 0 .2 0 .2l.8.2c.4 0 .9.2 1.3.4l1.3.2 1.3-.1c1.7-.2 3.7-.1 5.3.2l1.2.2c1 .2 2 .2 3-.2.4-.2.8-.3 1.3-.3.1 0 1.2 0 1-.2h-.9a8.2 8.2 0 0 0-1.5 0 5 5 0 0 1-2.7 0l-1.4-.2h-4.2c-.5-.1-1-.3-1.6-.2h-1.2c-1 0-2-.3-3-.2Zm13.1.8Zm-5.1-.4s.1 0 0 0Zm-54.1.2-1.7.1c-.6 0-1.2.3-1.8.5-1 .2-2 .2-3 0-1.2-.2-2.2-.6-3.4-.6-1.1 0-2.3.3-3.3.4-1 .2-1.8.3-2.8.3-.6 0-1.3-.3-2-.1-.3 0-.3.3 0 .5l1.2.4c.8 0 1.6-.2 2.4-.4 1.8-.5 3.6-1 5.4-.5.8.2 1.5.7 2.4.8a6 6 0 0 0 2.3 0c1-.2 1.7-.7 2.6-1a5.8 5.8 0 0 1 2.9.2 9 9 0 0 0 4 .7c1.3-.2 2.7-.9 3.8-.8 1.1 0 2 .5 3 .9.6.2 1.1.4 1.7.4h1.6l3.2-.8 1.8-.2h1c.1 0 .6-.1.8 0 1.2 0 2.3.5 3.5.7 1.2.1 2.3 0 3.6-.3 0 0 .6 0 .6-.2s-.7 0-.8 0c-.6.2-1.3.4-2 .3-1.2 0-2.3-.4-3.5-.7-1.2-.4-2.5-.3-3.8-.3-1.3 0-2.5.4-3.8.6-1.3.2-2.5.3-3.7 0l-1.7-.6-2-.1c-1.5 0-3 .3-4.4.2-1.3-.1-2.7-.4-4-.4Zm-10.2.4Zm0 0c.1 0 .1 0 0 0Zm1.4.2Zm3.2.2Zm-24.4-.2c-1.1 0-2.3 0-3.4.3-1 .2-1.9.5-2.9.6h-2.7c-1-.2-2-.6-3-.7-1-.1-2.1 0-3.1.2s-1.8.8-2.9.7l-1.6-.2h-.7c-.2.3.2.5.4.5a4 4 0 0 0 3 0c1-.5 1.9-.9 3-1a5.4 5.4 0 0 1 2.4.3l.3.2h.3a7 7 0 0 0 4.7.5l2.5-.7c1-.3 2-.4 2.9-.3.9 0 1.6.5 2.5.7a4 4 0 0 0 2.4.1c.8 0 1.5-.4 2.2-.6.7-.2 1.7-.2 2.3-.2.3 0 1.2.3 1.4.1.3-.2-1-.3-1-.3h-3c-1 .2-1.9.3-2.8.2-1 0-2-.3-2.8-.4h-.4Zm3.1.4h.1Zm.2 0Zm-8.6.4Zm-10.7.1Zm5.6.2Zm.2.1Zm10.7-1.2h-.1Zm-23.8.8c-1.1 0-2 .1-3.1.5-1 .3-1.9 0-2.9-.2-1.9-.5-4 0-6 .5l-2.9.5c-1 0-2-.2-3-.4-1.8-.3-3.9 0-5.6.3a8 8 0 0 1-3 .2c-1-.2-2.2-.2-3.3-.2-1.3-.1-3-.2-4.4 0l-4 .6c-.7 0-1.4 0-2 .2-.3 0-.7.2-.7.5s.6.4.9.4c.6 0 1.2 0 1.8-.2.7 0 1.5-.2 2.2-.4 1.3-.4 2.5-1 3.9-1s2.8.2 4.2.6c.6.2 1.2.3 2 .2.6 0 1.3-.4 2-.6 1.3-.3 2.6-.4 4-.2.8.1 1.5.4 2.3.6h2.4c1.5-.3 2.9-1 4.3-1.2 1-.1 1.8-.2 2.7-.1l3 .7c1.1 0 1.9-.5 2.8-.9l1.3-.3h.8l.2-.1Zm72-2c-.2 0-1.6 0-1.6.3 0 .1 1.5 0 1.6 0a12 12 0 0 1 3.8.3l3.6.6h2c.5 0 1-.3 1.7-.4 1.1-.2 2.3-.1 3.5-.1 1.3 0 2.8.4 3.9.4 1.1.1 2.6-.2 3.8-.4 0 0 .8-.1.6-.2 0-.2-.7 0-.9 0l-2 .1-2-.2h-5.2a20 20 0 0 0-2.3 0h-5.9l-2.1-.3H476Zm11.3.4Zm4 .3Zm0 0Zm-4.3.1Zm1.6-.4Zm-4.4 0Z" fill="#fff"/><path d="M468.4 136.6c-.1 0-.2.2-.1.3l.3.1.8.3c.8.2 1.6.1 2.4 0h1.2c.4-.1.3-.4 0-.4l-1.2.1h-1c-.8 0-1.6-.4-2.4-.4Zm1.7.8c.2 0 0 0 0 0Zm0 0Zm110.1 9c0 .2 2.1.2 2.4.2l2.7.2 5.7.5 5.6.4c1.9.1 3.8.4 5.6.4h.8c.4-.3-.2-.4-.4-.5a48.6 48.6 0 0 0-6.8-.7l-4.8-.3-5-.1h-4.4c-.1 0-1.4-.2-1.4 0Zm8.5-.8c0 .2 4.5.4 5 .4l5.3.7h1.1c.3 0 1 .2 1.2 0 .3 0 .3-.4 0-.5l-1.2-.1-5.4-.3-3.2-.1c-.3 0-2.8-.3-2.8-.1Zm-213.4 2.8c-.4 0-1.2 0-1.6.2-.4.2-.1.6.3.6 1-.2 2.4-.4 3.5-.4s2.2-.2 3.3-.1c0 0 .5 0 .3-.2 0-.1-.7 0-.8 0h-5Zm2 0Zm0 0Zm24.4.5-5.9.2h-6.2l-5.7.1a47.7 47.7 0 0 0-8.1.7c-.4 0-2-.1-2 .6s1.8.4 2.2.4l2.7-.2c1.8-.3 3.7-.4 5.6-.5 2.1 0 4.2-.3 6.3-.5l6.9-.3c1-.2 2.2-.3 3.3-.3h1.7c.2 0 .3-.1 0-.2h-.8Zm-34.9 1.9-1.8.1c-.3 0-.6 0-.7.3-.2.3.2.4.5.4l1.7-.1c.3 0 .6 0 .7-.3 0-.2-.2-.4-.4-.4Zm-29-7.8-4.8.6-5 .4c-3.3.2-6.4.9-9.6 1.1l-2.4.3-1.1.1c-.3.4.5.2.7.2l5-.3 5-.4h4.9l5.6-.4 1.3-.2c.3 0 .6 0 .9-.2.6-.4.2-1.3-.5-1.2Zm-.6 3.1c-3.4.1-6.7.5-10 .8l-5.2.4c-1.7.2-3.4.5-5.2.5h-2.4c-.1 0-1 0-.6.2h1.2l5.4-.3 10.7-.4h5.6c.5.1 2 .4 1.9-.5-.1-.7-1-.7-1.4-.6Zm-.5 3.2-5.6.6c-1 .2-2 .2-3 .2h-1.5c-.2 0-1.2-.1-.9.3H337c.5 0 2.1.4 2-.5 0-1-1.6-.6-2.2-.6Zm2.2 2.9h-.3s-.4.1-.2 0l-1.6.4c-.7.2-1.3.2-2 .2h-1.7c-.1.2.5.2.5.2h4.5c.3.1 1 .4 1.2 0 .2-.4 0-.8-.4-.8Zm-114.6.6H217l-3.6.3c-1.3 0-2.5.3-3.7.3l-3.8.4c-.4 0-1 .1-1.3.5-.3.4 0 1 .4 1l1.5-.2 2-.2 3.4-.4 3.9-.5 4.2-.5h.8l1-.1h1s.4-.1.2 0c.4-.1 1 0 1.4-.2.2 0 .3-.4 0-.4Zm-4.2.7Zm104.5 38.2c-.9 0-1.7.4-2.3 1 0 .2-.8.8-.4.8.2 0 .8-.7 1-.8.3-.2.8-.3 1.3-.3h1c.4 0 .5-.2.2-.5-.1-.2-.6-.2-.8-.2Zm-1 .7Zm-2.9-.6h-.2l-.5.2-.4.2c-.6.3-1.2.5-1.6 1 0 .2-.5.6-.3.8.2 0 .5-.5.5-.5.5-.6 1.3-.9 2-.9.4 0 .9.2 1-.2 0-.3-.2-.6-.5-.6Zm-8.7 1.7h-.4l-1.3.2c-.2 0-.4.1-.3.4h2.1c.3-.2.3-.7-.1-.6Zm-1.3 1c-.2 0-.8 0-.8.3 0 .2.7.1.8.1.2 0 .6 0 .6-.2s-.5-.2-.6-.2Zm-2.2-1.8a4 4 0 0 0-3.2 2.5s-.2.4 0 .5c.1.1.2 0 .3-.2.3-.4.4-.8.8-1.1.4-.4.9-.6 1.4-.8.3 0 1 0 1.2-.2.3-.4-.2-.8-.6-.7Zm-4.9.4c-1 .2-1.6 1-2 2-.1.1-.5 1-.4 1.2.2.3.2 0 .3-.2 0-.3 0-.5.2-.8.5-1 1.2-1.3 2.2-1.3.2 0 .7 0 .7-.4 0-.6-.7-.5-1-.5Zm-1.7 1.8Zm-2-1.2c-.5 0-1 .2-1.3.6-.3.3-.4.8-.5 1.2a3 3 0 0 1-1.5 1.6c-.2.1-.3.2 0 .2l.6-.4c.5-.2.8-.6 1.1-1 .3-.4.5-.8 1-1 .1-.2.3-.3.5-.3h.3l.3-.2c.3-.1.4-.4.2-.6-.1-.2-.5-.2-.7-.1Zm9.5 5.5c-.7.1-.8 1-1.4 1.3l-.5.4c-.1.3.1.3.3.3.4 0 .6-.3.9-.5.3-.3.4-.5.5-1 .3-.6 1.3-.1 1.8 0 0 0 1 .5.8.1 0-.2-1.1-.4-1.2-.4-.4-.1-.8-.3-1.2-.2Zm.3.2Zm-6.7.1c-.4.1-.7.5-1 .7-.3.1-.8.3-.3.4h1c.4 0 .6-.5 1-.6.3 0 .5.2.7.4.1.1.6.7.6.5 0-.2-.3-.4-.4-.5l-.4-.6c-.3-.4-.7-.5-1.2-.3Zm12.5-7.1c-1.2.2-1.6 1.2-1.8 2.1 0 0-.4 1-.1.9l.4-1.1c0-.1 0-.1 0 0v-.1c.5-.8 1.2-.9 2-1 .2 0 .6-.2.4-.5-.2-.3-.7-.3-1-.3Zm-.4 1Zm10.5 1.4c-.2 0-.3.1-.3.3 0 .2.2.2.3.2.4.2.7.5 1 .9.4.5.9 1.4.9 2a59.7 59.7 0 0 1 .1 1.1c.1-.7.2-1.3 0-2-.1-.6-.3-1.1-.8-1.6-.2-.3-.8-1-1.3-1Zm.7.4Zm.6 1.5Zm-.5 7.9v1.2c0 .2 0 1.4.2 1.4s.1-.6.1-.7v-1.9c-.1 0-.3-.2-.3 0Zm.3.8Zm0 1s0 .1 0 0Zm-.6-.4v1c0 .2 0 .3 0 0 .2-.2.2-.6.2-.9v-.3l-.2.1Zm-30.1-5.3c-.2.2.1.7.1 1 0 .3 0 .7-.2 1l-.6 2.3c-.1.5 0 .2.2 0 .1-.5.2-1 .4-1.3.2-.6.5-1.2.6-1.9 0-.2.2-1.6-.4-1Zm-1.5 6.9v1c0 .4 0 .5.2.1v-1s.1-.2 0-.2h-.2Zm-.3.4s0 .6.1.2v-.2Zm.3-10.5c-.3.1-.4.3-.3.5 0 .5.2 1 .4 1.3l.4.5c.3-.1 0-.4 0-.4-.3-.4-.5-.8-.4-1.3.1-.2.3-.7-.1-.6Zm30 3.5-.2.1c-.4.6-1 .6-1.7.5-.6-.2-1.5-.3-2.2 0-.5.3-1.3.7-1.8.7h-.1l-1.3-.3c-.6-.1-1 .1-1.6.4-.3.1-1 0-1 .6 0 .1.1.4.4.3v-.3l1.1-.2c.5-.2 1-.2 1.4-.2l1.8-.3.7-.1h.4l.2-.1a4 4 0 0 1 1.7-.3h1.2l.7-.5.4-.3s0-.1-.1 0Zm-3.5 1Zm0 0Zm-25.6-6.9-5.4.7-5 .8c-3.3.5-6.7.8-10 1.4l-2.2.4c-.6 0-1.6.1-1.5 1 .2.8 1 .6 1.6.6l2.6-.5 10-1.9 5.6-1.2 2.9-.5c.4-.1 1 0 1.5-.2.2-.2.2-.6-.1-.6Zm-4 3.3c-3 .2-6 .7-9 1-2.9.2-5.8.6-8.8 1l-2 .4c-.4.1-1 .7-.4 1.1.4.3 1.2 0 1.7 0l2.2-.4c3-.5 5.9-.7 8.8-1.2l4.8-.7 2.5-.3c.3 0 .7 0 .7-.4 0-.3-.2-.5-.5-.5Zm113.7-10c-2.5 0-4.9.2-7.4.3l-7.4.4-7.2.4c-2.5.2-4.9.5-7.3.5l-4 .1h-3.6s-.4.1-.1.1c-2.2 0-4.4.3-6.5.4h.2-.5c.2 0-.5 0 0 0h-.8c.3 0 0 0 0 0a57.7 57.7 0 0 0-1.3.1l-1.7.1-3.4.2-6.9.4c-4.5.1-9 .6-13.5 1l-3.2.3c-.7.1-2.2 0-2.5.8-.4 1 1 1.3 1.8 1.2l.5-.1.7-.1 1.7-.2c4.6-.4 9.1-.9 13.7-1.2l7.7-.4c1.2 0 2.5 0 3.8-.2 1.3-.1 2.6-.3 4-.3h.7l1-.1 2-.2 4-.2c2.7-.1 5.5-.1 8.3-.4l8-.8 8.4-.9c3-.2 6-.7 8.9-.8h1.3l.7-.1v-.3h-.1Zm-28.6 1.6Zm-15.2 2.2h-.2.2Zm6.3-2h.2-.2Zm.3 0Zm25.6 2.2c-2.2 0-4.3.3-6.5.4l-3.2.2h-3c-3.7.2-7.4.5-11.2.5h-5.4l-5.6.4h.2c-3 0-6.3 0-9.4.4l-4.8.5-4.6.5-9.3.9c-.5 0-1 .3-1.1 1-.1.6.5 1.1 1.2 1.1l.7-.2 1.2-.1 2.3-.2c6.4-.7 12.7-1.8 19-2 3.2-.1 6.4-.4 9.5-.7 3.2-.3 6.4-.3 9.6-.5l5.4-.5 5.5-.5a207.1 207.1 0 0 0 8-.8h1.3c.1 0 .3 0 .4-.2 0-.1 0-.2-.2-.2Zm-35.9 1.5h.2-.2Zm.2 0Zm0 0h.1-.1Zm215.2-3.8c0 .4 2.1.3 2.5.3l2.6.3 5.3.6 10.8 1.3c3.7.4 7.3 1 11 1.1l10.9.8 10.6.9 10.8.8c3.7.1 7.3.5 11 .8l11 .9 10.8 1.2 5.2.9 2.6.4c.7.1 1.6.4 2.3.3.7 0 1.3-.7 1-1.4-.4-.7-1.1-.7-1.8-.9l-5.3-1-5.4-.6-5.2-.6-10.8-.9c-3.5-.2-7-.7-10.6-.8l-10.7-.5-10.8-.8c-7.3-.5-14.6-.7-21.9-1.3l-10.8-.8-10.6-1-2.4-.1c-.3 0-2-.3-2 .1Zm14 4.1c0 .5 7.2.9 8 1 2.8.2 5.6.6 8.4 1 5.3.5 10.8.6 16.1 1.3l4.5.5 2.2.2 1 .2h.6s.5.1.2 0l.2.1a81.9 81.9 0 0 1 4 .7l4.4.4c3 .3 5.9.4 8.8.8 2.9.3 5.7.8 8.6 1.2 2.8.3 5.6.4 8.5.8l9.6 1.4h.3l.6.1a75.2 75.2 0 0 0 4 .6l2.5.3c.7.1 1.5.4 2.1-.2.4-.3.5-1 .1-1.4-.4-.7-1.4-.7-2.1-.8-1.7-.2-3.4-.3-5-.6l-10.5-1.5c-3.5-.5-7-.7-10.6-1-3.6-.5-7.2-1-10.8-1.3-3.6-.3-7.2-.3-10.7-.7-1.7-.2-3.4-.6-5.2-.7l-5.3-.4-5.2-.4c-1.8-.2-3.6-.1-5.4-.2a227.2 227.2 0 0 1-16.2-1c-1.8-.1-3.7-.1-5.5-.3-.3 0-2.2-.4-2.2 0Zm85.1 9.6h.2-.2Zm-44-5.3Zm20.4 5.2 7 .9c2.2.3 4.6.4 7 .8 4.4.6 8.9 1.4 13.4 2.2l3.3.5c.7.2 2 .8 2.5-.1.5-1.2-1.3-1.3-2-1.4-1.1-.1-2.3 0-3.4-.2-4.5-.7-9-1.4-13.4-1.7l-8-.5-3.7-.4-1.8-.2c-.2 0-.7-.2-.9-.1 0 0-.2.2 0 .2ZM475 237.5c-3.2 0-6.6 0-9.9.4-3.1.2-6.2 1-9.3 1.6l-5 1-4.6 1.4c-1.6.4-3 1-4.7 1.4l-4.4 1-2.6.6-2.6.7-2.5.3-2.3.4-2.6.5-1 .1c-.7 0-.7.2 0 .2 1.5 0 3.4-.3 4.8-.6l2.6-.3c.9 0 1.8 0 2.6-.3 1.6-.6 3.4-.8 5-1.2 3.6-.8 7.3-1.4 11-2.3a251 251 0 0 1 10.9-2.3c3.8-.7 7.7-.7 11.6-.8 4.4-.1 8.8-.4 13.2 0l2 .2h.8l1.2.2 2.6.2c1.7.3 3.4.8 5.1 1l9.9 2.2c3.5.8 7 1.6 10.5 2.2 3.5.7 7 1 10.4 1.8l2.6.4c.3 0 2.1.5 2.1 0 0-.3-1.9-.3-2.2-.4-.9 0-1.7-.2-2.5-.4-3.5-.8-6.9-1.3-10.3-2-6.6-1.6-13.2-3.5-19.9-5l-2.5-.4-2.5-.6c-1.5-.3-3.1-.7-4.7-.8a134.5 134.5 0 0 0-12.8-.4Zm12 2Zm-47.9 5Zm-1.7.4Zm-10.3 1.4Zm2.1 0Zm-57.5-10c-.4 0-.8 0-1 .4-.4.3-.4.9.1 1 .3.2.6 0 1 0h1.5c1.1 0 2.3.4 3.4.6l3.2.8 6 2.5c2.1.7 4.1 1.8 6.2 2.5l3.1 1 3.4 1a12.7 12.7 0 0 0 2.1.5c.1 0 .5.2.4 0-.1-.2-1.3-.3-1.6-.4l-1.7-.5-6-2.2-6.3-3-6.7-3a24.6 24.6 0 0 0-7.1-1.2Zm206.6.7c-1.6.1-3.3.5-4.9 1-1.6.5-3.1 1.3-4.7 2-1.4.5-2.6 1.4-4 2l-4.4 2c-1.8.7-3.7 1.3-5.6 1.7l-1.8.2c-.2 0-.7 0-.7.2-.2.3.4.2.6.2a72 72 0 0 0 11.1-3l3.4-1.6 4-1.4a19 19 0 0 1 3.6-.8l3.6-.5h1.9c.5 0 1.1-.3 1.1-1 0-1.4-2.3-1-3.2-1Zm-13.2 4.8Zm-.1.1Zm25.4-2.6c-.5 0-.9.5-.7 1 .2.5.8.6 1.2.8 1 .3 2.2.9 3 1.3 1.4.7 2.7 1.7 4 2.6a57.6 57.6 0 0 1 3.1 2.5l.3.3.2.2.2.1.3.4.6.6 1.4 1.6a26.4 26.4 0 0 1 3 4.5l.4 1c0 .1.2.7.4.8.4.2-.2-1-.2-1.2l-.9-1.8c-.5-1-1.2-2-1.9-3l-2.2-3c-1.6-1.8-3.6-3.3-5.5-4.8a27.3 27.3 0 0 0-5-3.3c-.5-.3-1-.7-1.7-.7Zm3.4 3ZM362 238.9c-.8 0-1.8.7-2.4 1-.9.6-1.8 1-2.7 1.4a19 19 0 0 0-4 2.8l-1 .9a28.4 28.4 0 0 0-5 5.5c-.2.3 0 .3.2 0l.7-1c1-1.4 2.1-2.5 3.5-3.5s2.8-2 4.4-2.8a304.6 304.6 0 0 1 5.8-2.7c.3 0 .7-.2 1-.4.5-.4.1-1.2-.6-1.2Zm-10.3 6.2Z" fill="#fff"/></g><defs><clipPath id="a"><path fill="#fff" d="M0 0h914v400H0z"/></clipPath></defs></svg>